{"glyphs":{"0":{"ha":442,"x_min":33,"x_max":422,"o":"m 269 542 q 361 513 328 539 q 408 442 394 486 q 417 336 422 397 q 394 203 413 275 q 344 87 376 133 q 275 13 313 40 q 199 -24 238 -14 q 132 -26 161 -33 q 81 -3 104 -21 q 46 50 58 15 q 35 138 33 85 q 58 267 36 190 q 107 396 79 343 q 163 481 135 449 q 219 528 192 514 q 269 542 247 543 m 317 239 q 337 344 333 300 q 334 416 340 388 q 313 459 328 444 q 278 478 299 474 q 238 460 258 482 q 198 405 217 439 q 163 331 179 371 q 136 256 146 290 q 115 106 108 165 q 144 40 121 47 q 186 43 163 35 q 233 76 210 51 q 278 140 257 100 q 317 239 300 181 z "},"1":{"ha":311,"x_min":44,"x_max":321,"o":"m 189 549 q 288 545 258 561 q 319 496 317 529 q 303 417 321 463 q 260 322 285 371 q 211 228 236 274 q 175 150 186 182 q 145 53 158 97 q 135 -39 132 10 q 78 -35 97 -49 q 56 6 60 -22 q 58 74 51 35 q 75 151 64 113 q 100 223 86 189 q 124 278 114 257 q 151 338 139 310 q 172 393 163 367 q 123 363 153 378 q 69 349 93 349 l 44 415 q 96 438 71 421 q 142 478 118 451 q 189 549 167 504 z "},"2":{"ha":446,"x_min":29,"x_max":422,"o":"m 43 357 q 60 440 42 404 q 81 471 68 456 q 115 498 94 486 q 164 517 135 510 q 232 526 193 525 q 322 508 285 526 q 378 458 358 490 q 398 384 397 426 q 380 295 399 342 q 322 201 361 249 q 221 110 282 153 l 114 28 q 229 74 174 57 q 324 94 276 89 q 399 79 371 99 q 417 53 413 68 q 422 24 422 39 q 418 -6 422 8 q 410 -29 414 -21 q 318 -4 369 -10 q 211 -5 274 1 q 69 -43 149 -11 q 38 -8 47 -28 q 33 29 29 7 q 71 75 38 51 q 142 127 104 99 q 212 188 179 156 q 266 256 244 219 q 288 333 288 293 q 259 401 288 381 q 199 417 231 421 q 144 390 167 414 q 136 328 122 367 q 93 318 113 318 q 61 325 76 317 q 43 357 46 333 z "},"3":{"ha":426,"x_min":29,"x_max":406,"o":"m 386 240 q 404 172 406 217 q 383 81 403 128 q 329 -4 364 35 q 248 -55 294 -43 q 146 -44 201 -67 q 29 58 90 -21 q 53 115 38 93 q 84 140 65 133 q 128 119 103 146 q 202 60 169 75 q 260 49 235 44 q 302 73 285 53 q 331 118 319 93 q 328 166 343 146 q 280 197 313 186 q 205 207 247 207 q 121 194 163 207 q 101 218 110 207 q 89 235 94 228 q 83 246 83 243 q 101 263 83 247 q 143 303 118 279 q 194 354 168 326 q 239 406 221 382 q 260 449 257 431 q 244 474 264 468 q 212 443 231 458 q 172 415 193 428 q 126 392 150 401 q 79 383 103 383 l 56 442 q 107 463 82 447 q 155 498 129 475 q 203 560 181 521 q 279 563 243 567 q 339 547 310 560 q 381 504 368 535 q 377 459 389 483 q 342 410 365 435 q 290 361 319 385 q 237 320 261 338 q 198 292 213 303 q 188 285 183 282 q 229 294 203 293 q 285 290 256 294 q 342 272 314 285 q 386 240 369 260 z "},"4":{"ha":463,"x_min":19,"x_max":442,"o":"m 432 132 q 397 131 414 132 q 364 131 381 131 q 359 78 361 104 q 354 31 357 53 q 349 -6 351 10 q 346 -29 347 -22 q 327 -41 343 -40 q 294 -34 311 -42 q 264 -11 276 -26 q 254 24 251 4 q 263 63 257 39 q 276 118 269 88 q 146 85 194 104 q 78 63 97 67 q 53 69 64 60 q 35 92 42 79 q 19 126 26 107 q 103 231 63 172 q 172 349 143 289 q 216 464 201 408 q 225 558 231 519 q 245 583 222 578 q 297 586 268 589 q 376 574 332 583 q 371 517 379 549 q 347 449 363 485 q 308 378 331 414 q 264 308 286 342 q 139 144 210 229 q 210 160 171 156 q 289 167 249 164 q 307 245 299 204 q 321 328 315 286 q 344 326 333 331 q 362 315 354 324 q 372 290 369 307 q 372 242 374 275 q 368 168 371 208 q 397 167 383 168 q 421 167 411 167 l 442 167 l 432 132 z "},"5":{"ha":426,"x_min":18,"x_max":447,"o":"m 435 558 q 444 521 440 539 q 447 488 447 506 q 435 457 446 471 q 406 442 428 449 q 355 432 385 435 q 290 432 325 429 q 222 444 256 435 q 224 397 225 421 q 221 356 224 374 q 214 315 218 333 q 364 272 322 318 q 396 125 406 225 q 360 41 390 75 q 288 -12 329 7 q 199 -33 246 -31 q 111 -24 151 -36 q 44 15 71 -12 q 18 86 18 43 q 34 138 18 118 q 67 165 50 157 q 97 172 85 174 q 101 160 108 169 q 99 88 74 117 q 182 60 124 58 q 229 75 208 61 q 264 110 250 89 q 285 155 278 131 q 290 199 292 179 q 266 248 288 233 q 218 265 244 263 q 167 263 192 268 q 132 253 142 257 q 117 253 122 249 q 110 265 113 258 q 107 286 107 274 q 131 332 124 304 q 139 390 138 360 q 138 448 140 419 q 132 496 135 476 q 120 515 125 503 q 115 537 115 526 q 123 553 115 547 q 147 558 131 560 q 236 529 189 538 q 328 525 276 522 q 435 558 381 528 z "},"6":{"ha":421,"x_min":4,"x_max":379,"o":"m 276 279 q 337 264 313 285 q 369 206 361 243 q 365 122 376 169 q 317 28 353 75 q 257 -24 293 -3 q 183 -52 221 -44 q 110 -52 146 -60 q 49 -19 74 -44 q 14 53 24 7 q 18 169 4 100 q 89 350 39 274 q 190 475 139 426 q 321 572 250 532 q 377 508 375 536 q 354 465 379 479 q 212 360 263 413 q 138 264 161 307 q 103 167 108 214 q 153 217 125 193 q 208 254 176 236 q 276 279 240 272 m 189 10 q 226 41 211 15 q 249 96 242 67 q 253 150 256 125 q 236 179 250 175 q 199 173 221 183 q 154 147 176 163 q 100 107 129 131 q 106 47 97 72 q 131 13 113 26 q 189 10 150 -1 z "},"7":{"ha":328,"x_min":6,"x_max":418,"o":"m 19 560 q 167 531 97 540 q 227 524 196 526 q 286 523 258 522 q 338 529 314 524 q 379 546 363 535 q 399 528 390 538 q 412 506 406 518 q 417 475 418 493 q 396 431 417 463 q 346 355 375 399 q 285 258 317 311 q 230 152 253 206 q 199 49 207 99 q 208 -42 190 -1 q 150 -36 175 -44 q 110 -11 128 -29 q 92 44 92 7 q 108 119 92 78 q 151 203 125 160 q 206 288 176 246 q 262 363 236 329 q 306 421 288 397 q 326 451 324 444 q 196 419 257 426 q 143 417 169 417 q 93 422 117 417 q 50 440 69 428 q 19 475 31 453 q 7 511 8 496 q 8 538 6 526 q 19 560 13 550 z "},"8":{"ha":508,"x_min":50,"x_max":536,"o":"m 526 463 q 524 401 536 429 q 491 349 513 372 q 445 311 469 326 q 407 288 421 296 q 433 235 419 264 q 457 175 446 207 q 476 53 483 104 q 439 -31 468 1 q 367 -74 410 -62 q 279 -78 324 -86 q 200 -51 242 -72 q 124 3 158 -31 q 70 82 90 36 q 58 186 50 128 q 85 249 63 218 q 136 306 107 279 q 197 353 165 332 q 250 388 228 375 q 203 467 219 429 q 200 538 186 504 q 238 578 211 565 q 298 591 264 590 q 369 582 332 592 q 438 555 406 572 q 494 514 471 538 q 526 463 518 490 m 369 113 q 369 171 375 142 q 351 228 364 200 q 322 284 339 257 q 286 336 304 311 q 166 226 194 283 q 154 126 138 168 q 176 92 160 111 q 215 58 193 74 q 260 33 236 43 q 307 28 285 24 q 346 51 329 32 q 369 113 363 71 m 449 397 q 428 448 453 422 q 372 490 404 474 q 310 507 339 506 q 279 485 282 508 q 288 466 279 478 q 310 435 296 454 q 344 391 325 417 q 383 331 363 365 q 425 360 404 342 q 449 397 446 378 z "},"9":{"ha":446,"x_min":36,"x_max":411,"o":"m 88 467 q 147 519 111 497 q 223 549 183 540 q 300 550 263 557 q 364 517 338 543 q 401 445 390 492 q 396 326 411 399 q 324 152 372 225 q 226 31 276 79 q 101 -62 168 -25 q 63 -28 75 -44 q 48 1 50 -12 q 52 24 46 14 q 71 42 58 35 q 207 142 158 90 q 279 235 256 193 q 314 329 307 283 q 265 281 292 303 q 212 244 242 261 q 146 221 182 226 q 85 235 111 214 q 47 292 58 256 q 44 376 36 329 q 88 467 53 422 m 315 382 q 306 443 315 418 q 278 478 297 465 q 225 481 260 492 q 178 442 194 469 q 156 385 161 415 q 155 330 150 354 q 175 301 160 306 q 213 308 189 296 q 260 338 236 321 q 315 382 286 357 z "},"\u0000":{"ha":0,"x_min":0,"x_max":0,"o":""},"\r":{"ha":318,"x_min":0,"x_max":0,"o":""}," ":{"ha":318,"x_min":0,"x_max":0,"o":""},"e":{"ha":371,"x_min":-1,"x_max":432,"o":"m 431 96 q 407 58 432 88 q 340 1 382 29 q 242 -43 297 -26 q 125 -43 186 -60 q 43 10 74 -29 q 6 100 13 50 q 17 201 -1 150 q 83 289 36 253 q 149 325 114 311 q 215 345 183 339 q 274 352 247 351 q 314 349 300 353 q 349 329 336 342 q 361 301 360 318 q 343 260 363 285 q 298 213 326 238 q 238 167 269 189 q 173 127 206 144 q 114 101 140 110 q 145 38 114 58 q 220 19 176 17 q 310 44 264 21 q 389 114 357 68 q 408 113 400 114 q 422 108 415 111 q 431 96 429 104 m 213 281 q 153 231 175 269 q 119 153 131 192 q 178 184 147 164 q 224 232 208 204 q 232 272 239 260 q 213 281 225 283 z "},"f":{"ha":285,"x_min":-50,"x_max":343,"o":"m 186 547 q 251 568 219 567 q 304 563 282 569 q 335 544 326 556 q 332 525 343 532 q 257 460 290 499 q 198 376 224 422 q 151 280 172 331 q 113 179 131 229 q 173 194 138 189 q 233 181 208 199 q 242 151 249 169 q 231 125 236 132 q 217 124 228 121 q 192 132 207 128 q 160 138 178 136 q 124 132 142 140 q 160 96 142 117 q 194 48 179 75 q 216 -12 208 21 q 219 -86 224 -46 q 185 -205 213 -167 q 124 -255 157 -243 q 63 -260 92 -267 q 22 -242 33 -253 q -35 -167 -19 -214 q -49 -69 -50 -121 q -35 33 -47 -17 q -8 115 -22 82 q 40 249 18 179 q 83 378 61 318 q 130 484 106 439 q 186 547 154 529 m 131 -67 q 141 -15 142 -40 q 132 30 140 10 q 110 65 124 50 q 85 89 97 81 q 63 0 72 43 q 46 -82 53 -43 q 67 -97 54 -93 q 92 -97 79 -100 q 115 -87 104 -94 q 131 -67 126 -79 z "},"g":{"ha":422,"x_min":-14,"x_max":514,"o":"m 157 -261 q 90 -236 119 -254 q 44 -192 65 -221 q 24 -118 24 -164 q 45 -49 24 -83 q 104 0 67 -15 q 28 27 56 0 q -6 94 1 54 q -1 182 -14 135 q 40 269 11 229 q 108 333 71 311 q 183 360 146 354 q 254 361 221 367 q 313 346 288 356 q 340 370 322 364 q 379 375 358 376 q 422 368 400 374 q 458 357 443 363 q 422 296 442 332 q 381 222 406 265 q 329 119 357 178 q 367 140 347 129 q 408 158 388 150 q 444 173 428 167 q 472 179 461 179 q 490 167 482 179 q 504 140 499 156 q 512 112 510 125 q 513 99 514 99 q 449 99 481 103 q 389 85 418 94 q 334 64 360 76 q 289 39 308 51 q 256 -31 274 7 q 222 -108 239 -68 q 189 -187 206 -147 q 157 -261 172 -226 m 100 89 q 133 69 108 74 q 194 83 158 64 q 217 136 206 108 q 239 192 228 164 q 261 247 250 221 q 283 296 272 274 q 182 286 224 308 q 113 224 140 264 q 99 197 106 213 q 90 164 93 182 q 89 126 88 146 q 100 89 90 107 m 90 -78 q 85 -126 76 -106 q 117 -158 93 -147 q 133 -98 121 -132 q 160 -31 144 -64 q 119 -47 140 -35 q 90 -78 99 -60 z "},"h":{"ha":422,"x_min":-3,"x_max":485,"o":"m 428 144 q 443 156 433 154 q 463 154 453 157 q 485 143 474 150 q 426 57 461 86 q 360 15 392 28 q 282 0 322 0 q 234 14 250 1 q 213 45 218 26 q 209 85 207 64 q 215 125 211 106 q 229 161 219 140 q 249 203 239 182 q 266 242 258 224 q 274 269 274 260 q 263 294 272 290 q 239 292 253 299 q 209 272 225 286 q 181 243 193 258 q 119 120 140 176 q 93 1 97 64 q 56 1 72 -3 q 11 34 25 8 q 1 99 -3 60 q 25 190 4 139 q 85 301 46 242 q 147 412 124 360 q 181 503 169 464 q 199 588 194 549 q 296 566 267 585 q 327 516 325 547 q 309 444 329 485 q 257 357 289 403 q 285 363 272 361 q 307 367 297 365 q 328 368 318 368 q 376 349 363 367 q 388 305 389 331 q 374 247 386 279 q 349 185 363 215 q 326 131 336 156 q 318 94 317 107 q 335 69 321 69 q 367 79 349 68 q 402 110 385 90 q 428 144 419 129 z "},"i":{"ha":193,"x_min":-1,"x_max":268,"o":"m 213 158 q 226 171 217 169 q 244 171 235 172 q 268 164 256 168 q 223 71 253 104 q 163 21 193 38 q 88 -6 126 1 q 45 1 63 -8 q 17 27 28 11 q 3 65 7 43 q 0 108 -1 86 q 16 168 1 128 q 49 250 31 208 q 96 354 69 299 q 133 374 110 369 q 179 376 156 378 q 235 367 206 374 q 169 256 197 308 q 146 210 157 233 q 126 165 135 186 q 113 124 118 143 q 110 93 108 106 q 126 69 113 68 q 157 84 140 69 q 190 120 174 99 q 213 158 206 142 m 190 406 q 145 424 164 406 q 126 471 126 443 q 145 516 126 497 q 190 535 164 535 q 237 516 218 535 q 256 471 256 497 q 237 424 256 443 q 190 406 218 406 z "},"j":{"ha":194,"x_min":-236,"x_max":269,"o":"m 72 358 q 169 335 142 356 q 193 283 196 315 q 165 206 190 250 q 107 113 140 163 q 141 137 124 125 q 174 158 158 149 q 201 174 189 168 q 219 182 213 181 q 243 172 233 183 q 259 146 253 160 q 267 119 265 132 q 268 106 269 107 q 212 97 243 107 q 149 71 181 86 q 89 38 118 56 q 40 8 60 21 q -29 -129 -8 -75 q -60 -215 -50 -183 q -76 -256 -69 -246 q -103 -261 -82 -265 q -169 -236 -140 -254 q -215 -192 -194 -221 q -236 -118 -236 -164 q -220 -61 -236 -85 q -180 -22 -204 -37 q -128 3 -156 -7 q -75 17 -100 13 l -42 72 q 20 183 -3 131 q 54 274 43 235 q 72 358 68 319 m 181 535 q 227 516 208 535 q 246 471 246 497 q 227 424 246 443 q 181 406 208 406 q 135 424 154 406 q 117 471 117 443 q 135 516 117 497 q 181 535 154 535 m -169 -78 q -175 -126 -183 -106 q -143 -158 -167 -147 q -103 -37 -135 -106 q -142 -51 -122 -42 q -169 -78 -161 -60 z "},"k":{"ha":388,"x_min":-19,"x_max":446,"o":"m 389 144 q 402 156 393 156 q 421 154 411 157 q 446 143 432 150 q 385 57 422 86 q 311 15 347 28 q 224 0 268 0 q 185 10 199 1 q 165 33 171 19 q 161 64 160 47 q 169 96 163 81 q 185 159 186 135 q 176 198 185 183 q 158 219 168 213 q 144 229 147 225 q 87 84 100 144 q 74 0 74 24 q 39 0 56 -1 q -6 33 8 7 q -17 98 -19 58 q 7 189 -14 138 q 67 300 28 240 q 127 411 104 360 q 161 503 150 463 q 179 588 175 549 q 271 567 244 585 q 297 521 297 550 q 277 451 297 492 q 229 365 257 411 q 335 405 292 411 q 389 368 379 399 q 397 310 397 343 q 388 260 396 278 q 381 244 385 253 q 368 228 376 236 q 345 217 360 221 q 306 214 331 213 q 283 226 285 215 q 285 254 281 238 q 295 290 290 271 q 294 328 300 310 q 281 333 292 336 q 256 320 271 331 q 224 294 242 310 q 190 260 207 278 l 193 260 q 250 244 233 264 q 269 197 267 225 q 267 138 272 168 q 260 94 263 108 q 260 63 254 71 q 280 57 267 54 q 310 69 293 60 q 344 93 328 79 q 372 121 360 107 q 389 144 385 135 z "},"l":{"ha":219,"x_min":-3,"x_max":324,"o":"m 196 588 q 294 565 265 585 q 324 513 324 546 q 301 437 324 481 q 246 343 279 393 q 184 247 213 293 q 138 166 156 201 q 114 108 119 131 q 124 81 108 85 q 156 84 139 76 q 189 103 174 92 q 225 135 207 117 q 244 120 240 129 q 246 103 249 111 q 236 82 243 93 q 207 58 228 74 q 160 28 186 43 q 107 5 135 14 q 56 0 79 -4 q 11 33 25 7 q 0 98 -3 58 q 24 189 3 138 q 83 300 44 240 q 144 411 121 360 q 178 503 167 463 q 196 588 192 549 z "},"m":{"ha":626,"x_min":-1,"x_max":708,"o":"m 651 151 q 666 164 657 163 q 685 163 675 165 q 708 153 696 160 q 656 65 689 94 q 592 19 624 35 q 514 0 556 3 q 466 12 482 0 q 444 41 450 24 q 438 80 438 58 q 440 121 439 101 q 447 147 440 131 q 462 184 453 164 q 482 226 471 204 q 504 269 493 249 q 447 210 481 253 q 381 122 413 167 q 326 40 350 76 q 300 0 303 4 l 296 0 q 247 12 264 0 q 222 42 229 24 q 217 81 215 60 q 222 121 218 101 q 247 192 229 153 q 283 267 264 231 q 224 201 258 246 q 158 113 190 157 q 83 0 122 60 l 79 0 q 30 12 47 0 q 6 42 13 24 q 0 81 -1 60 q 6 121 1 101 q 31 194 13 153 q 69 272 50 236 q 118 357 92 315 q 156 372 133 371 q 203 371 179 374 q 258 357 229 367 q 219 311 239 336 q 183 260 203 289 q 143 199 163 232 q 208 259 174 231 q 269 310 242 288 q 335 357 303 335 q 373 372 350 371 q 419 371 396 374 q 475 357 446 367 q 436 311 456 336 q 399 261 419 290 q 360 200 379 232 q 424 260 390 232 q 486 310 458 288 q 551 357 519 335 q 553 358 551 358 q 556 360 553 358 q 594 373 571 372 q 640 371 618 374 q 693 357 665 365 q 618 253 651 303 q 567 166 590 210 q 544 96 543 122 q 559 70 546 71 q 590 82 572 69 q 626 115 608 94 q 651 151 643 135 z "},"n":{"ha":429,"x_min":-1,"x_max":492,"o":"m 435 151 q 449 164 440 163 q 468 163 458 165 q 492 153 479 160 q 440 65 472 94 q 375 19 407 35 q 297 0 339 3 q 242 16 260 0 q 221 56 225 32 q 224 111 217 81 q 242 172 231 142 q 266 227 253 201 q 288 269 279 253 q 230 210 264 253 q 165 122 196 167 q 110 40 133 76 q 83 0 86 4 l 79 0 q 30 12 47 0 q 6 42 13 24 q 0 81 -1 60 q 6 121 1 101 q 31 194 13 153 q 69 272 50 236 q 118 357 92 315 q 156 372 133 371 q 203 371 179 374 q 258 357 229 367 q 219 311 239 336 q 183 261 203 290 q 143 200 163 232 q 249 292 211 254 q 315 349 286 329 q 379 371 344 368 q 476 357 414 374 q 401 253 435 303 q 350 166 374 210 q 328 96 326 122 q 342 70 329 71 q 374 82 356 69 q 409 115 392 94 q 435 151 426 135 z "},"o":{"ha":386,"x_min":-4,"x_max":413,"o":"m 315 125 q 349 122 332 122 q 381 124 367 122 q 413 128 396 125 q 399 85 408 97 q 388 76 393 79 q 328 73 357 68 q 281 81 300 78 q 204 26 253 53 q 96 0 156 0 q 31 27 54 0 q 1 94 7 54 q 8 182 -4 135 q 50 269 21 229 q 155 353 97 333 q 261 367 213 374 q 339 365 310 386 q 371 303 368 343 q 367 253 372 278 q 354 204 363 228 q 335 160 346 181 q 315 125 324 140 m 303 263 q 294 272 301 265 q 282 269 290 272 q 265 256 274 265 q 250 230 256 247 q 247 183 244 213 q 253 164 249 172 q 264 149 257 156 q 301 213 292 181 q 303 263 310 246 m 114 83 q 132 69 119 72 q 160 68 144 65 q 193 78 175 71 q 228 99 211 86 q 190 133 203 113 q 175 177 178 153 q 177 227 172 201 q 192 276 182 253 q 126 214 151 254 q 113 185 118 201 q 105 150 107 168 q 105 114 103 132 q 114 83 107 96 z "},"p":{"ha":474,"x_min":-235,"x_max":478,"o":"m 379 364 q 444 337 421 364 q 472 269 467 310 q 465 181 478 228 q 424 94 453 133 q 328 15 381 36 q 230 -5 276 -7 q 149 15 183 -3 q 108 51 115 32 q 104 64 106 58 q 103 75 103 69 q 52 -3 74 33 q 15 -71 31 -39 q 80 -98 44 -79 q 136 -153 115 -117 q 147 -182 144 -167 q 144 -211 150 -197 q 119 -236 138 -225 q 64 -251 100 -247 q 64 -214 69 -233 q 40 -178 58 -197 q -18 -143 22 -160 q -40 -195 -31 -174 q -56 -231 -49 -217 q -73 -252 -64 -244 q -96 -262 -82 -260 q -130 -262 -108 -265 q -174 -247 -151 -260 q -213 -208 -196 -233 q -233 -143 -231 -183 q -223 -97 -235 -117 q -190 -64 -211 -76 q -142 -46 -169 -51 q -83 -42 -114 -40 q -32 60 -60 10 q 23 160 -4 110 q 75 261 50 210 q 118 368 100 313 q 199 351 174 365 q 226 311 224 336 q 295 348 256 332 q 379 364 335 364 m -137 -197 q -133 -176 -137 -190 q -125 -150 -129 -162 q -114 -119 -119 -135 q -159 -128 -136 -121 q -183 -156 -182 -136 q -169 -184 -185 -175 q -137 -197 -154 -193 m 360 156 q 374 181 367 165 q 384 215 381 197 q 387 249 388 232 q 379 279 386 267 q 349 294 371 293 q 299 287 326 296 q 245 261 272 278 q 201 222 218 244 q 187 198 194 211 q 169 172 179 185 q 199 185 185 188 q 217 182 214 183 q 205 165 218 181 q 185 131 192 149 q 182 118 183 126 q 184 102 181 110 q 197 88 188 94 q 225 81 206 82 q 307 99 278 76 q 360 156 336 121 z "},"q":{"ha":451,"x_min":-4,"x_max":481,"o":"m 476 -78 q 478 -115 481 -96 q 467 -148 475 -133 q 449 -172 460 -162 q 431 -181 439 -181 q 404 -169 415 -181 q 394 -158 399 -164 q 399 -106 408 -126 q 372 -74 389 -86 q 322 -51 353 -58 q 331 -87 331 -67 q 324 -132 331 -106 q 296 -193 317 -158 q 251 -242 274 -228 q 211 -261 229 -257 q 169 -261 189 -267 q 132 -229 142 -256 q 127 -164 122 -203 q 151 -76 132 -125 q 201 25 171 -28 q 151 7 178 14 q 96 0 125 0 q 31 27 54 0 q 1 94 7 54 q 8 182 -4 135 q 50 269 21 229 q 126 338 85 317 q 209 363 168 358 q 285 358 250 367 q 342 336 321 349 q 344 353 344 350 l 344 358 q 441 335 414 356 q 465 282 468 315 q 437 205 463 249 q 378 111 411 161 q 331 41 351 74 q 296 -21 311 8 q 344 -14 315 -12 q 401 -24 374 -15 q 451 -46 429 -32 q 476 -78 472 -60 m 118 76 q 144 61 126 61 q 183 71 161 61 q 227 97 204 81 q 268 135 250 114 q 281 159 275 147 q 292 182 286 171 q 269 177 279 175 q 258 181 260 179 q 260 187 257 182 q 269 199 264 192 q 281 216 275 207 q 289 233 286 225 q 294 247 290 238 q 296 266 297 257 q 287 283 294 275 q 260 293 279 290 q 188 272 219 297 q 132 214 156 247 q 119 185 125 203 q 111 148 114 168 q 110 108 108 128 q 118 76 111 89 m 271 -129 q 273 -100 276 -114 q 265 -76 269 -86 q 241 -131 250 -107 q 225 -175 232 -156 q 253 -158 240 -171 q 271 -129 265 -146 z "},"s":{"ha":285,"x_min":-1,"x_max":308,"o":"m 215 233 q 222 208 218 219 q 231 183 226 196 q 238 152 235 169 q 240 110 240 135 q 221 49 240 74 q 173 10 201 24 q 113 -5 144 -3 q 58 4 82 -7 q 25 30 39 14 q 5 65 11 46 q 0 105 -1 85 q 10 144 1 125 q 28 174 18 164 q 47 190 38 183 q 69 200 58 196 q 88 186 79 193 q 101 172 94 179 q 107 158 107 165 q 101 148 107 151 q 88 140 96 144 q 74 127 81 135 q 68 104 68 119 q 81 73 67 81 q 110 72 94 65 q 137 97 126 78 q 139 144 147 115 q 118 256 118 211 q 130 329 118 301 q 160 371 142 357 q 196 388 179 385 q 230 390 208 389 q 270 386 251 392 q 299 367 289 381 q 297 325 308 353 q 276 313 293 314 q 243 306 260 311 q 217 286 226 301 q 215 233 207 271 z "},"r":{"ha":436,"x_min":-4,"x_max":474,"o":"m 340 353 q 390 372 364 371 q 435 363 415 372 q 464 340 454 354 q 465 317 474 326 q 431 271 444 294 q 411 226 418 247 q 397 179 403 201 q 369 173 389 175 q 329 174 350 171 q 291 187 308 178 q 268 213 274 196 q 267 235 265 224 q 272 254 269 246 q 282 274 276 264 q 236 240 258 254 q 197 223 217 229 q 163 225 176 217 q 100 117 125 171 q 81 0 75 63 l 76 0 q 27 12 44 0 q 3 42 10 24 q -3 81 -4 60 q 3 121 -1 101 q 28 194 10 153 q 67 272 47 236 q 115 357 89 315 q 153 377 131 371 q 197 385 175 383 q 250 383 222 386 q 236 351 243 367 q 220 321 229 338 q 200 289 211 304 q 267 305 228 285 q 340 353 306 325 z "},"u":{"ha":404,"x_min":-11,"x_max":465,"o":"m 410 146 q 424 158 415 157 q 443 157 433 160 q 465 147 454 154 q 413 59 446 89 q 349 14 381 29 q 271 -6 313 -3 q 217 10 233 -6 q 197 49 201 25 q 151 17 174 28 q 108 1 128 7 q 65 -6 86 -4 q 17 6 33 -6 q -5 35 1 18 q -10 74 -11 53 q -8 115 -10 96 q 11 173 -7 135 q 50 251 29 211 q 104 351 75 297 q 143 367 119 365 q 190 365 167 368 q 244 351 215 361 q 169 247 203 297 q 118 160 142 204 q 96 90 94 117 q 111 65 97 65 q 143 76 125 64 q 178 109 161 89 q 204 146 196 129 q 208 151 206 149 q 236 214 219 179 q 269 279 253 249 q 310 351 289 315 q 349 367 325 365 q 396 365 372 368 q 450 351 421 361 q 375 247 408 297 q 324 160 347 204 q 301 90 300 117 q 317 65 303 65 q 349 76 331 64 q 384 109 367 89 q 410 146 401 129 z "},"t":{"ha":225,"x_min":-14,"x_max":576,"o":"m 17 517 q 44 513 26 515 q 81 508 61 511 q 119 501 100 506 q 151 493 139 497 q 158 539 157 513 q 158 589 160 565 q 154 647 157 617 q 228 630 200 649 q 270 583 256 611 q 286 522 285 554 q 281 463 288 489 q 309 459 290 460 q 348 458 328 458 q 385 460 368 458 q 408 463 401 461 q 453 485 436 469 q 481 521 471 501 q 494 568 492 542 q 556 549 536 567 q 576 508 576 532 q 556 460 576 485 q 497 417 536 435 q 398 395 457 400 q 261 408 339 390 q 231 346 250 381 q 190 276 211 311 q 150 208 169 242 q 118 148 131 175 q 103 103 106 121 q 115 81 101 85 q 150 85 131 76 q 188 106 169 93 q 231 139 208 119 q 250 124 246 133 q 251 107 254 115 q 240 86 249 97 q 209 62 232 78 q 158 31 186 46 q 101 6 131 15 q 49 0 71 -4 q -8 81 -14 14 q 65 275 -1 149 q 108 366 94 331 q 133 436 122 401 q 103 442 122 439 q 65 449 85 446 q 28 453 46 451 q 3 453 11 454 l 17 517 z "},"v":{"ha":372,"x_min":19,"x_max":439,"o":"m 247 0 q 179 14 210 -3 q 115 76 149 31 q 82 136 100 97 q 49 219 64 175 q 27 304 35 263 q 26 374 19 346 q 51 407 31 396 q 96 424 72 418 q 157 429 122 429 q 150 294 149 360 q 163 181 151 239 q 208 88 175 124 q 237 158 218 114 q 275 247 256 203 q 324 354 297 299 q 358 370 339 368 q 396 369 378 372 q 439 357 417 365 q 378 278 410 326 q 316 168 350 236 q 247 0 282 100 z "},"w":{"ha":583,"x_min":-6,"x_max":681,"o":"m 542 364 q 578 388 556 381 q 625 397 601 394 q 681 399 651 400 q 625 317 657 365 q 558 217 593 268 q 486 121 522 167 q 419 47 450 75 q 343 -6 378 8 q 274 -18 308 -21 q 218 8 236 -15 q 196 54 200 31 q 149 23 172 33 q 107 7 126 13 q 64 0 85 1 q 9 33 24 8 q -3 88 -6 57 q 13 156 -1 119 q 43 224 26 192 q 74 283 60 257 q 93 322 89 310 q 134 344 108 336 q 183 354 160 351 q 243 357 211 358 q 201 317 231 350 q 141 242 171 283 q 92 160 111 200 q 82 99 72 119 q 110 76 93 76 q 145 86 128 75 q 178 116 163 97 q 203 151 194 135 q 224 185 210 161 q 253 236 238 210 q 282 286 268 263 q 304 321 296 310 q 339 343 317 338 q 383 349 361 349 q 438 344 408 349 q 368 236 399 288 q 342 191 356 214 q 319 147 329 168 q 301 108 308 126 q 292 78 293 90 q 298 56 288 58 q 324 63 308 54 q 358 86 340 71 q 388 117 375 101 q 443 194 415 151 q 493 275 471 238 q 542 364 518 319 z "},"x":{"ha":467,"x_min":-15,"x_max":421,"o":"m 408 344 q 336 276 374 306 q 265 201 299 246 q 315 142 292 168 q 353 110 338 117 q 383 102 375 99 q 393 117 392 106 q 414 91 407 117 q 406 38 421 65 q 374 3 390 13 q 342 -6 358 -7 q 310 3 325 -6 q 282 24 294 11 q 248 59 271 35 q 199 115 225 83 q 160 63 179 90 q 123 13 140 36 q 91 -26 106 -10 q 68 -43 76 -42 q 32 -42 47 -47 q 6 -29 17 -37 q -15 -7 -7 -21 q 15 8 -3 -8 q 55 52 33 25 q 101 112 76 79 q 149 175 125 144 q 99 237 122 207 q 64 286 76 267 q 60 326 53 304 q 81 367 67 347 q 121 411 96 389 q 150 365 135 390 q 219 265 179 321 q 303 357 260 308 q 378 433 346 406 q 397 394 389 413 q 408 365 404 379 q 408 344 413 350 z "},"y":{"ha":414,"x_min":-49,"x_max":465,"o":"m 318 357 q 356 372 333 371 q 403 371 379 374 q 458 357 429 367 q 362 233 411 317 q 265 50 313 150 q 310 74 286 61 q 357 97 335 86 q 397 114 379 107 q 424 121 415 121 q 442 109 433 121 q 456 82 450 97 q 463 53 461 67 q 464 40 465 40 q 409 36 440 43 q 345 17 378 29 q 281 -10 313 4 q 226 -36 249 -25 q 180 -136 201 -89 q 140 -219 158 -183 q 108 -274 122 -254 q 85 -290 93 -293 q 18 -271 47 -286 q -28 -232 -7 -258 q -49 -160 -49 -206 q -31 -100 -49 -125 q 13 -57 -14 -75 q 68 -28 39 -39 q 122 -14 97 -18 q 129 6 129 4 q 132 11 129 7 q 108 5 119 7 q 90 1 97 3 q 74 0 81 0 q 9 32 26 7 q -6 92 -8 57 q 14 167 -3 126 q 51 244 31 207 q 89 312 71 282 q 113 357 107 342 q 151 372 128 371 q 197 371 174 374 q 253 357 224 367 q 178 253 211 303 q 126 166 150 210 q 104 96 103 122 q 114 72 104 76 q 137 74 124 68 q 165 94 150 81 q 193 124 181 108 q 253 242 225 182 q 318 357 282 303 m 19 -128 q 7 -178 4 -156 q 38 -212 10 -201 q 57 -176 46 -199 q 78 -132 68 -154 q 95 -92 88 -110 q 104 -69 103 -75 q 57 -90 83 -72 q 19 -128 31 -108 z "},"z":{"ha":518,"x_min":39,"x_max":539,"o":"m 464 368 q 493 357 476 368 q 522 331 510 346 q 536 299 533 315 q 522 271 539 282 q 491 250 511 263 q 446 222 471 238 q 393 190 421 207 q 338 156 365 172 q 197 71 272 117 q 254 79 225 75 q 310 83 279 82 q 374 82 342 85 q 419 60 404 79 q 439 22 433 42 q 443 -31 444 -3 q 360 -7 410 -14 q 261 1 311 0 q 169 -1 211 1 q 107 -7 126 -4 q 53 10 68 -12 q 61 60 39 32 q 100 88 68 68 q 175 131 132 107 q 264 181 218 156 q 344 228 310 207 q 396 261 379 249 q 397 272 413 274 q 344 272 374 269 q 288 276 314 274 q 225 285 257 281 q 197 212 219 231 q 149 192 175 193 q 81 207 118 190 q 119 247 113 219 q 124 303 126 275 q 106 374 119 336 q 226 349 167 353 q 333 350 285 346 q 417 361 382 354 q 464 368 451 368 z "},"d":{"ha":451,"x_min":-4,"x_max":565,"o":"m 439 588 q 537 565 508 585 q 565 513 565 546 q 542 437 565 481 q 486 343 519 393 q 424 245 453 293 q 378 158 396 197 q 357 94 361 119 q 369 64 353 68 q 401 67 383 60 q 435 86 419 75 q 471 117 453 99 q 490 103 486 111 q 492 86 494 94 q 481 65 489 76 q 449 37 469 53 q 403 8 428 21 q 351 -13 378 -6 q 300 -15 324 -21 q 261 11 272 -8 q 244 50 250 31 q 177 15 215 29 q 96 0 139 0 q 31 27 54 0 q 1 94 7 54 q 8 182 -4 135 q 50 269 21 229 q 130 340 86 318 q 215 367 174 363 q 291 361 256 371 q 346 336 326 351 q 396 435 378 389 q 424 515 414 481 q 439 588 435 554 m 114 83 q 134 68 119 71 q 167 69 149 65 q 204 83 185 74 q 242 108 224 93 q 294 250 249 168 q 287 274 296 263 q 246 289 278 286 q 179 272 214 292 q 122 218 144 251 q 109 188 114 206 q 103 152 104 171 q 104 115 101 133 q 114 83 107 96 z "},"A":{"ha":408,"x_min":-17,"x_max":488,"o":"m 342 613 q 438 616 406 628 q 478 576 469 604 q 479 508 488 549 q 455 423 471 467 q 419 337 439 379 q 389 264 400 294 q 349 103 361 189 q 344 -61 336 18 q 292 -65 313 -75 q 262 -31 272 -56 q 249 27 251 -7 q 247 96 246 61 q 253 161 249 131 q 261 210 257 192 q 253 232 258 218 q 238 261 247 246 q 217 290 229 276 q 189 310 204 303 q 162 261 175 286 q 138 208 149 236 q 94 91 111 150 q 81 -36 78 32 q 4 8 25 -25 q -12 88 -17 40 q 16 191 -8 135 q 75 305 40 247 q 151 417 110 363 q 231 513 193 471 q 299 583 268 556 q 342 613 329 610 m 306 307 q 333 369 318 333 q 363 442 349 406 q 390 509 378 478 q 404 557 401 540 q 387 564 399 569 q 359 542 375 558 q 324 501 343 525 q 288 453 306 478 q 254 408 269 429 q 229 374 239 386 q 267 349 242 369 q 306 307 293 329 z "},"B":{"ha":679,"x_min":-14,"x_max":686,"o":"m 635 338 q 676 313 665 338 q 678 247 686 288 q 645 156 669 207 q 583 53 621 106 q 494 -49 544 0 q 384 -135 443 -99 q 258 -190 325 -171 q 119 -201 190 -210 q 10 -166 35 -192 q 3 -105 -14 -140 q 68 -28 19 -69 q 178 51 117 13 q 144 156 135 78 q 218 344 153 235 q 274 458 254 406 q 306 550 294 510 q 324 635 318 596 q 428 613 401 635 q 451 554 456 592 q 491 577 468 565 q 539 597 514 589 q 590 607 564 606 q 642 599 617 608 q 669 567 664 589 q 664 516 674 544 q 632 455 654 488 q 578 390 610 422 q 507 327 546 357 q 425 276 468 297 q 458 291 435 281 q 510 312 481 301 q 573 330 540 322 q 635 338 606 338 m 403 463 q 339 359 376 415 q 276 254 301 303 q 397 317 338 275 q 500 403 457 360 q 563 483 543 447 q 565 525 583 518 q 540 524 558 528 q 497 510 521 519 q 447 489 472 501 q 403 463 422 476 m 54 -119 q 184 -126 118 -142 q 310 -72 250 -110 q 420 19 369 -33 q 507 123 471 72 q 560 215 543 174 q 571 271 578 256 q 546 272 567 278 q 494 253 525 267 q 426 222 463 240 q 354 186 389 204 q 290 153 319 168 q 247 129 261 138 q 239 89 240 107 q 311 128 275 110 q 379 162 347 147 q 437 187 411 176 q 479 201 463 197 q 471 154 478 176 q 449 115 464 135 q 403 83 433 96 q 347 58 382 75 q 269 19 311 40 q 186 -26 228 -3 q 113 -69 144 -50 q 63 -103 81 -89 q 54 -119 46 -117 z "},"C":{"ha":543,"x_min":-3,"x_max":624,"o":"m 31 722 q 49 728 35 732 q 78 717 63 724 q 117 693 94 707 q 167 594 132 626 q 246 551 201 563 q 363 609 304 590 q 469 635 421 628 q 551 640 517 642 q 593 638 585 639 q 613 627 607 633 q 621 615 618 621 q 622 601 624 608 q 566 568 600 585 q 492 538 532 551 q 410 515 453 525 q 325 501 367 506 q 219 401 263 457 q 152 290 176 346 q 122 184 128 235 q 128 100 117 133 q 206 10 149 38 q 339 -6 264 -18 q 405 16 372 0 q 465 49 438 32 q 513 83 493 67 q 540 104 533 99 q 557 113 547 110 q 576 115 567 115 q 590 113 585 115 q 594 106 596 110 q 587 92 592 101 q 565 66 582 82 q 517 26 549 50 q 431 -29 486 3 q 331 -68 388 -56 q 217 -76 274 -81 q 110 -49 160 -72 q 31 18 60 -26 q -1 129 1 63 q 36 290 -3 196 q 107 418 67 364 q 192 511 147 472 q 128 547 161 524 q 68 600 94 571 q 30 661 42 629 q 31 722 18 693 z "},"D":{"ha":624,"x_min":-33,"x_max":718,"o":"m 676 664 q 713 539 718 619 q 667 366 707 458 q 559 181 626 274 q 413 19 492 89 q 276 -72 346 -37 q 144 -114 206 -107 q 38 -99 83 -121 q -22 -19 -7 -76 q -22 61 -33 22 q 13 135 -11 100 q 17 240 0 175 q 82 388 33 304 q 139 501 118 449 q 171 593 160 553 q 189 678 185 639 q 292 656 265 678 q 315 597 319 635 q 396 666 350 635 q 491 710 442 697 q 588 715 540 724 q 676 664 636 706 m 249 4 q 357 98 304 39 q 455 225 410 157 q 534 364 500 293 q 583 493 568 435 q 592 589 599 551 q 553 631 586 626 q 451 617 500 636 q 365 574 403 599 q 303 527 326 549 q 281 506 281 506 q 211 384 249 443 q 142 257 174 325 q 183 286 168 275 q 223 306 207 301 q 250 308 239 310 q 271 299 263 306 q 208 232 240 265 q 150 171 181 204 q 94 108 119 138 q 54 35 65 75 q 58 -31 43 -6 q 118 -53 72 -56 q 249 4 164 -50 z "},"E":{"ha":547,"x_min":-14,"x_max":617,"o":"m 560 547 q 543 530 551 536 q 528 521 535 524 q 514 517 521 517 q 417 558 461 550 q 343 553 374 565 q 298 512 313 540 q 288 446 283 483 q 309 401 290 421 q 353 365 328 381 q 408 338 379 350 q 457 313 436 325 q 476 297 467 307 q 488 276 485 286 q 488 258 492 265 q 471 250 485 250 q 435 247 458 250 q 379 237 411 244 q 308 214 347 229 q 226 172 269 199 q 142 92 165 135 q 121 13 118 50 q 147 -52 124 -25 q 201 -83 169 -79 q 342 -72 283 -92 q 442 -21 401 -51 q 507 42 482 10 q 547 89 532 74 q 574 105 561 104 q 596 101 586 106 q 617 85 607 96 q 593 53 610 74 q 553 8 576 32 q 505 -40 531 -17 q 456 -81 479 -64 q 260 -160 353 -151 q 102 -136 167 -168 q 12 -43 38 -104 q 21 89 -14 18 q 110 199 56 158 q 218 260 165 240 q 346 289 279 283 q 239 351 281 304 q 186 449 197 397 q 198 546 175 501 q 285 603 221 590 q 399 608 349 615 q 486 588 450 601 q 560 547 528 572 z "},"F":{"ha":332,"x_min":-3,"x_max":781,"o":"m 250 656 q 360 656 310 663 q 456 635 411 649 q 542 604 501 621 q 621 577 582 588 q 699 566 660 567 q 781 583 738 565 q 750 517 768 546 q 710 469 735 492 q 654 444 686 447 q 578 458 621 442 q 485 497 535 475 q 385 538 436 518 q 286 564 333 558 q 310 513 313 543 q 292 452 307 483 q 259 392 278 421 q 233 342 240 363 q 293 333 261 340 q 358 307 325 326 q 343 283 351 293 q 324 267 336 274 q 299 260 313 260 q 284 265 293 260 q 263 276 275 271 q 235 286 250 282 q 201 288 219 290 q 165 226 182 258 q 132 160 147 194 q 105 81 115 122 q 93 -4 94 40 q 24 12 47 -10 q -1 74 1 33 q 17 172 -3 115 q 75 296 36 229 q 123 389 104 344 q 153 469 142 433 q 171 532 165 506 q 179 572 176 558 q 119 549 143 563 q 79 496 96 536 q 59 465 69 472 q 39 458 49 458 q 18 467 28 458 q 61 551 32 513 q 131 615 86 585 q 250 656 175 646 z "},"G":{"ha":615,"x_min":-7,"x_max":685,"o":"m 421 658 q 559 638 507 658 q 639 592 611 617 q 685 525 672 563 q 642 490 665 503 q 597 476 622 479 q 549 492 572 474 q 473 526 515 517 q 386 526 431 535 q 297 488 342 517 q 215 407 253 458 q 142 271 169 343 q 110 138 114 199 q 131 34 107 76 q 213 -11 156 -8 q 269 -4 242 -14 q 321 23 296 6 q 367 63 346 40 q 408 108 389 85 q 490 236 453 164 q 422 229 464 239 q 340 206 381 219 q 242 168 293 190 q 232 201 236 185 q 229 232 229 217 q 236 261 229 247 q 281 306 250 288 q 352 335 313 324 q 434 351 392 346 q 515 358 476 357 q 581 357 553 360 q 618 349 608 354 q 624 317 628 343 q 603 252 619 290 q 559 168 586 214 q 497 79 532 122 q 418 0 461 36 q 328 -56 375 -36 q 192 -76 256 -85 q 83 -29 128 -67 q 15 69 38 8 q 6 204 -7 129 q 68 399 24 314 q 172 541 113 483 q 296 628 231 599 q 421 658 361 658 z "},"H":{"ha":456,"x_min":1,"x_max":575,"o":"m 449 586 q 542 574 514 590 q 572 528 569 557 q 558 460 575 499 q 518 379 542 421 q 469 299 494 338 q 429 229 443 260 q 398 167 413 204 q 381 90 383 129 q 391 13 378 50 q 443 -49 404 -24 q 321 -49 361 -72 q 271 24 281 -25 q 278 140 261 74 q 326 268 294 206 q 301 273 317 271 q 264 271 285 275 q 217 255 243 267 q 161 218 192 243 q 114 113 133 168 q 93 -4 94 57 q 25 13 47 -10 q 2 78 3 36 q 22 179 1 121 q 81 304 42 238 q 136 417 117 365 q 167 506 156 468 q 182 586 179 550 q 284 563 260 589 q 300 496 308 538 q 261 403 292 454 q 201 301 231 351 q 273 338 228 319 q 371 360 318 357 q 415 450 399 408 q 438 522 431 492 q 449 586 446 558 z "},"I":{"ha":190,"x_min":3,"x_max":317,"o":"m 235 344 q 182 245 207 296 q 139 142 157 194 q 114 35 121 89 q 114 -75 107 -19 q 42 -67 67 -85 q 10 -15 18 -49 q 8 65 3 19 q 24 155 13 110 q 49 238 35 200 q 75 296 64 275 q 128 415 107 357 q 160 517 149 472 q 179 617 174 569 q 283 606 251 625 q 315 550 314 588 q 293 460 317 513 q 235 344 269 407 z "},"J":{"ha":636,"x_min":-6,"x_max":710,"o":"m 671 576 q 703 540 697 564 q 704 489 710 517 q 687 430 699 461 q 667 371 675 399 q 627 260 651 325 q 576 131 603 196 q 521 9 549 65 q 471 -76 493 -47 q 397 -142 436 -121 q 317 -164 357 -162 q 242 -151 278 -165 q 178 -110 206 -136 q 136 -51 151 -85 q 124 18 121 -18 q 152 110 128 71 q 206 176 176 150 q 266 217 236 203 q 311 233 296 231 q 345 229 326 236 q 381 213 364 222 q 421 185 400 200 q 298 116 344 160 q 233 29 251 72 q 220 -47 214 -14 q 257 -83 226 -81 q 300 -77 279 -86 q 338 -55 321 -68 q 368 -27 356 -42 q 388 -3 381 -12 q 444 103 417 42 q 497 233 472 164 q 542 374 522 301 q 574 513 561 446 q 465 458 526 485 q 332 411 403 431 q 185 381 261 392 q 32 376 108 371 q 19 397 31 376 q 1 442 7 418 q 3 483 -6 465 q 54 494 13 500 q 208 483 131 482 q 360 501 285 483 q 508 555 435 518 q 654 651 582 592 q 663 647 654 653 q 681 633 672 642 q 695 615 690 625 q 693 596 700 606 q 685 588 690 593 q 671 576 681 583 z "},"K":{"ha":494,"x_min":-1,"x_max":643,"o":"m 517 575 q 585 591 557 586 q 627 589 613 596 q 642 559 642 582 q 631 490 643 536 q 573 367 611 419 q 483 279 535 315 q 372 222 432 243 q 249 196 311 201 q 285 179 263 189 q 328 156 307 169 q 366 123 350 142 q 386 82 382 104 q 390 14 392 44 q 390 -37 388 -17 q 409 -65 393 -57 q 469 -65 425 -74 q 436 -104 456 -89 q 393 -126 419 -118 q 332 -128 367 -135 q 305 -108 315 -124 q 290 -70 294 -92 q 285 -24 285 -49 q 288 21 285 0 q 261 124 299 83 q 143 182 224 165 q 106 93 118 144 q 93 -4 94 42 q 60 -6 76 -8 q 13 25 28 0 q 0 90 -1 50 q 20 182 1 129 q 75 296 39 235 q 132 409 111 357 q 164 501 153 461 q 182 586 178 547 q 281 568 251 586 q 310 517 310 550 q 288 440 310 485 q 235 344 265 396 q 181 251 206 299 q 242 251 206 246 q 329 279 278 257 q 420 352 385 303 q 478 451 456 401 q 517 575 503 508 z "},"L":{"ha":424,"x_min":-1,"x_max":604,"o":"m 593 -37 q 603 -40 604 -31 q 589 -66 601 -49 q 556 -103 576 -83 q 509 -138 535 -124 q 454 -158 483 -153 q 397 -147 425 -162 q 349 -110 371 -133 q 307 -62 328 -87 q 265 -12 286 -36 q 219 27 244 13 q 164 43 194 42 q 94 25 133 44 q 93 10 93 18 q 93 -4 93 3 q 60 -6 76 -8 q 13 25 28 0 q 0 90 -1 50 q 20 182 1 129 q 75 296 39 235 q 132 415 111 357 q 164 517 153 472 q 182 617 178 569 q 281 594 251 617 q 310 533 310 571 q 288 445 310 494 q 235 344 265 396 q 158 215 197 282 q 100 76 119 147 q 135 92 115 85 q 175 103 154 99 q 217 106 196 107 q 257 99 238 106 q 318 63 292 86 q 366 15 344 39 q 409 -32 388 -10 q 456 -65 431 -54 q 515 -71 482 -75 q 593 -37 547 -67 z "},"M":{"ha":656,"x_min":11,"x_max":768,"o":"m 590 582 q 706 598 667 604 q 756 566 744 592 q 759 500 768 540 q 731 413 750 460 q 689 319 713 367 q 649 231 665 271 q 614 110 625 175 q 614 -18 603 44 q 582 -25 600 -25 q 531 -3 550 -25 q 507 58 513 19 q 510 152 501 97 q 544 274 519 207 q 594 469 586 389 q 540 378 572 438 q 474 249 508 318 q 409 113 432 164 q 375 33 386 61 q 361 -14 363 0 q 313 -17 338 -29 q 267 34 292 -6 q 218 167 242 74 q 206 228 210 197 q 201 284 203 258 q 198 329 199 310 q 196 357 197 349 q 184 323 193 344 q 165 272 175 301 q 144 203 154 242 q 131 119 135 165 q 141 28 125 65 q 176 -32 157 -10 q 78 -35 117 -53 q 26 25 40 -18 q 21 131 11 68 q 67 263 31 193 q 111 363 96 319 q 131 442 126 407 q 134 507 136 478 q 128 564 132 536 q 223 524 192 551 q 265 459 254 496 q 274 377 276 422 q 270 283 272 332 q 273 185 268 235 q 303 89 278 136 q 339 159 318 121 q 383 238 360 197 q 430 321 406 279 q 478 400 454 363 q 590 582 532 489 z "},"O":{"ha":433,"x_min":-4,"x_max":496,"o":"m 404 432 q 440 433 422 433 q 471 427 458 432 q 490 413 483 422 q 493 390 496 404 q 465 326 489 371 q 403 227 440 281 q 321 119 367 174 q 228 26 275 64 q 135 -26 181 -12 q 53 -10 89 -39 q 6 68 17 19 q 3 174 -4 117 q 33 291 11 231 q 81 405 54 351 q 138 498 108 458 q 193 554 168 538 q 251 585 217 571 q 322 606 286 599 q 388 613 357 614 q 438 598 419 611 q 459 558 457 585 q 436 486 461 531 q 404 432 419 454 m 111 33 q 167 65 136 38 q 230 130 197 92 q 294 211 263 168 q 349 291 325 254 q 385 353 372 328 q 397 381 399 378 q 388 383 394 383 q 369 381 381 382 q 308 307 333 329 q 279 279 283 285 q 257 285 272 281 q 227 297 242 290 q 203 308 213 303 q 200 318 194 314 q 217 338 204 321 q 246 377 229 354 q 280 426 263 400 q 313 474 297 451 q 338 512 328 496 q 350 531 349 528 q 339 532 351 538 q 324 526 333 529 q 179 336 229 426 q 110 178 129 246 q 94 70 90 110 q 111 33 97 31 z "},"N":{"ha":456,"x_min":-3,"x_max":574,"o":"m 444 576 q 538 565 510 581 q 570 519 567 549 q 558 452 574 490 q 520 374 543 414 q 472 294 497 333 q 433 225 447 256 q 378 112 400 175 q 356 -14 356 49 q 271 3 303 -22 q 221 72 239 29 q 196 166 203 115 q 188 257 189 217 q 116 140 143 206 q 82 -1 89 74 q 50 -3 67 -6 q 9 29 21 1 q 1 98 -3 57 q 26 188 6 139 q 82 283 47 238 q 113 329 93 299 q 150 394 132 360 q 180 461 168 428 q 188 515 192 494 q 259 510 225 522 q 308 463 293 499 q 301 412 313 442 q 276 340 289 382 q 256 244 263 299 q 267 118 250 189 q 338 286 282 192 q 394 399 374 347 q 426 492 415 451 q 444 576 440 538 z "},"P":{"ha":486,"x_min":-3,"x_max":560,"o":"m 501 600 q 545 551 531 589 q 559 465 560 514 q 543 362 558 415 q 499 267 528 308 q 441 206 475 235 q 370 160 407 178 q 298 136 333 142 q 238 144 263 131 q 189 183 208 161 q 161 238 169 204 q 117 122 133 183 q 103 -7 100 60 q 33 3 57 -15 q 3 63 8 22 q 12 163 -3 104 q 60 290 26 221 q 108 408 92 354 q 132 503 124 463 q 143 589 140 549 q 258 569 232 597 q 272 492 283 542 q 330 530 299 508 q 392 570 361 551 q 451 599 422 589 q 501 600 479 608 m 424 338 q 444 398 436 367 q 453 455 451 429 q 451 496 456 481 q 438 510 447 511 q 381 492 410 506 q 324 460 351 478 q 272 425 296 443 q 232 396 249 407 q 222 370 225 381 q 214 351 218 360 q 205 331 210 342 q 193 304 200 321 q 211 253 196 282 q 258 219 226 225 q 349 246 303 213 q 424 338 396 279 z "},"Q":{"ha":449,"x_min":-4,"x_max":522,"o":"m 518 428 q 495 375 514 411 q 447 293 476 339 q 381 197 418 247 q 302 101 343 146 q 219 23 261 57 q 139 -22 178 -11 q 156 -79 138 -71 q 198 -73 174 -87 q 246 -31 222 -58 q 281 17 269 -4 q 295 29 286 28 q 314 28 304 31 q 336 18 325 25 q 284 -70 317 -40 q 219 -115 251 -100 q 142 -135 183 -132 q 95 -124 111 -135 q 73 -96 79 -112 q 67 -59 67 -79 q 68 -19 67 -39 q 10 55 25 7 q 1 161 -4 103 q 28 282 7 219 q 78 399 50 344 q 137 496 106 454 q 193 554 168 538 q 249 583 217 569 q 317 604 282 597 q 383 612 351 611 q 434 601 414 613 q 460 567 454 590 q 447 507 465 544 q 475 498 461 504 q 500 483 489 492 q 517 460 511 474 q 518 428 522 446 m 324 526 q 208 381 253 451 q 138 250 163 310 q 103 144 113 190 q 97 71 94 97 q 111 98 104 85 q 124 121 118 111 q 136 142 129 132 q 169 162 151 156 q 201 171 186 168 q 238 172 219 174 q 214 142 226 157 q 192 108 203 126 q 169 69 181 90 q 206 92 183 71 q 253 143 228 113 q 306 210 279 174 q 356 281 333 247 q 397 344 379 315 q 421 386 414 372 q 432 419 429 406 q 433 440 435 432 q 428 453 432 449 q 421 457 424 457 q 408 437 414 443 q 381 410 403 431 q 332 425 353 418 q 301 438 314 432 q 296 450 289 444 q 311 466 303 454 q 328 491 319 478 q 342 515 336 504 q 350 531 347 526 q 339 532 351 538 q 324 526 333 529 z "},"R":{"ha":540,"x_min":-3,"x_max":597,"o":"m 540 558 q 585 507 574 543 q 592 424 597 471 q 566 326 586 378 q 515 228 546 275 q 447 143 485 181 q 370 87 410 106 q 290 74 331 68 q 215 121 250 81 q 210 29 208 75 q 224 -56 213 -17 q 258 -122 236 -94 q 315 -156 281 -149 q 365 -155 343 -161 q 404 -136 388 -149 q 431 -108 421 -124 q 443 -79 440 -92 q 453 -67 446 -69 q 471 -67 461 -64 q 496 -75 482 -69 q 457 -179 482 -135 q 431 -215 446 -199 q 395 -244 415 -232 q 349 -262 375 -257 q 293 -264 324 -268 q 224 -233 251 -258 q 180 -173 196 -208 q 157 -94 164 -137 q 149 -7 150 -51 q 171 225 146 97 l 171 224 l 171 225 q 116 113 138 175 q 93 -14 94 50 q 24 2 47 -19 q -1 65 1 24 q 17 163 -3 106 q 75 286 36 219 q 132 399 111 347 q 164 492 153 451 q 182 576 178 538 q 294 548 271 578 q 303 469 318 518 q 363 503 331 483 q 428 538 396 522 q 490 561 460 554 q 540 558 519 568 m 275 406 q 242 348 260 376 q 208 289 225 319 q 232 197 214 224 q 275 172 250 171 q 328 195 300 172 q 384 251 357 218 q 434 324 411 285 q 470 397 457 364 q 484 453 483 431 q 467 478 485 476 q 441 469 461 478 q 392 447 421 460 q 333 423 364 435 q 275 406 301 411 z "},"S":{"ha":486,"x_min":-1,"x_max":685,"o":"m 528 576 q 503 588 524 582 q 453 594 483 594 q 385 583 422 593 q 311 547 347 572 q 259 499 289 532 q 205 430 229 465 q 169 366 181 394 q 169 331 157 338 q 233 315 192 319 q 318 306 275 310 q 397 294 361 301 q 444 272 433 288 q 449 231 454 258 q 427 171 443 203 q 388 108 411 139 q 338 54 364 76 q 259 15 304 26 q 169 3 214 4 q 85 10 124 3 q 25 29 46 18 q 1 61 4 39 q 6 109 -1 83 q 26 160 13 135 q 53 201 40 185 q 82 217 61 211 q 126 223 103 222 q 168 222 149 224 q 194 217 188 221 q 179 198 196 217 q 145 155 163 179 q 119 106 128 131 q 129 72 111 82 q 185 64 154 57 q 244 90 215 71 q 294 135 272 108 q 326 186 317 161 q 330 229 336 211 q 294 251 324 247 q 251 256 282 253 q 186 265 221 258 q 120 283 151 271 q 75 315 89 294 q 63 385 56 342 q 94 474 69 428 q 160 564 119 521 q 250 633 201 607 q 363 670 300 660 q 484 681 425 681 q 590 671 543 681 q 653 647 636 661 q 676 579 685 621 q 642 494 668 538 q 586 415 617 451 q 542 364 556 378 q 508 344 528 349 q 466 343 488 340 q 424 353 444 346 q 389 368 403 360 q 464 461 432 418 q 490 497 478 479 q 512 531 503 515 q 526 559 521 547 q 528 576 531 571 z "},"T":{"ha":304,"x_min":-29,"x_max":597,"o":"m 574 608 q 592 584 588 604 q 588 542 597 564 q 554 503 579 521 q 483 488 529 486 q 418 490 449 489 q 360 493 388 492 q 315 362 347 426 q 251 235 282 297 q 208 117 226 178 q 197 -11 190 56 q 128 -2 153 -21 q 97 58 103 17 q 105 157 92 99 q 151 286 118 215 q 197 406 181 351 q 219 500 213 460 q 178 503 203 503 q 125 504 153 503 q 69 510 97 506 q 19 526 40 514 q -16 559 -3 538 q -28 615 -29 581 q 224 594 107 600 q 325 590 274 592 q 424 590 376 589 q 510 595 471 590 q 574 608 549 600 z "},"U":{"ha":532,"x_min":-1,"x_max":643,"o":"m 515 586 q 614 568 585 586 q 643 517 643 550 q 621 440 643 485 q 568 344 599 396 q 510 245 540 297 q 457 142 481 193 q 422 42 433 90 q 418 -46 410 -6 q 363 -44 383 -54 q 334 -14 343 -35 q 324 33 325 7 q 326 83 322 60 q 266 38 297 60 q 201 1 235 17 q 133 -22 168 -14 q 60 -22 97 -29 q 13 10 28 -17 q 0 81 -1 38 q 20 179 1 124 q 75 296 39 235 q 132 409 111 357 q 164 501 153 461 q 182 586 178 547 q 281 568 251 586 q 310 517 310 550 q 288 440 310 485 q 235 344 265 396 q 168 233 201 286 q 115 108 135 179 q 140 63 115 67 q 201 76 165 58 q 278 123 238 93 q 347 176 318 153 q 392 278 367 231 q 443 374 418 326 q 488 474 468 422 q 515 586 508 525 z "},"V":{"ha":350,"x_min":-1,"x_max":489,"o":"m 358 631 q 453 619 424 635 q 485 574 482 603 q 473 506 489 544 q 434 428 457 468 q 386 348 411 388 q 347 279 361 308 q 310 211 328 251 q 278 127 293 171 q 255 40 264 83 q 244 -37 246 -3 q 171 -37 204 -58 q 111 33 138 -17 q 65 153 85 82 q 32 301 46 224 q 10 456 18 379 q -1 596 1 533 q 58 581 31 592 q 104 553 82 571 q 136 508 126 536 q 138 443 143 486 q 128 343 132 400 q 129 219 124 286 q 164 82 135 151 q 178 144 168 108 q 201 217 188 179 q 232 293 215 256 q 268 360 249 331 q 325 469 306 419 q 351 556 344 519 q 358 631 360 597 z "},"W":{"ha":631,"x_min":0,"x_max":761,"o":"m 631 611 q 725 600 696 615 q 758 556 754 585 q 745 488 761 526 q 706 408 729 449 q 658 328 683 368 q 619 260 633 289 q 582 185 603 228 q 546 97 561 143 q 525 5 531 50 q 533 -75 519 -40 q 463 -72 497 -85 q 401 -27 433 -61 q 346 82 369 7 q 333 157 336 113 q 327 247 329 201 q 324 335 325 293 q 321 404 324 376 q 231 177 247 279 q 243 8 215 75 l 240 8 l 242 7 q 203 3 222 -4 q 165 26 183 10 q 131 68 147 43 q 102 118 115 93 q 79 165 89 143 q 65 200 69 188 q 44 297 53 235 q 27 430 35 360 q 13 567 19 500 q 0 678 7 633 q 60 663 32 674 q 106 636 83 653 q 138 590 128 619 q 142 520 144 569 q 139 412 140 471 q 142 292 138 353 q 168 188 147 232 q 193 282 176 242 q 228 363 210 322 q 265 452 247 404 q 294 569 283 500 q 384 535 354 560 q 425 472 414 510 q 435 386 436 435 q 431 282 433 338 q 431 165 429 226 q 449 39 432 103 q 459 97 453 63 q 475 170 465 132 q 497 248 485 208 q 524 321 508 288 q 572 439 551 386 q 606 531 593 492 q 631 611 621 576 z "},"X":{"ha":403,"x_min":0,"x_max":600,"o":"m 514 632 q 584 580 568 607 q 588 521 600 553 q 540 452 575 489 q 457 374 504 415 q 356 283 410 332 q 251 178 301 233 q 317 56 281 113 q 421 -58 354 -1 q 362 -70 396 -83 q 294 -26 328 -57 q 231 44 260 6 q 190 111 203 83 q 142 28 157 67 q 117 -36 126 -11 q 72 -2 76 -31 q 80 62 67 26 q 115 133 93 97 q 150 188 138 168 q 110 272 131 228 q 69 360 89 317 q 32 442 50 404 q 0 508 14 481 q 61 514 32 515 q 113 503 86 513 q 158 469 140 493 q 173 438 167 458 q 186 391 179 418 q 201 332 193 364 q 219 268 208 300 q 295 352 257 307 q 371 445 333 397 q 444 540 408 493 q 514 632 481 588 z "},"Y":{"ha":456,"x_min":0,"x_max":567,"o":"m 424 243 q 346 72 375 147 q 321 -74 317 -3 q 260 -61 278 -85 q 241 0 243 -37 q 246 78 239 38 q 258 142 253 118 q 180 244 215 185 q 115 369 144 304 q 57 501 85 435 q 0 625 29 568 q 61 631 32 632 q 113 620 86 629 q 158 588 140 611 q 182 533 171 571 q 208 447 193 496 q 242 343 222 399 q 292 235 263 288 q 335 322 313 279 q 377 409 357 365 q 413 499 397 453 q 435 594 428 544 q 529 583 500 599 q 563 538 558 567 q 551 469 567 508 q 512 390 535 431 q 464 311 489 350 q 424 243 439 272 z "},"Z":{"ha":394,"x_min":-11,"x_max":560,"o":"m 539 558 q 557 514 554 539 q 549 466 560 493 q 504 410 539 439 q 428 367 483 393 q 306 302 374 340 q 172 213 239 264 q 58 96 104 163 q 94 113 69 101 q 157 126 119 125 q 206 110 181 126 q 256 70 231 94 q 307 19 281 46 q 362 -30 333 -8 q 421 -62 390 -51 q 486 -64 451 -74 q 446 -101 468 -86 q 401 -126 426 -115 q 349 -131 376 -136 q 269 -94 304 -126 q 203 -27 233 -62 q 142 33 172 8 q 79 49 113 58 q 57 15 68 24 q 36 4 46 6 q 15 11 25 3 q -2 31 7 14 q -8 79 -11 49 q 15 151 -6 110 q 88 242 36 192 q 233 358 150 303 q 393 460 317 413 q 318 479 356 464 q 242 510 281 494 q 165 535 204 526 q 85 535 126 544 q 103 594 90 568 q 130 638 114 618 q 172 660 146 657 q 217 650 189 661 q 279 623 246 639 q 349 589 313 607 q 421 559 386 571 q 486 545 456 547 q 539 558 517 543 z "},"!":{"ha":264,"x_min":50,"x_max":428,"o":"m 331 638 q 358 629 340 638 q 392 609 376 621 q 417 582 407 597 q 424 551 428 567 q 391 499 419 539 q 326 403 363 460 q 251 276 289 346 q 189 131 213 206 q 174 119 185 118 q 152 130 163 121 q 135 153 142 139 q 132 182 128 168 q 169 301 153 250 q 206 400 186 351 q 256 504 226 449 q 331 638 285 560 m 153 11 q 126 -23 146 -8 q 86 -35 106 -37 q 58 -18 67 -33 q 58 18 50 -3 q 85 49 65 36 q 125 60 106 61 q 153 44 146 57 q 153 11 160 31 z "},"\"":{"ha":335,"x_min":113,"x_max":365,"o":"m 188 653 q 200 669 192 663 q 218 672 208 676 q 250 642 240 664 q 252 594 260 621 q 217 536 244 567 q 139 476 190 506 q 126 474 132 472 q 117 479 121 475 q 113 498 113 486 q 119 517 113 510 q 156 572 135 536 q 188 653 176 608 m 296 618 q 309 638 300 632 q 325 638 318 643 q 356 606 347 626 q 356 558 365 585 q 316 503 346 532 q 233 449 286 474 q 221 447 228 444 q 211 456 214 449 q 218 493 201 474 q 257 542 233 510 q 296 618 281 575 z "},"#":{"ha":608,"x_min":76,"x_max":529,"o":"m 382 81 q 365 56 379 67 q 342 49 351 46 l 285 72 l 229 -21 q 219 -29 226 -26 q 206 -33 213 -32 q 185 -26 190 -35 q 185 -6 179 -17 l 240 89 l 200 104 l 144 6 q 121 -10 136 -7 q 100 -3 107 -11 q 97 15 93 6 l 151 121 l 88 144 q 83 165 76 149 q 101 188 89 179 q 124 194 114 197 l 181 179 l 206 225 l 151 240 q 142 257 142 239 q 156 280 144 269 q 179 289 168 290 l 233 283 l 301 403 q 326 421 310 414 l 358 426 q 382 421 374 429 q 382 401 390 413 l 301 275 l 350 271 l 432 397 q 456 413 439 413 l 486 417 q 507 408 501 417 q 506 388 513 399 l 419 261 l 519 244 q 529 226 529 243 l 524 197 q 509 172 522 183 q 486 164 496 161 l 368 189 l 338 143 l 382 129 q 392 110 399 129 l 382 81 m 281 156 l 307 203 l 265 213 l 238 167 l 281 156 z "},"%":{"ha":615,"x_min":42,"x_max":556,"o":"m 50 -107 q 42 -92 43 -101 q 46 -78 42 -83 q 86 -20 58 -60 q 150 73 114 19 q 228 190 186 126 q 313 319 271 254 q 392 446 354 383 q 460 561 431 508 q 474 574 465 571 q 492 571 483 576 l 540 550 q 553 535 550 544 q 549 518 556 526 q 482 417 521 474 q 400 299 443 360 q 313 176 357 238 q 228 62 268 115 q 158 -32 189 8 q 110 -92 126 -72 q 72 -115 86 -117 q 50 -107 57 -114 m 432 197 q 491 184 467 199 q 526 147 515 169 q 535 97 538 124 q 517 47 533 69 q 439 -15 482 -1 q 369 -14 396 -28 q 332 4 346 -8 q 312 33 318 17 q 304 65 306 49 q 306 97 303 82 q 315 126 308 110 q 336 158 322 143 q 373 185 350 174 q 432 197 396 196 m 472 85 q 463 135 479 121 q 432 149 447 149 q 397 139 414 149 q 372 101 379 129 q 403 25 354 32 q 417 24 407 24 q 437 31 426 25 q 458 50 447 38 q 472 85 468 63 m 186 471 q 245 458 221 472 q 280 420 269 443 q 288 369 290 397 q 269 319 286 342 q 194 256 235 272 q 124 249 153 240 q 86 272 100 257 q 66 303 72 286 q 58 337 60 319 q 60 369 57 354 q 69 400 63 383 q 90 432 76 417 q 127 458 104 447 q 186 471 150 469 m 222 349 q 226 381 228 367 q 219 403 225 394 q 204 417 213 413 q 188 421 196 421 q 152 407 169 421 q 128 374 135 393 q 127 318 118 336 q 158 294 136 300 q 188 301 168 293 q 222 349 207 310 z "},"&":{"ha":615,"x_min":78,"x_max":515,"o":"m 432 22 q 515 -17 467 -1 q 492 -43 504 -32 q 466 -60 481 -53 q 433 -64 451 -67 q 410 -51 424 -62 q 378 -25 397 -40 q 310 -56 346 -42 q 237 -75 274 -69 q 166 -74 200 -81 q 106 -42 132 -68 q 84 -5 90 -26 q 78 39 78 17 q 83 82 78 61 q 97 118 89 103 q 130 164 111 147 q 167 190 149 181 q 203 206 186 200 q 231 218 219 211 q 219 261 224 238 q 214 310 214 285 q 220 359 214 335 q 242 404 226 383 q 292 448 263 433 q 352 466 321 463 q 415 463 383 469 q 469 443 446 456 q 484 431 476 438 q 497 417 492 425 q 501 400 501 410 q 493 379 501 390 q 497 358 497 371 q 493 331 496 346 q 471 274 489 297 q 428 235 453 251 q 373 205 403 218 q 314 179 343 192 q 372 75 332 125 q 397 115 388 94 q 400 153 406 135 q 418 172 407 164 q 440 184 428 179 q 469 186 453 189 q 503 160 499 183 q 497 108 507 136 q 471 65 489 89 q 432 22 453 42 m 363 414 q 310 376 336 414 q 293 319 293 351 q 300 243 293 286 q 338 253 315 243 q 381 278 360 264 q 416 307 401 292 q 432 333 431 322 q 427 381 436 364 q 406 405 418 397 q 381 413 393 413 q 363 414 368 414 m 163 29 q 181 0 167 10 q 212 -12 194 -10 q 247 -12 229 -15 q 279 -3 265 -8 q 286 3 279 -1 q 303 12 293 7 q 321 21 313 17 q 332 28 329 25 q 286 86 311 54 q 246 156 261 118 q 217 135 233 147 q 185 107 200 124 q 163 71 171 90 q 163 29 156 51 z "},"'":{"ha":221,"x_min":140,"x_max":253,"o":"m 171 539 q 177 560 171 551 q 194 569 183 569 q 237 549 221 567 q 253 501 253 531 q 235 431 253 471 q 175 346 217 392 q 151 343 165 336 q 142 361 144 350 q 143 382 140 372 q 163 447 153 406 q 171 539 174 489 z "},"(":{"ha":363,"x_min":14,"x_max":456,"o":"m 439 800 q 451 794 447 801 q 456 772 456 786 q 449 740 456 758 q 428 703 442 722 q 372 658 413 683 q 284 592 332 633 q 188 486 236 550 q 110 322 140 422 q 76 132 75 211 q 97 -2 76 53 q 151 -90 118 -57 q 211 -139 183 -122 q 231 -162 229 -150 q 224 -183 232 -174 q 203 -197 215 -192 q 185 -201 192 -201 q 122 -169 160 -199 q 57 -81 85 -140 q 22 72 29 -21 q 50 293 14 164 q 99 428 71 367 q 158 538 126 489 q 222 626 189 588 q 286 694 254 665 q 439 800 360 763 z "},")":{"ha":422,"x_min":-35,"x_max":407,"o":"m -18 -197 q -31 -192 -26 -200 q -35 -169 -35 -183 q -28 -137 -35 -156 q -7 -100 -22 -119 q 49 -56 8 -81 q 137 11 89 -31 q 232 117 185 53 q 311 281 279 181 q 344 471 346 392 q 322 605 343 550 q 269 692 301 660 q 210 742 238 725 q 190 765 190 753 q 197 785 189 776 q 217 799 206 794 q 236 804 229 804 q 299 772 261 801 q 364 683 336 743 q 399 531 392 624 q 371 310 407 439 q 322 175 350 236 q 263 65 294 114 q 199 -24 232 15 q 135 -92 165 -62 q -18 -197 61 -160 z "},"*":{"ha":374,"x_min":76,"x_max":286,"o":"m 282 450 q 283 433 286 442 q 274 424 281 425 l 224 418 l 257 392 q 260 376 261 386 q 248 364 256 368 q 235 364 240 360 l 206 383 l 208 356 q 199 343 208 347 q 183 342 190 340 q 172 351 175 344 l 165 388 l 143 354 q 129 350 139 347 l 110 356 q 97 367 101 358 q 97 381 93 375 l 119 408 l 93 406 q 81 414 86 404 q 80 430 78 422 q 89 439 82 438 l 113 444 l 85 463 q 81 478 76 468 l 86 496 q 97 510 89 506 q 113 510 106 514 l 144 483 l 136 522 q 143 536 135 529 l 161 544 q 180 546 171 549 q 189 536 189 543 l 193 499 l 213 521 q 226 525 217 528 q 239 514 235 521 q 239 500 243 507 l 217 467 l 260 475 q 274 468 267 476 l 282 450 l 282 450 z "},",":{"ha":204,"x_min":54,"x_max":165,"o":"m 93 -14 q 67 3 74 -12 q 68 38 60 18 q 94 69 75 57 q 132 81 113 82 q 158 65 151 79 q 158 31 165 50 q 138 -6 151 11 q 111 -34 125 -22 q 85 -53 97 -46 q 64 -62 72 -61 l 54 -43 q 71 -35 64 -40 q 84 -26 78 -31 q 93 -14 90 -21 z "},"-":{"ha":350,"x_min":72,"x_max":311,"o":"m 307 174 q 307 151 311 163 q 294 139 303 139 l 89 140 q 75 153 81 140 q 76 176 72 165 q 88 188 81 186 l 285 211 q 299 199 294 211 l 307 174 z "},".":{"ha":160,"x_min":26,"x_max":133,"o":"m 126 17 q 100 -17 119 -3 q 61 -28 81 -31 q 34 -11 42 -26 q 35 25 26 4 q 61 56 42 43 q 100 67 81 68 q 127 50 121 64 q 126 17 133 36 z "},"/":{"ha":467,"x_min":54,"x_max":542,"o":"m 64 -62 q 56 -47 57 -56 q 60 -31 54 -37 q 126 68 79 -1 q 231 227 174 138 q 350 415 289 317 q 458 599 411 513 q 472 612 463 608 q 490 608 482 615 l 525 592 q 538 575 535 585 q 536 557 542 565 q 468 450 507 508 q 386 331 429 392 q 300 209 343 269 q 218 96 257 149 q 148 3 179 43 q 100 -60 117 -37 q 83 -70 93 -69 q 64 -62 72 -71 z "},"<":{"ha":335,"x_min":22,"x_max":331,"o":"m 153 213 q 140 197 143 206 q 143 182 136 189 q 180 136 157 165 q 221 76 203 107 q 246 17 239 44 q 233 -21 253 -10 q 206 -31 222 -28 q 175 -35 190 -33 q 157 -17 157 -37 q 144 28 158 1 q 110 85 131 56 q 67 140 89 114 q 29 179 44 165 q 25 197 22 186 q 39 213 28 207 q 107 253 69 226 q 178 312 144 281 q 235 372 211 343 q 265 418 260 401 q 278 433 268 429 q 296 433 288 438 q 321 411 311 422 q 331 393 331 400 q 308 344 331 372 q 254 290 285 317 q 194 241 224 263 q 153 213 165 219 z "},"=":{"ha":432,"x_min":49,"x_max":358,"o":"m 60 201 q 63 222 57 213 q 79 232 68 232 l 331 253 q 346 242 342 253 l 354 221 q 352 200 358 210 q 335 190 346 190 l 75 192 q 60 201 64 192 m 344 132 q 340 113 347 122 q 324 103 333 103 l 65 121 q 50 132 54 121 q 56 151 49 143 q 74 160 63 160 l 325 165 q 340 156 338 167 l 344 132 z "},">":{"ha":461,"x_min":124,"x_max":432,"o":"m 301 190 q 315 206 311 197 q 311 221 318 214 q 274 267 297 238 q 233 327 251 296 q 208 385 215 358 q 221 424 201 413 q 248 433 232 431 q 279 438 264 436 q 297 419 297 440 q 309 374 294 401 q 344 318 324 347 q 388 263 365 289 q 425 224 410 238 q 429 206 432 217 q 415 190 426 196 q 347 149 383 176 q 276 91 310 122 q 219 31 243 60 q 189 -15 194 1 q 176 -31 186 -26 q 158 -31 167 -35 q 133 -8 143 -19 q 124 10 124 3 q 147 58 124 31 q 200 113 169 86 q 260 162 231 140 q 301 190 289 183 z "},"[":{"ha":561,"x_min":-62,"x_max":628,"o":"m 628 863 q 615 804 626 825 q 592 774 604 783 q 557 761 576 763 q 522 758 543 758 q 477 757 501 757 q 426 758 453 757 q 375 760 400 758 q 249 767 315 763 q 133 300 183 507 q 92 126 113 211 q 56 -28 71 40 q 32 -140 40 -96 q 26 -190 24 -185 q 44 -199 29 -196 q 84 -201 60 -201 q 138 -200 108 -201 q 197 -196 167 -199 q 357 -181 268 -190 q 340 -263 365 -232 q 275 -301 315 -294 q 174 -305 232 -308 q 63 -290 115 -301 q -26 -261 10 -279 q -60 -219 -62 -243 q -53 -153 -61 -203 q -31 -34 -46 -104 q 3 120 -17 36 q 44 292 22 204 q 87 463 65 379 q 126 617 108 547 q 157 735 144 686 q 175 799 169 783 q 203 825 181 814 q 258 843 225 836 q 330 854 290 850 q 411 861 369 858 q 628 863 508 867 z "},"\\":{"ha":542,"x_min":10,"x_max":576,"o":"m 557 -112 q 538 -116 547 -119 q 521 -103 528 -112 q 476 -27 506 -76 q 406 88 446 22 q 319 228 367 153 q 220 383 271 304 q 117 538 169 461 q 17 679 65 614 q 10 703 10 690 q 19 726 11 717 l 53 757 q 75 766 63 767 q 94 754 88 765 q 179 619 133 694 q 272 463 225 544 q 366 301 319 382 q 452 148 413 219 q 522 20 492 76 q 569 -67 553 -36 q 573 -93 576 -79 q 557 -112 569 -107 z "},"]":{"ha":565,"x_min":-8,"x_max":619,"o":"m -8 -290 q 3 -233 -7 -253 q 28 -203 14 -212 q 63 -189 43 -192 q 132 -186 90 -185 q 214 -192 174 -187 q 310 -204 260 -197 q 425 263 375 54 q 466 435 446 350 q 501 590 486 521 q 525 703 517 658 q 532 753 533 747 q 514 760 529 758 q 474 763 499 763 q 421 761 450 763 q 361 758 392 760 q 201 743 290 753 q 218 826 193 794 q 283 864 243 857 q 385 867 326 871 q 496 853 443 864 q 584 824 549 842 q 618 782 619 806 q 612 716 619 765 q 590 597 604 667 q 556 442 575 526 q 515 271 536 358 q 472 99 493 183 q 432 -54 450 15 q 401 -172 414 -124 q 383 -236 389 -221 q 358 -262 378 -251 q 310 -280 339 -274 q 247 -290 282 -286 q 176 -294 211 -293 q -8 -290 93 -297 z "},"^":{"ha":375,"x_min":43,"x_max":331,"o":"m 193 864 q 184 870 190 869 q 175 865 178 871 q 148 837 165 854 q 113 803 131 819 q 78 780 94 788 q 56 783 63 772 q 46 818 46 797 q 56 832 43 829 q 83 844 67 832 q 117 874 100 857 q 148 908 133 890 q 171 938 163 926 q 181 943 175 943 q 190 936 188 943 q 216 898 199 918 q 253 861 233 878 q 290 833 272 844 q 318 819 308 821 q 328 814 325 819 q 328 803 331 808 q 315 783 322 790 q 304 775 308 775 q 275 783 292 772 q 242 809 258 793 q 211 841 225 825 q 193 864 197 857 z "},"_":{"ha":521,"x_min":76,"x_max":440,"o":"m 435 -36 q 434 -64 440 -50 q 415 -78 428 -78 l 100 -76 q 81 -61 90 -76 q 83 -34 76 -46 q 100 -21 89 -22 l 401 7 q 422 -7 415 10 l 435 -36 z "},"`":{"ha":328,"x_min":76,"x_max":251,"o":"m 96 763 q 81 774 86 765 q 79 789 76 782 q 110 817 90 810 q 154 815 131 825 q 202 778 178 806 q 247 704 226 751 q 242 685 251 690 q 207 690 225 672 q 164 726 192 706 q 96 763 136 747 z "},"{":{"ha":350,"x_min":8,"x_max":479,"o":"m 249 -133 q 272 -153 269 -137 q 266 -186 274 -169 q 247 -216 258 -203 q 228 -229 235 -229 q 176 -210 206 -228 q 121 -154 146 -193 q 81 -51 96 -115 q 72 113 65 14 q 62 178 72 149 q 40 226 51 207 q 8 267 25 250 q 55 296 32 274 q 97 344 78 318 q 131 393 117 369 q 149 428 144 417 q 256 622 203 550 q 351 732 308 693 q 446 793 400 776 q 462 791 453 797 q 475 770 471 785 q 476 737 479 756 q 454 697 472 718 q 407 653 428 668 q 362 614 386 639 q 303 541 338 589 q 215 399 269 493 q 197 369 208 386 q 172 333 186 351 q 144 296 158 314 q 117 265 129 278 q 135 205 132 242 q 140 135 139 168 q 138 68 140 108 q 142 -13 135 28 q 172 -87 149 -54 q 249 -133 196 -121 z "},"|":{"ha":258,"x_min":79,"x_max":169,"o":"m 114 -106 q 93 -78 93 -101 q 95 3 94 -50 q 96 126 96 56 q 96 278 96 196 q 94 447 96 361 q 90 619 93 533 q 82 779 86 704 q 86 799 79 790 q 104 811 93 808 l 139 814 q 158 807 150 815 q 168 786 167 799 q 169 640 169 721 q 165 474 168 560 q 159 303 163 389 q 153 144 156 218 q 147 10 150 69 q 142 -81 143 -49 q 133 -101 142 -93 q 114 -106 125 -108 z "},"}":{"ha":479,"x_min":15,"x_max":479,"o":"m 222 710 q 199 730 201 714 q 205 763 197 746 q 224 792 213 779 q 243 806 236 806 q 297 785 265 803 q 358 726 329 767 q 405 619 388 686 q 415 456 422 553 q 425 390 415 419 q 447 342 435 361 q 479 301 461 318 q 433 272 456 294 q 390 224 410 250 q 357 175 371 199 q 339 140 343 151 q 231 -51 285 18 q 136 -154 178 -119 q 43 -206 88 -194 q 28 -200 36 -210 q 17 -174 19 -190 q 23 -138 15 -157 q 56 -107 31 -119 q 92 -88 78 -96 q 119 -71 107 -81 q 144 -47 132 -61 q 172 -5 156 -32 q 213 64 189 22 q 272 169 236 106 q 290 199 279 182 q 315 235 301 217 q 344 272 329 254 q 371 303 358 290 q 352 363 356 326 q 347 433 349 400 q 347 501 347 460 q 337 585 347 543 q 301 663 326 628 q 222 710 275 697 z "},"~":{"ha":635,"x_min":61,"x_max":567,"o":"m 564 318 q 532 267 557 289 q 458 243 507 246 q 392 251 429 243 q 315 268 354 258 q 238 285 276 278 q 169 292 200 293 q 126 289 147 292 q 90 282 106 286 q 68 292 75 279 q 69 318 61 306 q 107 353 83 338 q 167 371 131 369 q 239 364 201 372 q 313 345 276 356 q 383 326 349 335 q 447 318 418 318 q 490 327 464 319 q 532 343 517 335 q 556 342 544 351 q 564 318 567 333 z "},"?":{"ha":444,"x_min":40,"x_max":556,"o":"m 261 446 q 259 435 263 444 q 247 415 256 426 q 226 394 239 404 q 194 383 213 385 q 158 396 174 381 q 136 437 142 411 q 138 495 131 463 q 168 561 144 528 q 266 632 206 613 q 386 640 326 651 q 493 586 446 628 q 550 474 540 544 q 531 388 556 424 q 464 326 506 353 q 371 278 422 299 q 272 234 319 257 q 185 184 224 211 q 133 119 147 157 q 123 130 133 119 q 107 158 113 140 q 108 199 101 176 q 150 246 115 221 q 231 292 185 271 q 320 333 276 313 q 398 373 364 353 q 442 417 432 393 q 452 469 454 444 q 438 513 450 494 q 405 543 425 532 q 361 556 385 554 q 289 543 313 560 q 257 506 265 526 q 251 466 249 485 q 261 446 254 447 m 158 10 q 167 47 171 29 q 139 74 163 65 q 94 73 117 81 q 56 42 71 65 q 49 -1 40 19 q 82 -28 58 -22 q 124 -24 104 -35 q 158 10 144 -12 z "},"@":{"ha":906,"x_min":46,"x_max":842,"o":"m 479 642 q 646 631 575 656 q 761 556 717 606 q 824 440 806 507 q 835 301 842 372 q 807 208 831 257 q 746 119 783 160 q 657 51 708 78 q 544 24 606 24 q 490 31 514 24 q 451 50 467 39 q 427 73 435 61 q 422 92 419 85 q 364 67 396 76 q 297 57 332 57 q 232 84 256 57 q 203 151 208 111 q 210 239 197 192 q 251 326 222 286 q 319 390 282 368 q 394 417 357 411 q 465 418 432 424 q 524 403 499 413 q 551 427 533 421 q 590 432 569 433 q 633 425 611 431 q 669 414 654 419 q 564 267 607 333 q 530 211 546 239 q 505 160 514 183 q 495 122 496 138 q 507 100 494 106 q 608 93 556 79 q 703 147 661 107 q 767 251 744 188 q 778 397 789 315 q 751 472 772 438 q 694 530 729 506 q 613 567 660 554 q 511 579 567 581 q 415 559 465 578 q 317 506 364 540 q 228 426 269 472 q 161 324 188 379 q 126 206 135 269 q 133 78 117 143 q 194 -35 151 4 q 290 -90 236 -75 q 403 -98 344 -104 q 516 -74 463 -92 q 610 -31 569 -56 q 669 15 651 -7 q 683 19 672 17 q 707 23 694 21 q 731 24 719 25 q 744 19 742 24 q 726 -12 747 15 q 660 -70 704 -39 q 547 -128 615 -101 q 388 -158 479 -154 q 265 -144 329 -161 q 151 -83 201 -126 q 74 29 101 -40 q 58 201 46 99 q 113 381 71 303 q 215 515 156 460 q 344 601 275 569 q 479 642 414 632 m 415 150 q 424 200 415 174 q 444 253 432 226 q 469 306 456 281 q 494 353 483 331 q 393 343 435 365 q 324 281 351 321 q 310 254 317 269 q 301 221 304 239 q 300 183 299 203 q 311 146 301 164 q 349 131 319 131 q 415 150 379 131 z "},"$":{"ha":486,"x_min":17,"x_max":560,"o":"m 239 -168 q 218 -140 218 -164 q 219 -104 218 -125 q 219 -56 219 -83 q 126 -70 168 -74 q 64 -47 83 -67 q 37 -5 44 -28 q 29 41 29 18 q 35 86 29 64 q 50 128 42 108 q 76 150 56 140 q 118 166 96 160 q 160 174 140 172 q 186 175 179 176 q 181 163 186 175 q 167 132 175 150 q 151 92 160 114 q 140 50 143 69 q 138 16 136 31 q 154 -3 140 1 q 188 -5 171 -8 q 221 7 204 -1 l 221 240 q 172 232 197 236 q 124 226 147 228 q 80 228 100 225 q 47 243 60 232 q 20 308 24 264 q 31 403 17 351 q 74 506 44 454 q 146 593 104 557 q 211 635 174 617 l 207 717 q 211 737 204 728 q 229 749 218 746 l 264 751 q 283 744 275 753 q 293 724 292 736 l 293 661 q 360 670 326 668 q 421 670 393 672 q 471 663 449 668 q 506 650 493 657 q 551 594 543 626 q 551 529 560 563 q 526 464 543 496 q 499 408 510 432 q 470 383 489 392 q 430 371 451 374 q 387 371 408 368 q 349 378 365 374 q 410 458 386 419 q 438 527 429 492 q 422 589 446 563 q 374 601 411 601 q 293 576 338 600 q 292 448 293 514 q 288 315 290 382 q 358 323 324 322 q 413 300 392 324 q 435 246 433 278 q 428 179 438 214 q 401 110 419 144 q 363 49 383 75 q 272 -31 321 -3 q 269 -95 271 -67 q 267 -143 268 -124 q 258 -163 267 -156 q 239 -168 250 -171 m 150 313 q 182 303 164 304 q 219 304 200 301 q 215 514 219 410 q 181 462 197 493 q 153 400 164 431 q 140 345 142 369 q 150 313 138 321 m 285 251 l 276 61 q 312 121 297 89 q 330 181 326 153 q 324 229 333 210 q 290 251 315 249 l 285 251 z "},":":{"ha":258,"x_min":50,"x_max":206,"o":"m 197 263 q 171 229 190 243 q 132 218 151 215 q 104 235 113 219 q 107 269 96 250 q 133 301 114 289 q 171 313 151 314 q 199 296 192 310 q 197 263 206 282 m 151 119 q 125 86 144 100 q 86 75 106 72 q 58 92 67 76 q 61 126 50 107 q 87 158 68 146 q 125 169 106 171 q 153 153 146 167 q 151 119 160 139 z "},";":{"ha":206,"x_min":18,"x_max":176,"o":"m 168 263 q 142 229 161 243 q 103 218 122 215 q 75 235 83 219 q 78 269 67 250 q 103 301 85 289 q 142 313 122 314 q 169 296 163 310 q 168 263 176 282 m 57 76 q 31 93 38 78 q 32 128 24 108 q 58 160 39 147 q 96 171 76 172 q 122 155 115 169 q 122 121 129 140 q 102 85 115 101 q 75 56 89 68 q 49 37 61 44 q 28 28 36 29 l 18 47 q 35 56 28 50 q 48 65 42 60 q 57 76 54 69 z "},"":{"ha":318,"x_min":-85,"x_max":403,"o":"m -75 215 q -83 231 -82 222 q -79 247 -85 240 q -12 346 -60 276 q 92 505 35 415 q 211 692 150 594 q 319 876 272 790 q 333 890 324 886 q 351 886 343 893 l 386 869 q 399 853 396 863 q 397 835 403 843 q 329 728 368 786 q 247 608 290 669 q 161 487 204 547 q 79 374 118 426 q 9 281 40 321 q -39 218 -22 240 q -56 208 -46 208 q -75 215 -67 207 z "},"":{"ha":193,"x_min":-1,"x_max":268,"o":"m 213 158 q 226 171 217 169 q 244 171 235 172 q 268 164 256 168 q 223 71 253 104 q 163 21 193 38 q 88 -6 126 1 q 45 1 63 -8 q 17 27 28 11 q 3 65 7 43 q 0 108 -1 86 q 16 168 1 128 q 49 250 31 208 q 96 354 69 299 q 133 374 110 369 q 179 376 156 378 q 235 367 206 374 q 169 256 197 308 q 146 210 157 233 q 126 165 135 186 q 113 124 118 143 q 110 93 108 106 q 126 69 113 68 q 157 84 140 69 q 190 120 174 99 q 213 158 206 142 z "},"":{"ha":589,"x_min":61,"x_max":524,"o":"m 64 996 q 75 1011 61 1010 q 106 1008 89 1013 q 151 993 125 1003 q 190 915 171 950 q 226 860 207 886 q 263 831 244 835 q 304 849 279 826 q 353 901 329 872 q 398 957 378 931 q 426 988 418 983 q 451 992 435 990 q 483 992 467 993 q 524 988 501 990 q 440 881 483 928 q 402 840 422 860 q 361 804 382 821 q 319 777 340 788 q 278 765 297 767 q 226 776 251 763 q 176 813 200 790 q 133 863 153 835 q 98 918 113 892 q 74 965 83 944 q 64 996 65 986 z "},"":{"ha":317,"x_min":42,"x_max":275,"o":"m 99 15 q 106 15 99 15 q 122 15 114 15 q 138 15 131 15 q 143 13 144 14 q 104 -40 118 -19 q 99 -92 90 -61 q 125 -118 106 -111 q 166 -126 144 -125 q 208 -124 188 -126 q 240 -121 229 -121 q 258 -130 251 -122 q 269 -147 265 -137 q 274 -165 272 -157 q 274 -174 275 -172 q 110 -184 164 -206 q 46 -100 57 -162 q 49 -52 42 -74 q 67 -16 57 -31 q 88 6 78 -1 q 99 15 99 14 z "},"":{"ha":439,"x_min":58,"x_max":375,"o":"m 181 926 q 197 946 186 938 q 219 949 208 954 q 252 913 244 938 q 245 857 260 889 q 192 788 231 825 q 88 718 154 751 q 72 715 79 713 q 63 721 65 717 q 60 744 58 731 q 72 765 63 757 q 126 831 94 788 q 181 926 157 874 m 300 885 q 320 908 308 901 q 339 908 332 915 q 369 871 364 896 q 358 815 375 846 q 301 749 342 783 q 193 685 261 715 q 178 683 186 681 q 168 693 171 686 q 169 715 165 701 q 185 738 174 728 q 240 796 206 757 q 300 885 274 835 z "},"":{"ha":160,"x_min":26,"x_max":133,"o":"m 126 794 q 100 761 119 775 q 61 750 81 747 q 34 767 42 751 q 35 803 26 782 q 61 833 42 821 q 100 844 81 846 q 127 828 121 842 q 126 794 133 814 z "},"":{"ha":422,"x_min":31,"x_max":385,"o":"m 31 907 q 40 908 31 908 q 61 908 50 908 q 92 907 75 908 q 90 844 86 872 q 104 799 93 821 q 142 772 115 778 q 186 767 163 768 q 232 769 210 765 q 273 785 254 774 q 301 815 292 796 q 315 851 311 835 q 319 879 318 868 q 318 904 321 893 l 385 907 q 367 811 385 853 q 314 745 351 775 q 206 715 276 715 q 98 739 135 715 q 47 794 61 763 q 31 858 32 825 q 31 907 31 890 z "},"":{"ha":540,"x_min":140,"x_max":383,"o":"m 140 764 q 175 851 140 815 q 261 886 210 886 q 348 851 313 886 q 383 764 383 815 q 348 678 383 713 q 261 643 313 643 q 175 678 210 643 q 140 764 140 713 m 189 768 q 210 716 189 736 q 261 696 231 696 q 313 716 292 696 q 335 768 335 736 q 313 819 335 799 q 261 840 292 840 q 210 819 231 840 q 189 768 189 799 z "},"":{"ha":478,"x_min":-50,"x_max":553,"o":"m 497 158 q 510 171 501 169 q 529 171 519 172 q 553 164 540 168 q 508 71 538 104 q 447 21 478 38 q 372 -6 411 1 q 330 1 347 -8 q 302 27 313 11 q 288 65 292 43 q 285 108 283 86 q 288 128 285 114 q 243 133 267 131 q 197 138 219 136 q 154 138 174 139 q 124 132 135 136 q 160 96 142 117 q 194 48 179 75 q 216 -12 208 21 q 219 -86 224 -46 q 185 -205 213 -167 q 124 -255 157 -243 q 63 -260 92 -267 q 22 -242 33 -253 q -35 -167 -19 -214 q -49 -69 -50 -121 q -35 33 -47 -17 q -8 115 -22 82 q 40 249 18 179 q 83 378 61 318 q 130 484 106 439 q 186 547 154 529 q 251 568 219 567 q 304 563 282 569 q 335 544 326 556 q 332 525 343 532 q 257 460 290 499 q 198 376 224 422 q 151 280 172 331 q 113 179 131 229 q 146 187 122 183 q 198 192 169 190 q 256 194 226 194 q 310 192 286 194 q 333 248 321 219 q 356 300 344 276 q 381 354 368 328 q 417 374 394 369 q 464 376 440 378 q 519 367 490 374 q 454 256 482 308 q 431 210 442 233 q 411 165 419 186 q 398 124 403 143 q 394 93 393 106 q 411 69 397 68 q 442 84 425 69 q 474 120 458 99 q 497 158 490 142 m 475 406 q 430 424 449 406 q 411 471 411 443 q 430 516 411 497 q 475 535 449 535 q 522 516 503 535 q 540 471 540 497 q 522 424 540 443 q 475 406 503 406 m 131 -67 q 141 -15 142 -40 q 132 30 140 10 q 110 65 124 50 q 85 89 97 81 q 63 0 72 43 q 46 -82 53 -43 q 67 -97 54 -93 q 92 -97 79 -100 q 115 -87 104 -94 q 131 -67 126 -79 z "},"":{"ha":497,"x_min":-50,"x_max":603,"o":"m 311 569 q 375 588 335 581 q 458 594 415 594 q 537 582 500 593 q 592 546 574 571 q 593 544 593 546 q 601 506 603 528 q 588 459 599 485 q 561 404 578 433 q 524 343 544 375 q 462 247 490 293 q 415 166 433 201 q 392 108 397 131 q 401 81 386 85 q 434 84 417 76 q 467 103 451 92 q 503 135 485 117 q 522 120 518 129 q 524 103 526 111 q 514 82 521 93 q 485 58 506 74 q 438 28 464 43 q 385 5 413 14 q 333 0 357 -4 q 289 33 303 7 q 278 98 275 58 q 301 189 281 138 q 361 300 322 240 q 406 363 379 328 q 452 431 432 399 q 478 485 472 463 q 458 508 483 507 q 399 494 432 510 q 331 450 367 478 q 261 387 296 422 q 197 314 226 351 q 144 241 167 276 q 113 179 122 206 q 173 194 138 189 q 233 181 208 199 q 242 151 249 169 q 231 125 236 132 q 217 124 228 121 q 192 132 207 128 q 160 138 178 136 q 124 132 142 140 q 160 96 142 117 q 194 48 179 75 q 216 -12 208 21 q 219 -86 224 -46 q 185 -205 213 -167 q 124 -255 157 -243 q 63 -260 92 -267 q 22 -242 33 -253 q -35 -167 -19 -214 q -49 -69 -50 -121 q -35 33 -47 -17 q -8 115 -22 82 q 51 249 18 179 q 126 383 85 319 q 213 495 167 446 q 311 569 260 544 m 131 -67 q 141 -15 142 -40 q 132 30 140 10 q 110 65 124 50 q 85 89 97 81 q 63 0 72 43 q 46 -82 53 -43 q 67 -97 54 -93 q 92 -97 79 -100 q 115 -87 104 -94 q 131 -67 126 -79 z "},"":{"ha":424,"x_min":-90,"x_max":604,"o":"m 593 -37 q 603 -40 604 -31 q 589 -66 601 -49 q 556 -103 576 -83 q 509 -138 535 -124 q 454 -158 483 -153 q 397 -147 425 -162 q 349 -110 371 -133 q 307 -62 328 -87 q 265 -12 286 -36 q 219 27 244 13 q 164 43 194 42 q 94 25 133 44 q 93 10 93 18 q 93 -4 93 3 q 60 -6 76 -8 q 5 44 17 1 q 13 156 -7 88 l -47 139 q -79 144 -64 133 q -87 169 -90 156 q -72 188 -85 182 l 40 229 q 56 261 47 244 q 75 296 64 278 q 132 415 111 357 q 164 517 153 472 q 182 617 178 569 q 281 594 251 617 q 310 533 310 571 q 288 445 310 494 q 235 344 265 396 l 200 288 l 300 325 q 332 319 318 329 l 358 297 q 369 274 374 288 q 349 254 364 260 l 149 196 q 100 76 117 136 q 135 92 115 85 q 175 103 154 99 q 217 106 196 107 q 257 99 238 106 q 318 63 292 86 q 366 15 344 39 q 409 -32 388 -10 q 456 -65 431 -54 q 515 -71 482 -75 q 593 -37 547 -67 z "},"":{"ha":219,"x_min":-35,"x_max":324,"o":"m 196 588 q 294 565 265 585 q 324 513 324 546 q 301 437 324 481 q 246 343 279 393 l 190 257 l 236 274 q 257 269 247 278 l 274 253 q 279 235 282 246 q 265 221 276 224 l 150 189 q 116 115 125 144 q 124 81 107 85 q 156 84 139 76 q 189 103 174 92 q 225 135 207 117 q 244 120 240 129 q 246 103 249 111 q 236 82 243 93 q 207 58 228 74 q 160 28 186 43 q 107 5 135 14 q 56 0 79 -4 q 3 49 15 8 q 11 151 -8 89 l -7 147 q -28 150 -19 143 q -31 169 -35 160 q -19 182 -28 179 l 28 199 q 83 300 49 247 q 144 411 121 360 q 178 503 167 463 q 196 588 192 549 z "},"":{"ha":394,"x_min":-11,"x_max":560,"o":"m 539 558 q 557 514 554 539 q 549 466 560 493 q 504 410 539 439 q 428 367 483 393 q 306 302 374 340 q 172 213 239 264 q 58 96 104 163 q 94 113 69 101 q 157 126 119 125 q 206 110 181 126 q 256 70 231 94 q 307 19 281 46 q 362 -30 333 -8 q 421 -62 390 -51 q 486 -64 451 -74 q 446 -101 468 -86 q 401 -126 426 -115 q 349 -131 376 -136 q 269 -94 304 -126 q 203 -27 233 -62 q 142 33 172 8 q 79 49 113 58 q 57 15 68 24 q 36 4 46 6 q 15 11 25 3 q -2 31 7 14 q -8 79 -11 49 q 15 151 -6 110 q 88 242 36 192 q 233 358 150 303 q 393 460 317 413 q 318 479 356 464 q 242 510 281 494 q 165 535 204 526 q 85 535 126 544 q 103 594 90 568 q 130 638 114 618 q 172 660 146 657 q 217 650 189 661 q 279 623 246 639 q 349 589 313 607 q 421 559 386 571 q 486 545 456 547 q 539 558 517 543 m 259 805 q 266 815 257 814 q 286 813 275 816 q 315 803 298 809 q 340 754 328 776 q 363 719 351 735 q 386 699 375 702 q 413 711 397 697 q 445 745 429 726 q 473 780 460 763 q 491 800 486 797 q 507 802 497 801 q 528 802 517 803 q 554 800 539 801 q 500 731 528 762 q 476 706 489 718 q 449 683 463 693 q 422 665 436 672 q 396 658 408 659 q 363 665 379 656 q 331 688 346 674 q 303 720 316 702 q 281 755 290 738 q 266 785 271 772 q 259 805 260 799 z "},"":{"ha":518,"x_min":39,"x_max":539,"o":"m 464 368 q 493 357 476 368 q 522 331 510 346 q 536 299 533 315 q 522 271 539 282 q 491 250 511 263 q 446 222 471 238 q 393 190 421 207 q 338 156 365 172 q 197 71 272 117 q 254 79 225 75 q 310 83 279 82 q 374 82 342 85 q 419 60 404 79 q 439 22 433 42 q 443 -31 444 -3 q 360 -7 410 -14 q 261 1 311 0 q 169 -1 211 1 q 107 -7 126 -4 q 53 10 68 -12 q 61 60 39 32 q 100 88 68 68 q 175 131 132 107 q 264 181 218 156 q 344 228 310 207 q 396 261 379 249 q 397 272 413 274 q 344 272 374 269 q 288 276 314 274 q 225 285 257 281 q 197 212 219 231 q 149 192 175 193 q 81 207 118 190 q 119 247 113 219 q 124 303 126 275 q 106 374 119 336 q 226 349 167 353 q 333 350 285 346 q 417 361 382 354 q 464 368 451 368 m 176 558 q 182 567 174 566 q 200 566 191 568 q 227 557 211 562 q 249 511 238 532 q 270 479 259 494 q 291 462 281 464 q 316 473 301 459 q 344 503 330 486 q 370 536 358 520 q 387 553 382 551 q 401 556 391 555 q 420 556 410 557 q 443 553 430 555 q 395 491 420 519 q 372 468 384 479 q 349 447 361 456 q 324 431 337 437 q 300 424 312 425 q 270 430 285 422 q 241 451 255 438 q 216 481 228 464 q 196 513 204 498 q 182 540 187 528 q 176 558 177 553 z "},"":{"ha":543,"x_min":-21,"x_max":626,"o":"m 67 336 l 24 336 q -3 350 7 336 q 3 378 -6 364 q 31 392 13 392 l 94 396 q 192 534 133 468 q 319 645 251 600 q 456 707 386 690 q 583 699 525 724 q 606 683 597 692 q 618 664 614 674 q 625 642 624 653 q 624 624 626 633 q 614 604 621 614 q 596 588 607 594 q 569 582 585 582 q 547 590 554 582 q 534 609 539 599 q 524 628 529 619 q 511 636 519 636 q 420 610 465 631 q 335 558 375 589 q 258 486 294 526 q 194 401 222 446 l 451 419 q 476 404 469 419 l 490 376 q 487 348 497 361 q 458 335 476 335 l 157 336 q 148 315 151 325 q 140 294 144 306 l 442 301 q 459 299 453 303 q 468 288 465 294 l 475 256 q 468 230 481 243 q 439 217 456 217 l 121 233 q 112 165 113 197 q 122 106 111 132 q 160 51 135 74 q 217 15 185 28 q 284 -2 249 1 q 353 1 319 -6 q 413 26 382 7 q 469 69 443 46 q 514 111 496 92 q 539 136 532 131 q 553 144 544 142 q 571 147 563 147 q 584 144 579 147 q 588 138 589 142 q 580 120 585 133 q 559 86 575 107 q 514 38 543 65 q 435 -24 485 10 q 350 -62 399 -49 q 253 -75 301 -76 q 158 -56 204 -74 q 81 0 113 -37 q 37 96 50 38 q 40 238 24 154 l 7 240 q -18 256 -11 240 q -9 282 -21 271 q 21 293 3 293 l 53 293 l 58 310 l 67 336 z "},"":{"ha":204,"x_min":54,"x_max":165,"o":"m 93 -14 q 67 3 74 -12 q 68 38 60 18 q 94 69 75 57 q 132 81 113 82 q 158 65 151 79 q 158 31 165 50 q 138 -6 151 11 q 111 -34 125 -22 q 85 -53 97 -46 q 64 -62 72 -61 l 54 -43 q 71 -35 64 -40 q 84 -26 78 -31 q 93 -14 90 -21 z "},"":{"ha":285,"x_min":-50,"x_max":343,"o":"m 186 547 q 251 568 219 567 q 304 563 282 569 q 335 544 326 556 q 332 525 343 532 q 257 460 290 499 q 198 376 224 422 q 151 280 172 331 q 113 179 131 229 q 173 194 138 189 q 233 181 208 199 q 242 151 249 169 q 231 125 236 132 q 217 124 228 121 q 192 132 207 128 q 160 138 178 136 q 124 132 142 140 q 160 96 142 117 q 194 48 179 75 q 216 -12 208 21 q 219 -86 224 -46 q 185 -205 213 -167 q 124 -255 157 -243 q 63 -260 92 -267 q 22 -242 33 -253 q -35 -167 -19 -214 q -49 -69 -50 -121 q -35 33 -47 -17 q -8 115 -22 82 q 40 249 18 179 q 83 378 61 318 q 130 484 106 439 q 186 547 154 529 m 131 -67 q 141 -15 142 -40 q 132 30 140 10 q 110 65 124 50 q 85 89 97 81 q 63 0 72 43 q 46 -82 53 -43 q 67 -97 54 -93 q 92 -97 79 -100 q 115 -87 104 -94 q 131 -67 126 -79 z "},"":{"ha":372,"x_min":43,"x_max":296,"o":"m 118 106 q 131 122 122 115 q 149 125 139 129 q 181 95 171 117 q 183 47 190 74 q 148 -11 175 19 q 69 -71 121 -42 q 47 -68 58 -79 q 43 -49 43 -61 q 50 -31 43 -37 q 86 25 65 -11 q 118 106 107 61 m 226 71 q 240 90 231 85 q 256 90 249 96 q 287 58 278 79 q 286 11 296 38 q 247 -44 276 -15 q 164 -99 217 -74 q 151 -101 158 -103 q 142 -92 144 -99 q 149 -54 132 -74 q 188 -5 164 -37 q 226 71 211 28 z "},"":{"ha":479,"x_min":26,"x_max":453,"o":"m 126 17 q 100 -17 119 -3 q 61 -28 81 -31 q 34 -11 42 -26 q 35 25 26 4 q 61 56 42 43 q 100 67 81 68 q 127 50 121 64 q 126 17 133 36 m 286 17 q 260 -17 279 -3 q 221 -28 240 -31 q 194 -11 201 -26 q 194 25 186 4 q 221 56 201 43 q 260 67 240 68 q 287 50 281 64 q 286 17 293 36 m 446 17 q 419 -17 439 -3 q 381 -28 400 -31 q 353 -11 361 -26 q 354 25 346 4 q 381 56 361 43 q 419 67 400 68 q 447 50 440 64 q 446 17 453 36 z "},"":{"ha":318,"x_min":42,"x_max":281,"o":"m 276 521 q 276 498 281 510 q 264 486 272 486 l 197 486 q 191 312 194 399 q 184 149 188 225 q 178 13 181 72 q 174 -81 175 -47 q 165 -101 174 -93 q 146 -106 157 -108 q 125 -78 125 -101 q 126 9 125 -49 q 128 142 128 67 q 127 306 128 218 q 125 486 126 394 l 58 488 q 44 500 50 488 q 46 523 42 513 q 57 535 50 533 l 124 543 q 119 665 122 606 q 114 779 117 725 q 118 799 111 790 q 136 811 125 808 l 171 814 q 190 807 182 815 q 200 786 199 799 q 201 676 201 736 q 199 551 201 617 l 254 558 q 268 546 264 558 l 276 521 z "},"":{"ha":318,"x_min":4,"x_max":314,"o":"m 300 132 q 296 113 303 122 q 279 103 289 103 l 183 108 l 174 -81 q 165 -101 174 -93 q 146 -106 157 -108 q 125 -78 125 -101 q 126 -2 125 -51 q 128 113 126 47 l 21 121 q 6 132 10 121 q 11 151 4 143 q 29 160 18 160 l 128 161 q 126 365 128 257 q 122 582 125 472 l 31 583 q 15 593 19 583 q 18 614 13 604 q 35 624 24 624 l 121 631 q 118 706 119 669 q 114 779 117 743 q 118 799 111 790 q 136 811 125 808 l 171 814 q 190 807 182 815 q 200 786 199 799 q 201 715 200 753 q 200 638 201 678 l 286 644 q 301 633 297 644 l 310 613 q 308 592 314 601 q 290 582 301 582 l 200 582 q 194 368 197 478 q 186 163 190 258 l 281 165 q 296 156 293 167 l 300 132 z "},"":{"ha":581,"x_min":54,"x_max":517,"o":"m 57 790 q 79 842 58 804 q 131 920 100 881 q 201 988 163 960 q 281 1011 240 1017 q 362 969 321 1006 q 438 890 403 932 q 517 779 478 840 q 476 776 494 776 q 444 778 460 776 q 419 783 428 779 q 392 815 411 788 q 349 872 372 842 q 303 926 326 903 q 263 947 279 950 q 224 918 244 943 q 186 864 204 893 q 144 789 165 829 q 99 776 118 781 q 68 775 82 774 q 57 790 54 776 z "},"":{"ha":789,"x_min":35,"x_max":738,"o":"m 181 803 q 240 790 215 804 q 274 752 264 775 q 283 701 285 729 q 264 651 281 674 q 188 588 229 604 q 118 581 147 572 q 81 603 94 589 q 60 635 67 618 q 53 669 54 651 q 54 701 51 686 q 64 732 57 715 q 85 764 71 749 q 122 790 99 779 q 181 803 144 801 m 217 681 q 221 713 222 699 q 213 735 219 726 q 199 749 207 744 q 182 753 190 753 q 147 739 164 753 q 122 706 129 725 q 122 650 113 668 q 153 626 131 632 q 182 633 163 625 q 217 681 201 642 m 386 482 q 445 469 421 483 q 480 431 469 454 q 488 381 490 408 q 469 331 486 353 q 394 267 435 283 q 324 260 353 251 q 286 283 300 268 q 266 314 272 297 q 258 348 260 331 q 260 381 257 365 q 269 411 263 394 q 290 443 276 428 q 327 469 304 458 q 386 482 350 481 m 422 360 q 426 392 428 378 q 419 415 425 406 q 404 428 413 424 q 388 432 396 432 q 352 418 369 432 q 328 385 335 404 q 327 329 318 347 q 358 306 336 311 q 388 313 368 304 q 422 360 407 321 m 633 482 q 692 469 668 483 q 727 431 717 454 q 735 381 738 408 q 717 331 733 353 q 641 267 682 283 q 571 260 600 251 q 533 283 547 268 q 513 314 519 297 q 506 348 507 331 q 507 381 504 365 q 517 411 510 394 q 538 443 524 428 q 574 469 551 458 q 633 482 597 481 m 669 360 q 674 392 675 378 q 666 415 672 406 q 651 428 660 424 q 635 432 643 432 q 599 418 617 432 q 575 385 582 404 q 574 329 565 347 q 606 306 583 311 q 635 313 615 304 q 669 360 654 321 m 44 215 q 36 231 38 222 q 40 247 35 240 q 107 346 60 276 q 212 505 154 415 q 331 692 269 594 q 439 876 392 790 q 453 890 443 886 q 471 886 463 893 l 506 869 q 519 853 515 863 q 517 835 522 843 q 449 728 488 786 q 367 608 410 669 q 281 487 324 547 q 199 374 238 426 q 128 281 160 321 q 81 218 97 240 q 63 208 74 208 q 44 215 53 207 z "},"":{"ha":486,"x_min":-1,"x_max":685,"o":"m 528 576 q 503 588 524 582 q 453 594 483 594 q 385 583 422 593 q 311 547 347 572 q 259 499 289 532 q 205 430 229 465 q 169 366 181 394 q 169 331 157 338 q 233 315 192 319 q 318 306 275 310 q 397 294 361 301 q 444 272 433 288 q 449 231 454 258 q 427 171 443 203 q 388 108 411 139 q 338 54 364 76 q 259 15 304 26 q 169 3 214 4 q 85 10 124 3 q 25 29 46 18 q 1 61 4 39 q 6 109 -1 83 q 26 160 13 135 q 53 201 40 185 q 82 217 61 211 q 126 223 103 222 q 168 222 149 224 q 194 217 188 221 q 179 198 196 217 q 145 155 163 179 q 119 106 128 131 q 129 72 111 82 q 185 64 154 57 q 244 90 215 71 q 294 135 272 108 q 326 186 317 161 q 330 229 336 211 q 294 251 324 247 q 251 256 282 253 q 186 265 221 258 q 120 283 151 271 q 75 315 89 294 q 63 385 56 342 q 94 474 69 428 q 160 564 119 521 q 250 633 201 607 q 363 670 300 660 q 484 681 425 681 q 590 671 543 681 q 653 647 636 661 q 676 579 685 621 q 642 494 668 538 q 586 415 617 451 q 542 364 556 378 q 508 344 528 349 q 466 343 488 340 q 424 353 444 346 q 389 368 403 360 q 464 461 432 418 q 490 497 478 479 q 512 531 503 515 q 526 559 521 547 q 528 576 531 571 m 308 876 q 315 886 306 885 q 335 884 324 887 q 366 874 348 880 q 392 822 379 845 q 415 786 403 803 q 440 766 428 769 q 467 779 451 763 q 500 813 484 794 q 530 850 516 833 q 549 870 543 868 q 565 873 554 872 q 587 873 575 874 q 613 870 599 872 q 558 799 587 831 q 533 773 546 786 q 505 749 519 760 q 477 731 491 738 q 450 723 463 724 q 415 730 432 721 q 383 754 398 739 q 353 788 367 769 q 330 824 340 807 q 315 856 321 842 q 308 876 309 869 z "},"":{"ha":515,"x_min":64,"x_max":531,"o":"m 515 525 q 527 519 524 529 q 531 494 531 508 q 528 463 531 479 q 519 442 525 447 q 443 388 489 421 q 349 318 397 354 q 253 249 300 282 q 176 194 207 215 q 224 145 190 182 q 296 66 258 108 q 367 -15 333 24 q 415 -67 400 -53 q 421 -87 422 -75 q 414 -107 419 -99 q 400 -118 408 -115 q 383 -112 392 -121 q 348 -78 372 -103 q 292 -24 324 -54 q 227 42 261 7 q 161 108 193 76 q 103 166 129 140 q 64 206 78 192 q 158 273 97 231 q 285 362 218 315 q 414 453 351 408 q 515 525 476 497 z "},"":{"ha":725,"x_min":-4,"x_max":810,"o":"m 753 547 q 736 530 744 536 q 721 521 728 524 q 707 517 714 517 q 610 558 654 550 q 536 553 567 565 q 491 512 506 540 q 481 446 476 483 q 502 401 483 421 q 547 365 521 381 q 601 338 572 350 q 650 313 629 325 q 669 297 660 307 q 681 276 678 286 q 681 258 685 265 q 664 250 678 250 q 628 247 651 250 q 572 237 604 244 q 501 214 540 229 q 419 172 463 199 q 335 92 358 135 q 314 13 311 50 q 340 -52 317 -25 q 394 -83 363 -79 q 535 -72 476 -92 q 635 -21 594 -51 q 700 42 675 10 q 740 89 725 74 q 767 105 754 104 q 789 101 779 106 q 810 85 800 96 q 786 53 803 74 q 747 8 769 32 q 698 -40 724 -17 q 649 -81 672 -64 q 482 -154 563 -139 q 339 -153 401 -169 q 237 -94 276 -136 q 194 3 197 -51 q 119 -28 156 -22 q 53 -10 83 -33 q 6 68 17 19 q 3 174 -4 117 q 33 291 11 231 q 81 405 54 351 q 138 498 108 458 q 193 554 168 538 q 255 585 218 571 q 328 607 292 600 q 396 611 364 614 q 444 592 428 608 q 460 597 451 594 q 478 603 468 600 q 592 608 542 615 q 679 588 643 601 q 753 547 721 572 m 111 33 q 167 65 136 38 q 230 130 197 92 q 294 211 263 168 q 349 291 325 254 q 385 353 372 328 q 397 381 399 378 q 388 383 394 383 q 369 381 381 382 q 308 307 333 329 q 279 279 283 285 q 257 285 272 281 q 227 297 242 290 q 203 308 213 303 q 200 318 194 314 q 217 338 204 321 q 246 377 229 354 q 280 426 263 400 q 313 474 297 451 q 338 512 328 496 q 350 531 349 528 q 339 532 351 538 q 324 526 333 529 q 179 336 229 426 q 110 178 129 246 q 94 70 90 110 q 111 33 97 31 m 539 289 q 463 324 494 300 l 429 265 q 507 285 476 281 q 539 289 524 288 z "},"":{"ha":268,"x_min":71,"x_max":183,"o":"m 153 596 q 147 574 153 583 q 129 565 140 565 q 87 586 103 568 q 71 634 71 604 q 89 703 71 664 q 149 789 107 743 q 172 792 158 799 q 181 774 179 785 q 181 753 183 763 q 160 688 171 729 q 153 596 150 646 z "},"":{"ha":278,"x_min":65,"x_max":178,"o":"m 96 765 q 102 787 96 778 q 119 796 108 796 q 162 775 146 793 q 178 727 178 757 q 160 658 178 697 q 100 572 142 618 q 76 569 90 563 q 67 588 69 576 q 68 608 65 599 q 88 674 78 632 q 96 765 99 715 z "},"":{"ha":403,"x_min":86,"x_max":339,"o":"m 264 624 q 251 607 260 614 q 233 604 243 600 q 201 634 210 613 q 199 683 192 656 q 234 740 207 710 q 313 800 261 771 q 335 797 324 808 q 339 778 339 790 q 332 760 339 767 q 296 704 317 740 q 264 624 275 668 m 156 658 q 142 639 151 644 q 126 639 133 633 q 94 670 103 649 q 96 718 86 692 q 135 774 106 744 q 218 828 165 803 q 231 830 224 832 q 240 821 238 828 q 233 783 250 803 q 194 734 218 767 q 156 658 171 701 z "},"":{"ha":388,"x_min":67,"x_max":319,"o":"m 142 808 q 154 825 146 818 q 172 828 163 832 q 204 798 194 819 q 206 749 214 776 q 172 692 199 722 q 93 632 144 661 q 81 629 86 628 q 71 635 75 631 q 67 653 67 642 q 74 672 67 665 q 110 728 89 692 q 142 808 131 764 m 250 774 q 263 793 254 788 q 279 793 272 799 q 310 761 301 782 q 310 714 319 740 q 270 658 300 688 q 188 604 240 629 q 175 602 182 600 q 165 611 168 604 q 172 649 156 629 q 211 698 188 665 q 250 774 235 731 z "},"":{"ha":278,"x_min":78,"x_max":196,"o":"m 78 382 q 94 424 78 407 q 136 442 111 442 q 178 424 161 442 q 196 382 196 407 q 178 340 196 357 q 136 324 161 324 q 94 340 111 324 q 78 382 78 357 z "},"":{"ha":558,"x_min":72,"x_max":485,"o":"m 481 185 q 481 162 485 174 q 468 150 476 150 l 89 140 q 75 153 81 140 q 76 176 72 165 q 88 188 81 186 l 458 222 q 472 210 468 222 l 481 185 z "},"":{"ha":799,"x_min":72,"x_max":740,"o":"m 736 185 q 736 162 740 174 q 724 150 732 150 l 89 140 q 75 153 81 140 q 76 176 72 165 q 88 188 81 186 l 714 222 q 728 210 724 222 l 736 185 z "},"":{"ha":540,"x_min":28,"x_max":510,"o":"m 28 781 q 38 811 28 793 q 67 844 47 829 q 115 871 86 860 q 179 882 143 882 q 253 865 215 882 q 328 838 290 847 q 402 838 365 828 q 472 900 439 847 q 478 896 471 900 q 492 884 485 892 q 504 868 499 876 q 507 851 510 860 q 485 827 504 843 q 431 800 465 811 q 349 790 397 789 q 242 818 301 792 q 188 835 211 831 q 148 835 165 839 q 119 824 131 832 q 99 806 107 815 q 75 740 79 781 q 51 747 61 742 q 35 759 43 751 q 28 781 28 767 z "},"":{"ha":285,"x_min":-1,"x_max":329,"o":"m 215 233 q 222 208 218 219 q 231 183 226 196 q 238 152 235 169 q 240 110 240 135 q 221 49 240 74 q 173 10 201 24 q 113 -5 144 -3 q 58 4 82 -7 q 25 30 39 14 q 5 65 11 46 q 0 105 -1 85 q 10 144 1 125 q 28 174 18 164 q 47 190 38 183 q 69 200 58 196 q 88 186 79 193 q 101 172 94 179 q 107 158 107 165 q 101 148 107 151 q 88 140 96 144 q 74 127 81 135 q 68 104 68 119 q 81 73 67 81 q 110 72 94 65 q 137 97 126 78 q 139 144 147 115 q 118 256 118 211 q 130 329 118 301 q 160 371 142 357 q 196 388 179 385 q 230 390 208 389 q 270 386 251 392 q 299 367 289 381 q 297 325 308 353 q 276 313 293 314 q 243 306 260 311 q 217 286 226 301 q 215 233 207 271 m 109 544 q 114 552 107 551 q 129 550 121 552 q 151 543 138 548 q 170 505 160 522 q 187 479 178 491 q 204 465 196 467 q 224 474 212 463 q 248 499 236 485 q 270 526 260 513 q 283 540 279 538 q 295 542 287 542 q 311 542 303 543 q 330 540 319 542 q 290 489 311 511 q 272 469 281 479 q 252 452 262 460 q 231 439 242 444 q 212 433 221 434 q 187 438 199 432 q 163 456 174 445 q 142 480 151 467 q 125 507 132 494 q 114 530 118 520 q 109 544 109 540 z "},"":{"ha":582,"x_min":69,"x_max":536,"o":"m 85 525 q 186 453 124 497 q 315 362 249 408 q 442 273 382 315 q 536 206 503 231 q 497 166 522 192 q 439 108 471 140 q 373 42 407 76 q 308 -24 339 7 q 252 -78 276 -54 q 217 -112 228 -103 q 200 -118 208 -121 q 186 -107 192 -115 q 179 -87 181 -99 q 185 -67 178 -75 q 213 -36 194 -57 q 256 11 232 -15 q 305 66 279 38 q 353 121 331 94 q 395 167 376 147 q 424 194 414 186 q 347 249 393 215 q 251 318 300 282 q 157 388 203 354 q 81 442 111 421 q 72 463 75 447 q 69 494 69 479 q 73 519 69 508 q 85 525 76 529 z "},"":{"ha":536,"x_min":-6,"x_max":594,"o":"m 593 126 q 574 89 594 118 q 515 32 553 60 q 426 -12 478 4 q 314 -12 375 -29 q 238 36 269 0 q 181 -6 222 7 q 89 -4 140 -19 q 26 38 49 8 q -1 105 4 67 q 8 186 -6 143 q 50 269 21 229 q 106 318 72 300 q 176 347 140 336 q 242 363 211 357 q 289 372 274 368 q 339 381 311 378 q 394 385 367 385 q 443 383 421 385 q 476 379 465 382 q 511 360 499 372 q 524 332 522 349 q 506 290 525 315 q 460 244 489 268 q 400 197 432 219 q 335 158 368 175 q 276 132 303 140 q 308 68 276 89 q 383 49 339 47 q 473 75 426 51 q 551 144 519 99 q 571 143 563 144 q 585 138 578 142 q 593 126 592 135 m 114 83 q 135 59 122 67 q 161 52 147 51 q 188 60 175 53 q 210 78 201 67 q 192 134 197 103 q 189 197 186 165 q 203 258 192 228 q 239 313 215 289 q 188 281 219 301 q 132 225 156 261 q 117 194 124 213 q 108 155 111 175 q 106 115 104 135 q 114 83 107 96 m 375 311 q 315 261 338 300 q 282 183 293 222 q 340 215 310 194 q 386 263 371 235 q 394 302 401 290 q 375 311 388 314 z "},"":{"ha":313,"x_min":26,"x_max":264,"o":"m 126 803 q 100 769 119 783 q 61 758 81 756 q 34 775 42 760 q 35 811 26 790 q 61 842 42 829 q 100 853 81 854 q 127 836 121 850 q 126 803 133 822 m 257 803 q 231 769 250 783 q 192 758 211 756 q 165 775 172 760 q 165 811 157 790 q 192 842 172 829 q 231 853 211 854 q 258 836 251 850 q 257 803 264 822 z "},"":{"ha":456,"x_min":0,"x_max":567,"o":"m 424 243 q 346 72 375 147 q 321 -74 317 -3 q 260 -61 278 -85 q 241 0 243 -37 q 246 78 239 38 q 258 142 253 118 q 180 244 215 185 q 115 369 144 304 q 57 501 85 435 q 0 625 29 568 q 61 631 32 632 q 113 620 86 629 q 158 588 140 611 q 182 533 171 571 q 208 447 193 496 q 242 343 222 399 q 292 235 263 288 q 335 322 313 279 q 377 409 357 365 q 413 499 397 453 q 435 594 428 544 q 529 583 500 599 q 563 538 558 567 q 551 469 567 508 q 512 390 535 431 q 464 311 489 350 q 424 243 439 272 m 306 735 q 279 701 299 715 q 240 690 260 688 q 213 707 221 692 q 214 743 206 722 q 240 774 221 761 q 279 785 260 786 q 306 768 300 782 q 306 735 313 754 m 436 735 q 410 701 429 715 q 371 690 390 688 q 344 707 351 692 q 344 743 336 722 q 371 774 351 761 q 410 785 390 786 q 437 768 431 782 q 436 735 443 754 z "},"":{"ha":264,"x_min":50,"x_max":239,"o":"m 164 -181 q 135 -181 154 -183 q 98 -172 117 -179 q 65 -153 79 -165 q 50 -126 50 -142 q 65 -67 50 -112 q 99 45 81 -21 q 131 190 117 111 q 146 346 146 268 q 157 360 146 358 q 181 357 168 363 q 206 340 194 351 q 217 314 217 328 q 216 190 217 243 q 211 83 215 136 q 196 -31 207 31 q 164 -181 185 -93 m 144 471 q 160 511 146 492 q 194 535 175 531 q 226 527 213 539 q 238 492 239 515 q 220 455 235 472 q 186 432 206 438 q 154 439 165 428 q 144 471 143 450 z "},"":{"ha":365,"x_min":-12,"x_max":417,"o":"m 185 -265 q 164 -237 164 -261 q 165 -152 164 -210 q 167 -21 165 -94 q 121 -17 143 -21 q 76 -4 99 -14 q 18 41 39 11 q -8 108 -3 71 q -1 188 -12 146 q 42 269 11 229 q 101 326 69 306 q 164 357 132 347 q 158 492 161 426 q 153 619 156 558 q 157 640 150 631 q 175 651 164 649 l 210 654 q 229 647 221 656 q 239 626 238 639 q 240 504 240 571 q 238 367 239 438 q 314 347 282 364 q 357 311 346 331 q 333 233 376 279 q 305 209 315 214 q 288 207 294 204 q 281 215 285 208 q 282 236 276 221 q 285 249 283 240 q 284 265 288 257 q 270 281 281 274 q 238 289 260 288 l 235 289 l 226 43 q 323 85 278 54 q 388 144 368 115 q 403 138 397 142 q 413 129 408 135 q 415 115 417 124 q 396 79 413 99 q 353 41 379 60 q 294 8 328 22 q 224 -15 261 -7 q 217 -149 221 -90 q 213 -240 214 -208 q 204 -260 213 -253 q 185 -265 196 -268 m 106 75 q 167 42 131 46 q 167 149 167 94 q 165 264 167 204 q 118 214 138 244 q 103 183 110 201 q 92 146 96 165 q 91 108 89 126 q 106 75 93 89 z "},"":{"ha":424,"x_min":-1,"x_max":604,"o":"m 374 344 q 374 322 378 333 q 361 310 369 310 l 217 314 q 149 199 182 258 q 100 76 117 139 q 135 92 115 85 q 175 103 154 99 q 217 106 196 107 q 257 99 238 106 q 318 63 292 86 q 366 15 344 39 q 409 -32 388 -10 q 456 -65 431 -54 q 515 -71 482 -75 q 593 -37 547 -67 q 603 -40 604 -31 q 589 -66 601 -49 q 556 -103 576 -83 q 509 -138 535 -124 q 454 -158 483 -153 q 397 -147 425 -162 q 349 -110 371 -133 q 307 -62 328 -87 q 265 -12 286 -36 q 219 27 244 13 q 164 43 194 42 q 94 25 133 44 q 93 10 93 18 q 93 -4 93 3 q 60 -6 76 -8 q 13 25 28 0 q 0 90 -1 50 q 20 182 1 129 q 75 296 39 235 l 88 319 l 44 321 q 31 333 36 321 q 32 356 28 346 q 43 368 36 367 l 114 371 q 150 465 136 419 q 171 543 164 510 q 182 617 179 582 q 275 597 246 617 q 308 544 304 578 q 297 468 313 511 q 254 378 281 425 l 351 382 q 365 369 361 382 l 374 344 z "},"":{"ha":456,"x_min":0,"x_max":567,"o":"m 161 108 q 164 129 158 119 q 181 139 169 139 l 254 144 q 178 247 213 188 q 113 372 143 307 q 56 503 83 438 q 0 625 28 568 q 61 631 32 632 q 113 620 86 629 q 158 588 140 611 q 182 533 171 571 q 208 447 193 496 q 242 343 222 399 q 292 235 263 288 q 335 322 313 279 q 377 409 357 365 q 413 499 397 453 q 435 594 428 544 q 529 583 500 599 q 563 538 558 567 q 551 469 567 508 q 512 390 535 431 q 464 311 489 350 q 424 243 439 272 q 401 198 411 219 q 381 156 390 176 l 432 160 q 447 149 443 160 l 456 128 q 453 107 460 117 q 436 97 447 97 l 356 97 q 346 69 350 85 l 426 72 q 442 63 439 74 l 446 39 q 442 19 449 29 q 425 10 435 10 l 329 17 q 321 -29 324 -7 q 321 -74 318 -51 q 281 -74 296 -81 q 256 -54 265 -68 q 243 -20 246 -40 q 240 22 240 0 l 167 28 q 151 39 156 28 q 157 58 150 50 q 175 67 164 67 l 244 68 l 249 97 l 176 99 q 161 108 165 99 z "},"":{"ha":258,"x_min":79,"x_max":171,"o":"m 94 389 q 90 590 93 489 q 82 779 88 690 q 86 799 79 790 q 104 811 93 808 l 139 814 q 158 807 150 815 q 168 786 167 799 q 168 603 171 706 q 163 394 165 501 l 94 389 m 160 308 q 154 185 157 244 q 149 75 151 126 q 145 -16 147 24 q 142 -81 143 -56 q 133 -101 142 -93 q 114 -106 125 -108 q 93 -78 93 -101 q 96 70 94 -33 q 96 306 97 174 l 160 308 z "},"":{"ha":486,"x_min":-56,"x_max":699,"o":"m 542 632 q 517 644 538 638 q 467 649 497 650 q 399 638 436 649 q 325 603 361 628 q 273 554 303 588 q 219 485 243 521 q 183 422 194 450 q 183 386 171 393 q 247 370 206 375 q 332 361 289 365 q 411 350 375 357 q 458 328 447 343 q 464 288 468 314 q 445 233 460 263 q 408 173 431 203 q 360 121 386 143 q 338 102 351 114 q 314 86 325 90 q 362 76 342 82 q 390 58 382 69 q 394 17 400 44 q 373 -43 389 -11 q 333 -106 357 -75 q 283 -160 310 -137 q 205 -199 250 -187 q 115 -210 160 -210 q 31 -203 69 -211 q -29 -185 -8 -196 q -53 -153 -50 -175 q -49 -105 -56 -131 q -28 -54 -42 -79 q -1 -12 -14 -29 q 28 3 7 -3 q 72 9 49 8 q 114 8 94 10 q 140 3 133 7 q 125 -16 142 3 q 91 -59 108 -35 q 65 -108 74 -83 q 75 -142 57 -132 q 131 -150 100 -157 q 190 -124 161 -143 q 240 -79 218 -106 q 272 -28 263 -53 q 276 15 282 -3 q 240 38 269 33 q 202 41 228 39 q 146 48 176 43 q 85 61 115 53 q 36 85 56 69 q 9 150 6 114 q 33 222 13 186 q 83 290 53 258 q 135 338 113 321 q 89 371 103 351 q 76 440 69 397 q 108 530 83 483 q 174 619 133 576 q 264 689 215 663 q 376 726 314 715 q 498 736 439 736 q 603 726 557 736 q 667 703 650 717 q 690 635 699 676 q 656 550 682 593 q 600 470 631 507 q 556 419 569 433 q 522 400 542 404 q 480 399 501 396 q 438 408 458 401 q 403 424 417 415 q 478 517 446 474 q 504 553 492 535 q 526 587 517 571 q 540 615 535 603 q 542 632 544 626 m 226 307 q 170 259 201 289 q 118 200 139 229 q 94 148 97 171 q 125 121 92 125 q 187 127 154 117 q 249 156 219 138 q 301 199 278 175 q 333 244 324 222 q 337 281 343 265 q 301 300 331 296 q 271 303 290 301 q 226 307 251 304 z "},"":{"ha":840,"x_min":64,"x_max":744,"o":"m 515 525 q 527 519 524 529 q 531 494 531 508 q 528 463 531 479 q 519 442 525 447 q 443 388 489 421 q 349 318 397 354 q 253 249 300 282 q 176 194 207 215 q 224 145 190 182 q 296 66 258 108 q 367 -15 333 24 q 415 -67 400 -53 q 421 -87 422 -75 q 414 -107 419 -99 q 400 -118 408 -115 q 383 -112 392 -121 q 348 -78 372 -103 q 292 -24 324 -54 q 227 42 261 7 q 161 108 193 76 q 103 166 129 140 q 64 206 78 192 q 158 273 97 231 q 285 362 218 315 q 414 453 351 408 q 515 525 476 497 m 729 525 q 741 519 738 529 q 744 494 744 508 q 742 463 744 479 q 733 442 739 447 q 657 388 703 421 q 563 318 611 354 q 467 249 514 282 q 390 194 421 215 q 438 145 404 182 q 510 66 472 108 q 581 -15 547 24 q 629 -67 614 -53 q 635 -87 636 -75 q 628 -107 633 -99 q 614 -118 622 -115 q 597 -112 606 -121 q 562 -78 586 -103 q 506 -24 538 -54 q 441 42 475 7 q 375 108 407 76 q 317 166 343 140 q 278 206 292 192 q 372 273 311 231 q 499 362 432 315 q 628 453 565 408 q 729 525 690 497 z "},"":{"ha":440,"x_min":94,"x_max":353,"o":"m 329 85 q 329 62 333 74 q 317 50 325 50 l 111 51 q 97 64 103 51 q 100 82 94 76 q 113 89 106 88 l 310 113 q 324 100 319 113 l 329 85 m 349 249 q 349 231 353 240 q 335 221 344 221 l 242 221 l 217 143 q 200 133 214 133 q 183 140 190 133 q 178 156 175 147 l 192 221 l 111 221 q 97 232 103 221 q 99 250 94 242 q 111 258 103 258 l 200 268 l 218 357 q 232 367 221 367 l 256 367 q 274 360 267 368 q 279 344 282 353 l 257 274 l 325 279 q 340 269 335 279 l 349 249 z "},"":{"ha":338,"x_min":60,"x_max":253,"o":"m 193 931 q 210 945 200 942 q 229 942 221 949 q 251 899 249 924 q 235 851 253 875 q 180 806 218 826 q 82 772 142 785 q 61 783 68 771 q 65 803 60 792 q 78 819 69 814 q 133 862 100 835 q 193 931 165 889 z "},"":{"ha":856,"x_min":94,"x_max":707,"o":"m 600 532 q 619 532 603 532 q 653 529 635 532 q 688 519 672 526 q 706 494 703 511 q 702 460 707 486 q 688 395 697 433 q 668 311 679 357 q 646 219 657 265 q 583 -22 618 111 q 543 -15 560 -22 q 519 8 528 -8 q 518 58 510 24 q 439 15 482 31 q 353 10 396 -1 q 292 41 321 18 q 249 81 264 64 q 233 -34 240 22 q 218 -134 225 -90 q 205 -205 211 -178 q 193 -233 199 -232 q 160 -224 178 -235 q 128 -196 143 -214 q 104 -154 114 -178 q 97 -104 94 -131 q 103 -54 99 -92 q 116 36 108 -17 q 133 152 124 89 q 151 278 142 215 q 170 401 161 342 q 187 508 179 461 q 199 582 194 554 q 206 610 204 610 q 225 608 208 610 q 261 601 242 607 q 297 586 281 596 q 318 561 314 576 q 315 522 319 554 q 303 439 311 489 q 285 326 296 389 q 265 193 275 263 q 287 160 274 178 q 317 128 300 143 q 355 105 335 114 q 397 99 375 96 q 475 115 446 104 q 528 143 504 125 q 548 262 536 194 q 570 390 560 329 q 589 491 581 450 q 600 532 597 532 z "},"":{"ha":764,"x_min":81,"x_max":681,"o":"m 167 549 q 233 564 189 561 q 332 563 278 567 q 444 551 386 560 q 551 535 501 543 q 634 519 600 526 q 676 511 668 513 q 678 503 681 510 q 671 490 676 497 q 658 476 665 483 q 644 467 650 469 q 627 465 638 464 q 606 468 617 465 q 579 475 593 471 l 440 -135 q 422 -132 429 -136 q 404 -107 404 -126 q 410 -65 404 -96 q 424 10 415 -33 q 443 105 432 53 q 465 210 454 157 q 526 482 492 333 l 413 501 q 331 179 368 324 q 298 58 314 118 q 269 -51 282 -1 q 246 -133 256 -100 q 232 -172 236 -165 q 209 -188 224 -187 q 180 -184 194 -189 q 154 -173 165 -179 q 142 -167 143 -167 q 148 -135 140 -167 q 168 -57 156 -104 q 196 45 181 -10 q 224 148 211 100 q 247 228 238 196 q 258 261 257 260 q 149 318 192 282 q 94 396 107 354 q 97 478 81 438 q 167 549 114 519 z "},"":{"ha":160,"x_min":26,"x_max":133,"o":"m 126 433 q 100 400 119 414 q 61 389 81 386 q 34 406 42 390 q 35 442 26 421 q 61 472 42 460 q 100 483 81 485 q 127 467 121 481 q 126 433 133 453 z "},"":{"ha":372,"x_min":90,"x_max":328,"o":"m 119 33 q 151 51 129 49 q 190 51 172 54 q 212 40 207 47 q 193 29 217 33 q 158 14 169 25 q 141 -8 146 3 q 136 -27 136 -19 q 136 -33 136 -35 q 253 -54 213 -40 q 311 -85 294 -68 q 326 -123 328 -103 q 314 -161 324 -143 q 267 -193 303 -181 q 193 -210 232 -206 q 124 -210 154 -214 q 92 -190 93 -206 q 96 -167 90 -175 q 109 -156 101 -160 q 122 -152 117 -153 q 128 -150 128 -151 q 150 -147 128 -149 q 199 -142 172 -146 q 245 -129 225 -137 q 260 -104 265 -121 q 234 -81 254 -87 q 190 -70 214 -74 q 144 -64 167 -67 q 113 -53 122 -61 q 97 -17 93 -36 q 119 33 100 3 z "},"":{"ha":814,"x_min":69,"x_max":750,"o":"m 299 525 q 400 453 338 497 q 529 362 463 408 q 656 273 596 315 q 750 206 717 231 q 710 166 736 192 q 653 108 685 140 q 587 42 621 76 q 522 -24 553 7 q 466 -78 490 -54 q 431 -112 442 -103 q 414 -118 422 -121 q 400 -107 406 -115 q 393 -87 394 -99 q 399 -67 392 -75 q 427 -36 408 -57 q 469 11 446 -15 q 519 66 493 38 q 567 121 544 94 q 609 167 590 147 q 638 194 628 186 q 560 249 607 215 q 465 318 514 282 q 371 388 417 354 q 294 442 325 421 q 286 463 289 447 q 283 494 283 479 q 287 519 283 508 q 299 525 290 529 m 85 525 q 186 453 124 497 q 315 362 249 408 q 442 273 382 315 q 536 206 503 231 q 497 166 522 192 q 439 108 471 140 q 373 42 407 76 q 308 -24 339 7 q 252 -78 276 -54 q 217 -112 228 -103 q 200 -118 208 -121 q 186 -107 192 -115 q 179 -87 181 -99 q 185 -67 178 -75 q 213 -36 194 -57 q 256 11 232 -15 q 305 66 279 38 q 353 121 331 94 q 395 167 376 147 q 424 194 414 186 q 347 249 393 215 q 251 318 300 282 q 157 388 203 354 q 81 442 111 421 q 72 463 75 447 q 69 494 69 479 q 73 519 69 508 q 85 525 76 529 z "},"":{"ha":444,"x_min":11,"x_max":526,"o":"m 306 -22 q 308 -12 304 -21 q 319 8 311 -3 q 341 29 328 19 q 372 40 354 39 q 409 28 393 43 q 431 -13 425 13 q 429 -71 436 -39 q 399 -137 422 -104 q 301 -208 361 -189 q 181 -216 240 -228 q 74 -162 121 -204 q 17 -50 26 -121 q 36 35 11 0 q 103 98 61 71 q 196 146 144 125 q 295 190 247 167 q 381 240 343 213 q 433 304 419 267 q 444 294 433 304 q 460 265 454 283 q 458 225 465 247 q 417 178 451 203 q 336 132 382 153 q 247 91 290 111 q 169 51 203 71 q 125 7 135 31 q 115 -46 113 -21 q 129 -90 117 -71 q 162 -119 142 -108 q 206 -132 182 -131 q 278 -119 254 -136 q 310 -82 301 -103 q 315 -42 318 -61 q 306 -22 313 -24 m 408 414 q 400 376 396 394 q 428 350 404 358 q 473 351 450 343 q 511 382 496 358 q 517 425 526 404 q 485 451 508 446 q 442 447 463 458 q 408 414 422 436 z "},"":{"ha":408,"x_min":-17,"x_max":531,"o":"m 342 613 q 438 616 406 628 q 478 576 469 604 q 479 508 488 549 q 455 423 471 467 q 419 337 439 379 q 389 264 400 294 q 349 103 361 189 q 344 -61 336 18 q 292 -65 313 -75 q 262 -31 272 -56 q 249 27 251 -7 q 247 96 246 61 q 253 161 249 131 q 261 210 257 192 q 253 232 258 218 q 238 261 247 246 q 217 290 229 276 q 189 310 204 303 q 162 261 175 286 q 138 208 149 236 q 94 91 111 150 q 81 -36 78 32 q 4 8 25 -25 q -12 88 -17 40 q 16 191 -8 135 q 75 305 40 247 q 151 417 110 363 q 231 513 193 471 q 299 583 268 556 q 342 613 329 610 m 306 307 q 333 369 318 333 q 363 442 349 406 q 390 509 378 478 q 404 557 401 540 q 387 564 399 569 q 359 542 375 558 q 324 501 343 525 q 288 453 306 478 q 254 408 269 429 q 229 374 239 386 q 267 349 242 369 q 306 307 293 329 m 375 735 q 360 746 365 738 q 358 761 356 754 q 390 790 369 782 q 433 788 410 797 q 481 751 457 778 q 526 676 506 724 q 521 657 531 663 q 486 663 504 644 q 443 699 471 678 q 375 735 415 719 z "},"":{"ha":408,"x_min":-17,"x_max":499,"o":"m 342 613 q 438 616 406 628 q 478 576 469 604 q 479 508 488 549 q 455 423 471 467 q 419 337 439 379 q 389 264 400 294 q 349 103 361 189 q 344 -61 336 18 q 292 -65 313 -75 q 262 -31 272 -56 q 249 27 251 -7 q 247 96 246 61 q 253 161 249 131 q 261 210 257 192 q 253 232 258 218 q 238 261 247 246 q 217 290 229 276 q 189 310 204 303 q 162 261 175 286 q 138 208 149 236 q 94 91 111 150 q 81 -36 78 32 q 4 8 25 -25 q -12 88 -17 40 q 16 191 -8 135 q 75 305 40 247 q 151 417 110 363 q 231 513 193 471 q 299 583 268 556 q 342 613 329 610 m 306 307 q 333 369 318 333 q 363 442 349 406 q 390 509 378 478 q 404 557 401 540 q 387 564 399 569 q 359 542 375 558 q 324 501 343 525 q 288 453 306 478 q 254 408 269 429 q 229 374 239 386 q 267 349 242 369 q 306 307 293 329 m 439 818 q 456 833 446 829 q 475 829 467 836 q 497 787 494 811 q 481 738 499 763 q 426 693 464 714 q 328 660 388 672 q 307 671 314 658 q 310 690 306 679 q 324 707 315 701 q 378 749 346 722 q 439 818 411 776 z "},"":{"ha":408,"x_min":-17,"x_max":544,"o":"m 342 613 q 438 616 406 628 q 478 576 469 604 q 479 508 488 549 q 455 423 471 467 q 419 337 439 379 q 389 264 400 294 q 349 103 361 189 q 344 -61 336 18 q 292 -65 313 -75 q 262 -31 272 -56 q 249 27 251 -7 q 247 96 246 61 q 253 161 249 131 q 261 210 257 192 q 253 232 258 218 q 238 261 247 246 q 217 290 229 276 q 189 310 204 303 q 162 261 175 286 q 138 208 149 236 q 94 91 111 150 q 81 -36 78 32 q 4 8 25 -25 q -12 88 -17 40 q 16 191 -8 135 q 75 305 40 247 q 151 417 110 363 q 231 513 193 471 q 299 583 268 556 q 342 613 329 610 m 306 307 q 333 369 318 333 q 363 442 349 406 q 390 509 378 478 q 404 557 401 540 q 387 564 399 569 q 359 542 375 558 q 324 501 343 525 q 288 453 306 478 q 254 408 269 429 q 229 374 239 386 q 267 349 242 369 q 306 307 293 329 m 288 675 q 300 705 288 683 q 329 748 312 726 q 369 787 347 771 q 413 799 390 803 q 459 776 436 796 q 501 732 482 755 q 546 669 524 704 q 523 668 533 668 q 505 668 514 668 q 491 672 496 669 q 475 689 486 674 q 452 721 464 704 q 425 752 439 739 q 403 764 412 765 q 381 747 393 761 q 360 717 370 733 q 337 675 348 697 q 311 668 322 670 q 294 667 302 666 q 288 675 286 668 z "},"":{"ha":408,"x_min":-17,"x_max":557,"o":"m 342 613 q 438 616 406 628 q 478 576 469 604 q 479 508 488 549 q 455 423 471 467 q 419 337 439 379 q 389 264 400 294 q 349 103 361 189 q 344 -61 336 18 q 292 -65 313 -75 q 262 -31 272 -56 q 249 27 251 -7 q 247 96 246 61 q 253 161 249 131 q 261 210 257 192 q 253 232 258 218 q 238 261 247 246 q 217 290 229 276 q 189 310 204 303 q 162 261 175 286 q 138 208 149 236 q 94 91 111 150 q 81 -36 78 32 q 4 8 25 -25 q -12 88 -17 40 q 16 191 -8 135 q 75 305 40 247 q 151 417 110 363 q 231 513 193 471 q 299 583 268 556 q 342 613 329 610 m 306 307 q 333 369 318 333 q 363 442 349 406 q 390 509 378 478 q 404 557 401 540 q 387 564 399 569 q 359 542 375 558 q 324 501 343 525 q 288 453 306 478 q 254 408 269 429 q 229 374 239 386 q 267 349 242 369 q 306 307 293 329 m 293 671 q 298 687 293 678 q 314 706 304 697 q 341 720 325 714 q 376 726 356 726 q 416 717 396 726 q 457 702 437 707 q 498 702 478 697 q 537 736 518 707 q 540 734 536 736 q 547 727 544 732 q 554 719 551 723 q 556 709 557 714 q 544 696 554 705 q 514 681 533 687 q 469 676 496 675 q 410 691 443 677 q 381 700 394 698 q 359 701 368 703 q 343 694 349 699 q 332 684 336 690 q 319 649 321 671 q 306 652 311 649 q 297 659 301 655 q 293 671 293 663 z "},"":{"ha":408,"x_min":-17,"x_max":506,"o":"m 342 613 q 438 616 406 628 q 478 576 469 604 q 479 508 488 549 q 455 423 471 467 q 419 337 439 379 q 389 264 400 294 q 349 103 361 189 q 344 -61 336 18 q 292 -65 313 -75 q 262 -31 272 -56 q 249 27 251 -7 q 247 96 246 61 q 253 161 249 131 q 261 210 257 192 q 253 232 258 218 q 238 261 247 246 q 217 290 229 276 q 189 310 204 303 q 162 261 175 286 q 138 208 149 236 q 94 91 111 150 q 81 -36 78 32 q 4 8 25 -25 q -12 88 -17 40 q 16 191 -8 135 q 75 305 40 247 q 151 417 110 363 q 231 513 193 471 q 299 583 268 556 q 342 613 329 610 m 306 307 q 333 369 318 333 q 363 442 349 406 q 390 509 378 478 q 404 557 401 540 q 387 564 399 569 q 359 542 375 558 q 324 501 343 525 q 288 453 306 478 q 254 408 269 429 q 229 374 239 386 q 267 349 242 369 q 306 307 293 329 m 411 679 q 393 656 406 666 q 366 648 379 646 q 347 660 352 649 q 348 685 342 670 q 366 706 352 697 q 393 714 379 714 q 411 702 407 712 q 411 679 416 692 m 501 679 q 483 656 496 666 q 456 648 470 646 q 437 660 443 649 q 438 685 432 670 q 456 706 443 697 q 483 714 470 714 q 502 702 497 712 q 501 679 506 692 z "},"":{"ha":408,"x_min":-17,"x_max":508,"o":"m 342 613 q 438 616 406 628 q 478 576 469 604 q 479 508 488 549 q 455 423 471 467 q 419 337 439 379 q 389 264 400 294 q 349 103 361 189 q 344 -61 336 18 q 292 -65 313 -75 q 262 -31 272 -56 q 249 27 251 -7 q 247 96 246 61 q 253 161 249 131 q 261 210 257 192 q 253 232 258 218 q 238 261 247 246 q 217 290 229 276 q 189 310 204 303 q 162 261 175 286 q 138 208 149 236 q 94 91 111 150 q 81 -36 78 32 q 4 8 25 -25 q -12 88 -17 40 q 16 191 -8 135 q 75 305 40 247 q 151 417 110 363 q 231 513 193 471 q 299 583 268 556 q 342 613 329 610 m 306 307 q 333 369 318 333 q 363 442 349 406 q 390 509 378 478 q 404 557 401 540 q 387 564 399 569 q 359 542 375 558 q 324 501 343 525 q 288 453 306 478 q 254 408 269 429 q 229 374 239 386 q 267 349 242 369 q 306 307 293 329 m 361 661 q 382 714 361 692 q 435 735 403 735 q 487 714 466 735 q 509 661 509 692 q 487 609 509 630 q 435 588 466 588 q 382 609 403 588 q 361 661 361 630 m 391 664 q 403 632 391 644 q 435 620 416 620 q 466 632 453 620 q 479 664 479 644 q 466 695 479 682 q 435 708 453 708 q 403 695 416 708 q 391 664 391 682 z "},"":{"ha":810,"x_min":-17,"x_max":869,"o":"m 342 613 q 428 618 397 625 q 471 590 458 611 q 538 622 497 614 q 652 628 601 635 q 739 607 703 621 q 813 567 781 592 q 796 549 804 556 q 781 540 788 543 q 767 536 774 536 q 670 577 714 569 q 596 572 626 585 q 551 531 565 560 q 540 465 536 503 q 562 420 543 440 q 606 385 581 400 q 660 357 632 369 q 710 332 689 344 q 728 316 719 326 q 741 295 738 306 q 741 277 744 285 q 724 269 738 269 q 688 267 711 269 q 632 256 664 264 q 561 233 600 249 q 479 192 522 218 q 394 112 418 154 q 374 32 371 69 q 399 -33 376 -6 q 454 -64 422 -60 q 595 -52 536 -72 q 694 -1 654 -32 q 760 61 735 29 q 800 108 785 93 q 826 124 814 124 q 849 121 839 125 q 869 104 860 115 q 846 72 863 93 q 806 27 829 51 q 758 -21 783 3 q 708 -61 732 -44 q 576 -126 640 -107 q 456 -142 511 -144 q 356 -117 400 -139 q 286 -62 313 -96 q 256 -12 264 -49 q 247 65 247 24 q 251 147 246 107 q 261 210 257 188 q 253 232 258 218 q 238 261 247 246 q 217 290 229 276 q 189 310 204 303 q 162 261 175 286 q 138 208 149 236 q 94 91 111 150 q 81 -36 78 32 q 4 8 25 -25 q -12 88 -17 40 q 16 191 -8 135 q 75 305 40 247 q 151 417 110 363 q 231 513 193 471 q 299 583 268 556 q 342 613 329 610 m 306 307 q 333 369 318 333 q 363 442 349 406 q 390 509 378 478 q 404 557 401 540 q 387 564 399 569 q 359 542 375 558 q 324 501 343 525 q 288 453 306 478 q 254 408 269 429 q 229 374 239 386 q 267 349 242 369 q 306 307 293 329 m 599 308 q 510 351 547 319 q 454 424 474 383 q 419 338 439 379 q 389 264 400 296 l 376 228 q 453 272 414 256 q 525 296 493 288 q 599 308 563 306 z "},"":{"ha":543,"x_min":-3,"x_max":624,"o":"m 31 722 q 49 728 35 732 q 78 717 63 724 q 117 693 94 707 q 167 594 132 626 q 246 551 201 563 q 363 609 304 590 q 469 635 421 628 q 551 640 517 642 q 593 638 585 639 q 613 627 607 633 q 621 615 618 621 q 622 601 624 608 q 566 568 600 585 q 492 538 532 551 q 410 515 453 525 q 325 501 367 506 q 219 401 263 457 q 152 290 176 346 q 122 184 128 235 q 128 100 117 133 q 206 10 149 38 q 339 -6 264 -18 q 405 16 372 0 q 465 49 438 32 q 513 83 493 67 q 540 104 533 99 q 557 113 547 110 q 576 115 567 115 q 590 113 585 115 q 594 106 596 110 q 587 92 592 101 q 565 66 582 82 q 517 26 549 50 q 431 -29 486 3 q 347 -63 393 -51 q 253 -76 301 -75 q 247 -93 247 -86 q 247 -99 247 -100 q 324 -112 297 -103 q 363 -133 351 -121 q 372 -157 374 -144 q 364 -182 371 -169 q 333 -203 357 -194 q 285 -214 310 -211 q 239 -214 260 -217 q 218 -201 218 -211 q 220 -187 217 -192 q 228 -180 224 -182 q 238 -177 233 -178 q 242 -175 242 -176 q 256 -173 242 -174 q 288 -169 271 -172 q 319 -161 306 -167 q 329 -144 332 -156 q 312 -129 325 -133 q 283 -123 299 -125 q 252 -119 267 -121 q 232 -111 238 -117 q 224 -76 217 -96 q 115 -51 165 -74 q 33 15 64 -29 q 0 126 3 58 q 36 290 -3 194 q 107 418 67 364 q 192 511 147 472 q 128 547 161 524 q 68 600 94 571 q 30 661 42 629 q 31 722 18 693 z "},"":{"ha":547,"x_min":-14,"x_max":617,"o":"m 560 547 q 543 530 551 536 q 528 521 535 524 q 514 517 521 517 q 417 558 461 550 q 343 553 374 565 q 298 512 313 540 q 288 446 283 483 q 309 401 290 421 q 353 365 328 381 q 408 338 379 350 q 457 313 436 325 q 476 297 467 307 q 488 276 485 286 q 488 258 492 265 q 471 250 485 250 q 435 247 458 250 q 379 237 411 244 q 308 214 347 229 q 226 172 269 199 q 142 92 165 135 q 121 13 118 50 q 147 -52 124 -25 q 201 -83 169 -79 q 342 -72 283 -92 q 442 -21 401 -51 q 507 42 482 10 q 547 89 532 74 q 574 105 561 104 q 596 101 586 106 q 617 85 607 96 q 593 53 610 74 q 553 8 576 32 q 505 -40 531 -17 q 456 -81 479 -64 q 260 -160 353 -151 q 102 -136 167 -168 q 12 -43 38 -104 q 21 89 -14 18 q 110 199 56 158 q 218 260 165 240 q 346 289 279 283 q 239 351 281 304 q 186 449 197 397 q 198 546 175 501 q 285 603 221 590 q 399 608 349 615 q 486 588 450 601 q 560 547 528 572 m 296 719 q 281 731 286 722 q 279 746 276 739 q 310 774 290 767 q 354 772 331 782 q 402 735 378 763 q 447 661 426 708 q 442 642 451 647 q 407 647 425 629 q 364 683 392 663 q 296 719 336 704 z "},"":{"ha":547,"x_min":-14,"x_max":617,"o":"m 560 547 q 543 530 551 536 q 528 521 535 524 q 514 517 521 517 q 417 558 461 550 q 343 553 374 565 q 298 512 313 540 q 288 446 283 483 q 309 401 290 421 q 353 365 328 381 q 408 338 379 350 q 457 313 436 325 q 476 297 467 307 q 488 276 485 286 q 488 258 492 265 q 471 250 485 250 q 435 247 458 250 q 379 237 411 244 q 308 214 347 229 q 226 172 269 199 q 142 92 165 135 q 121 13 118 50 q 147 -52 124 -25 q 201 -83 169 -79 q 342 -72 283 -92 q 442 -21 401 -51 q 507 42 482 10 q 547 89 532 74 q 574 105 561 104 q 596 101 586 106 q 617 85 607 96 q 593 53 610 74 q 553 8 576 32 q 505 -40 531 -17 q 456 -81 479 -64 q 260 -160 353 -151 q 102 -136 167 -168 q 12 -43 38 -104 q 21 89 -14 18 q 110 199 56 158 q 218 260 165 240 q 346 289 279 283 q 239 351 281 304 q 186 449 197 397 q 198 546 175 501 q 285 603 221 590 q 399 608 349 615 q 486 588 450 601 q 560 547 528 572 m 415 807 q 433 822 422 818 q 451 818 443 825 q 473 776 471 800 q 458 727 475 751 q 402 682 440 703 q 304 649 364 661 q 283 660 290 647 q 287 679 282 668 q 300 696 292 690 q 355 738 322 711 q 415 807 388 765 z "},"":{"ha":547,"x_min":-14,"x_max":617,"o":"m 560 547 q 543 530 551 536 q 528 521 535 524 q 514 517 521 517 q 417 558 461 550 q 343 553 374 565 q 298 512 313 540 q 288 446 283 483 q 309 401 290 421 q 353 365 328 381 q 408 338 379 350 q 457 313 436 325 q 476 297 467 307 q 488 276 485 286 q 488 258 492 265 q 471 250 485 250 q 435 247 458 250 q 379 237 411 244 q 308 214 347 229 q 226 172 269 199 q 142 92 165 135 q 121 13 118 50 q 147 -52 124 -25 q 201 -83 169 -79 q 342 -72 283 -92 q 442 -21 401 -51 q 507 42 482 10 q 547 89 532 74 q 574 105 561 104 q 596 101 586 106 q 617 85 607 96 q 593 53 610 74 q 553 8 576 32 q 505 -40 531 -17 q 456 -81 479 -64 q 260 -160 353 -151 q 102 -136 167 -168 q 12 -43 38 -104 q 21 89 -14 18 q 110 199 56 158 q 218 260 165 240 q 346 289 279 283 q 239 351 281 304 q 186 449 197 397 q 198 546 175 501 q 285 603 221 590 q 399 608 349 615 q 486 588 450 601 q 560 547 528 572 m 280 645 q 290 668 281 652 q 312 702 299 685 q 343 731 326 719 q 377 741 360 744 q 412 723 394 739 q 445 689 430 707 q 479 641 462 667 q 462 639 470 639 q 448 640 455 639 q 437 642 441 641 q 425 656 434 644 q 407 681 417 668 q 387 705 397 694 q 369 714 376 715 q 353 701 361 712 q 336 677 344 690 q 318 645 327 662 q 298 639 307 641 q 285 639 291 638 q 280 645 279 639 z "},"":{"ha":547,"x_min":-14,"x_max":617,"o":"m 560 547 q 543 530 551 536 q 528 521 535 524 q 514 517 521 517 q 417 558 461 550 q 343 553 374 565 q 298 512 313 540 q 288 446 283 483 q 309 401 290 421 q 353 365 328 381 q 408 338 379 350 q 457 313 436 325 q 476 297 467 307 q 488 276 485 286 q 488 258 492 265 q 471 250 485 250 q 435 247 458 250 q 379 237 411 244 q 308 214 347 229 q 226 172 269 199 q 142 92 165 135 q 121 13 118 50 q 147 -52 124 -25 q 201 -83 169 -79 q 342 -72 283 -92 q 442 -21 401 -51 q 507 42 482 10 q 547 89 532 74 q 574 105 561 104 q 596 101 586 106 q 617 85 607 96 q 593 53 610 74 q 553 8 576 32 q 505 -40 531 -17 q 456 -81 479 -64 q 260 -160 353 -151 q 102 -136 167 -168 q 12 -43 38 -104 q 21 89 -14 18 q 110 199 56 158 q 218 260 165 240 q 346 289 279 283 q 239 351 281 304 q 186 449 197 397 q 198 546 175 501 q 285 603 221 590 q 399 608 349 615 q 486 588 450 601 q 560 547 528 572 m 367 676 q 349 653 362 663 q 322 646 336 644 q 304 657 309 647 q 304 682 299 668 q 322 703 309 694 q 349 711 336 712 q 368 699 363 709 q 367 676 372 690 m 457 676 q 439 653 452 663 q 412 646 425 644 q 393 657 399 647 q 394 682 388 668 q 412 703 399 694 q 439 711 425 712 q 457 699 453 709 q 457 676 462 690 z "},"":{"ha":190,"x_min":3,"x_max":338,"o":"m 235 344 q 182 245 207 296 q 139 142 157 194 q 114 35 121 89 q 114 -75 107 -19 q 42 -67 67 -85 q 10 -15 18 -49 q 8 65 3 19 q 24 155 13 110 q 49 238 35 200 q 75 296 64 275 q 128 415 107 357 q 160 517 149 472 q 179 617 174 569 q 283 606 251 625 q 315 550 314 588 q 293 460 317 513 q 235 344 269 407 m 182 735 q 167 746 172 738 q 165 761 163 754 q 197 790 176 782 q 240 788 217 797 q 288 751 264 778 q 333 676 313 724 q 328 657 338 663 q 293 663 311 644 q 250 699 278 678 q 182 735 222 719 z "},"":{"ha":190,"x_min":3,"x_max":331,"o":"m 235 344 q 182 245 207 296 q 139 142 157 194 q 114 35 121 89 q 114 -75 107 -19 q 42 -67 67 -85 q 10 -15 18 -49 q 8 65 3 19 q 24 155 13 110 q 49 238 35 200 q 75 296 64 275 q 128 415 107 357 q 160 517 149 472 q 179 617 174 569 q 283 606 251 625 q 315 550 314 588 q 293 460 317 513 q 235 344 269 407 m 284 805 q 298 817 289 814 q 312 814 306 820 q 329 781 328 800 q 317 742 331 761 q 274 706 304 723 q 196 680 244 690 q 180 689 186 679 q 183 704 179 695 q 193 717 187 713 q 236 751 211 729 q 284 805 262 772 z "},"":{"ha":190,"x_min":3,"x_max":375,"o":"m 235 344 q 182 245 207 296 q 139 142 157 194 q 114 35 121 89 q 114 -75 107 -19 q 42 -67 67 -85 q 10 -15 18 -49 q 8 65 3 19 q 24 155 13 110 q 49 238 35 200 q 75 296 64 275 q 128 415 107 357 q 160 517 149 472 q 179 617 174 569 q 283 606 251 625 q 315 550 314 588 q 293 460 317 513 q 235 344 269 407 m 134 679 q 146 707 135 686 q 173 747 157 727 q 210 783 190 768 q 252 795 230 798 q 294 773 273 792 q 334 732 316 754 q 376 673 355 705 q 354 672 364 672 q 337 673 346 672 q 325 676 329 673 q 310 692 320 678 q 288 722 300 706 q 263 751 276 738 q 242 762 251 763 q 222 746 233 759 q 202 718 211 733 q 180 678 191 700 q 156 672 166 674 q 140 671 147 670 q 134 679 133 672 z "},"":{"ha":190,"x_min":3,"x_max":360,"o":"m 235 344 q 182 245 207 296 q 139 142 157 194 q 114 35 121 89 q 114 -75 107 -19 q 42 -67 67 -85 q 10 -15 18 -49 q 8 65 3 19 q 24 155 13 110 q 49 238 35 200 q 75 296 64 275 q 128 415 107 357 q 160 517 149 472 q 179 617 174 569 q 283 606 251 625 q 315 550 314 588 q 293 460 317 513 q 235 344 269 407 m 240 714 q 217 684 234 697 q 183 675 200 672 q 159 689 166 676 q 160 721 152 703 q 183 747 166 737 q 217 757 200 758 q 240 743 235 755 q 240 714 246 730 m 354 714 q 331 684 348 697 q 297 675 314 672 q 273 689 280 676 q 274 721 266 703 q 297 747 280 737 q 331 757 314 758 q 354 743 349 755 q 354 714 360 730 z "},"":{"ha":624,"x_min":-58,"x_max":718,"o":"m 676 664 q 713 539 718 619 q 667 366 707 458 q 559 181 626 274 q 413 19 492 89 q 276 -72 346 -37 q 144 -114 206 -107 q 38 -99 83 -121 q -22 -19 -7 -76 q -22 61 -33 22 q 13 135 -11 100 q 19 250 -3 176 l -42 250 q -56 263 -50 250 q -54 285 -58 275 q -43 297 -50 296 l 39 303 q 82 388 57 344 q 139 501 118 449 q 171 593 160 553 q 189 678 185 639 q 292 656 265 678 q 315 597 319 635 q 396 666 350 635 q 491 710 442 697 q 588 715 540 724 q 676 664 636 706 m 328 283 q 328 260 332 272 q 315 249 324 249 l 138 249 q 72 92 92 161 q 64 -14 53 24 q 120 -50 75 -51 q 249 4 165 -49 q 357 98 304 39 q 455 225 410 157 q 534 364 500 293 q 583 493 568 435 q 592 589 599 551 q 553 631 586 626 q 451 617 500 636 q 365 574 403 599 q 303 527 326 549 q 281 506 281 506 q 226 409 256 456 q 168 311 196 363 l 306 321 q 319 308 315 321 l 328 283 z "},"":{"ha":456,"x_min":-3,"x_max":574,"o":"m 444 576 q 538 565 510 581 q 570 519 567 549 q 558 452 574 490 q 520 374 543 414 q 472 294 497 333 q 433 225 447 256 q 378 112 400 175 q 356 -14 356 49 q 271 3 303 -22 q 221 72 239 29 q 196 166 203 115 q 188 257 189 217 q 116 140 143 206 q 82 -1 89 74 q 50 -3 67 -6 q 9 29 21 1 q 1 98 -3 57 q 26 188 6 139 q 82 283 47 238 q 113 329 93 299 q 150 394 132 360 q 180 461 168 428 q 188 515 192 494 q 259 510 225 522 q 308 463 293 499 q 301 412 313 442 q 276 340 289 382 q 256 244 263 299 q 267 118 250 189 q 338 286 282 192 q 394 399 374 347 q 426 492 415 451 q 444 576 440 538 m 178 646 q 185 669 178 656 q 208 694 193 683 q 244 714 222 706 q 293 723 265 723 q 349 710 320 723 q 406 689 377 697 q 462 689 434 682 q 515 736 490 697 q 519 733 514 736 q 530 724 525 730 q 539 712 535 719 q 541 700 544 706 q 525 681 539 693 q 484 661 510 669 q 422 653 458 652 q 340 674 386 654 q 300 687 317 684 q 269 688 282 690 q 247 679 256 685 q 232 665 238 672 q 214 616 217 646 q 196 621 203 617 q 184 630 190 624 q 178 646 178 636 z "},"":{"ha":433,"x_min":-4,"x_max":496,"o":"m 404 432 q 440 433 422 433 q 471 427 458 432 q 490 413 483 422 q 493 390 496 404 q 465 326 489 371 q 403 227 440 281 q 321 119 367 174 q 228 26 275 64 q 135 -26 181 -12 q 53 -10 89 -39 q 6 68 17 19 q 3 174 -4 117 q 33 291 11 231 q 81 405 54 351 q 138 498 108 458 q 193 554 168 538 q 251 585 217 571 q 322 606 286 599 q 388 613 357 614 q 438 598 419 611 q 459 558 457 585 q 436 486 461 531 q 404 432 419 454 m 111 33 q 167 65 136 38 q 230 130 197 92 q 294 211 263 168 q 349 291 325 254 q 385 353 372 328 q 397 381 399 378 q 388 383 394 383 q 369 381 381 382 q 308 307 333 329 q 279 279 283 285 q 257 285 272 281 q 227 297 242 290 q 203 308 213 303 q 200 318 194 314 q 217 338 204 321 q 246 377 229 354 q 280 426 263 400 q 313 474 297 451 q 338 512 328 496 q 350 531 349 528 q 339 532 351 538 q 324 526 333 529 q 179 336 229 426 q 110 178 129 246 q 94 70 90 110 q 111 33 97 31 m 283 736 q 269 747 274 739 q 267 763 264 756 q 298 791 278 783 q 342 789 318 799 q 390 752 365 779 q 435 678 414 725 q 429 658 439 664 q 394 664 413 646 q 351 700 379 679 q 283 736 324 721 z "},"":{"ha":433,"x_min":-4,"x_max":496,"o":"m 404 432 q 440 433 422 433 q 471 427 458 432 q 490 413 483 422 q 493 390 496 404 q 465 326 489 371 q 403 227 440 281 q 321 119 367 174 q 228 26 275 64 q 135 -26 181 -12 q 53 -10 89 -39 q 6 68 17 19 q 3 174 -4 117 q 33 291 11 231 q 81 405 54 351 q 138 498 108 458 q 193 554 168 538 q 251 585 217 571 q 322 606 286 599 q 388 613 357 614 q 438 598 419 611 q 459 558 457 585 q 436 486 461 531 q 404 432 419 454 m 111 33 q 167 65 136 38 q 230 130 197 92 q 294 211 263 168 q 349 291 325 254 q 385 353 372 328 q 397 381 399 378 q 388 383 394 383 q 369 381 381 382 q 308 307 333 329 q 279 279 283 285 q 257 285 272 281 q 227 297 242 290 q 203 308 213 303 q 200 318 194 314 q 217 338 204 321 q 246 377 229 354 q 280 426 263 400 q 313 474 297 451 q 338 512 328 496 q 350 531 349 528 q 339 532 351 538 q 324 526 333 529 q 179 336 229 426 q 110 178 129 246 q 94 70 90 110 q 111 33 97 31 m 418 810 q 435 824 425 821 q 454 821 446 828 q 476 778 474 803 q 460 730 478 754 q 405 685 443 706 q 307 651 367 664 q 286 663 293 650 q 290 682 285 671 q 303 699 294 693 q 358 741 325 714 q 418 810 390 768 z "},"":{"ha":433,"x_min":-4,"x_max":496,"o":"m 404 432 q 440 433 422 433 q 471 427 458 432 q 490 413 483 422 q 493 390 496 404 q 465 326 489 371 q 403 227 440 281 q 321 119 367 174 q 228 26 275 64 q 135 -26 181 -12 q 53 -10 89 -39 q 6 68 17 19 q 3 174 -4 117 q 33 291 11 231 q 81 405 54 351 q 138 498 108 458 q 193 554 168 538 q 251 585 217 571 q 322 606 286 599 q 388 613 357 614 q 438 598 419 611 q 459 558 457 585 q 436 486 461 531 q 404 432 419 454 m 111 33 q 167 65 136 38 q 230 130 197 92 q 294 211 263 168 q 349 291 325 254 q 385 353 372 328 q 397 381 399 378 q 388 383 394 383 q 369 381 381 382 q 308 307 333 329 q 279 279 283 285 q 257 285 272 281 q 227 297 242 290 q 203 308 213 303 q 200 318 194 314 q 217 338 204 321 q 246 377 229 354 q 280 426 263 400 q 313 474 297 451 q 338 512 328 496 q 350 531 349 528 q 339 532 351 538 q 324 526 333 529 q 179 336 229 426 q 110 178 129 246 q 94 70 90 110 q 111 33 97 31 m 252 694 q 264 722 253 702 q 291 763 275 742 q 328 798 308 784 q 370 811 348 813 q 412 788 391 808 q 452 747 434 769 q 494 689 473 721 q 473 687 482 687 q 455 688 464 687 q 443 691 447 689 q 428 707 438 693 q 406 738 418 721 q 381 766 394 754 q 360 777 369 778 q 340 762 351 775 q 320 733 329 748 q 298 694 309 715 q 274 687 284 689 q 258 686 265 686 q 252 694 251 687 z "},"":{"ha":433,"x_min":-4,"x_max":539,"o":"m 404 432 q 440 433 422 433 q 471 427 458 432 q 490 413 483 422 q 493 390 496 404 q 465 326 489 371 q 403 227 440 281 q 321 119 367 174 q 228 26 275 64 q 135 -26 181 -12 q 53 -10 89 -39 q 6 68 17 19 q 3 174 -4 117 q 33 291 11 231 q 81 405 54 351 q 138 498 108 458 q 193 554 168 538 q 251 585 217 571 q 322 606 286 599 q 388 613 357 614 q 438 598 419 611 q 459 558 457 585 q 436 486 461 531 q 404 432 419 454 m 111 33 q 167 65 136 38 q 230 130 197 92 q 294 211 263 168 q 349 291 325 254 q 385 353 372 328 q 397 381 399 378 q 388 383 394 383 q 369 381 381 382 q 308 307 333 329 q 279 279 283 285 q 257 285 272 281 q 227 297 242 290 q 203 308 213 303 q 200 318 194 314 q 217 338 204 321 q 246 377 229 354 q 280 426 263 400 q 313 474 297 451 q 338 512 328 496 q 350 531 349 528 q 339 532 351 538 q 324 526 333 529 q 179 336 229 426 q 110 178 129 246 q 94 70 90 110 q 111 33 97 31 m 222 691 q 229 711 222 699 q 248 733 235 723 q 280 751 261 743 q 322 758 298 758 q 371 746 346 758 q 420 728 395 735 q 469 728 445 722 q 515 770 493 735 q 519 767 515 770 q 528 759 524 764 q 536 749 533 754 q 538 738 540 743 q 524 722 536 732 q 488 704 511 711 q 434 697 466 696 q 363 716 403 698 q 328 727 343 724 q 302 727 313 729 q 282 719 290 725 q 269 707 275 714 q 254 664 256 691 q 238 669 244 665 q 228 677 233 672 q 222 691 222 682 z "},"":{"ha":433,"x_min":-4,"x_max":532,"o":"m 404 432 q 440 433 422 433 q 471 427 458 432 q 490 413 483 422 q 493 390 496 404 q 465 326 489 371 q 403 227 440 281 q 321 119 367 174 q 228 26 275 64 q 135 -26 181 -12 q 53 -10 89 -39 q 6 68 17 19 q 3 174 -4 117 q 33 291 11 231 q 81 405 54 351 q 138 498 108 458 q 193 554 168 538 q 251 585 217 571 q 322 606 286 599 q 388 613 357 614 q 438 598 419 611 q 459 558 457 585 q 436 486 461 531 q 404 432 419 454 m 111 33 q 167 65 136 38 q 230 130 197 92 q 294 211 263 168 q 349 291 325 254 q 385 353 372 328 q 397 381 399 378 q 388 383 394 383 q 369 381 381 382 q 308 307 333 329 q 279 279 283 285 q 257 285 272 281 q 227 297 242 290 q 203 308 213 303 q 200 318 194 314 q 217 338 204 321 q 246 377 229 354 q 280 426 263 400 q 313 474 297 451 q 338 512 328 496 q 350 531 349 528 q 339 532 351 538 q 324 526 333 529 q 179 336 229 426 q 110 178 129 246 q 94 70 90 110 q 111 33 97 31 m 394 710 q 368 676 388 690 q 329 665 349 663 q 302 682 310 667 q 303 718 294 697 q 329 749 310 736 q 368 760 349 761 q 395 743 389 757 q 394 710 401 729 m 525 710 q 499 676 518 690 q 460 665 479 663 q 433 682 440 667 q 433 718 425 697 q 460 749 440 736 q 499 760 479 761 q 526 743 519 757 q 525 710 532 729 z "},"":{"ha":433,"x_min":-92,"x_max":608,"o":"m -79 -160 q -90 -140 -89 -151 q -85 -118 -92 -128 l 22 25 q 0 110 1 61 q 10 213 -1 158 q 43 321 21 267 q 91 422 65 375 q 144 504 117 469 q 193 554 171 539 q 251 584 217 571 q 319 605 285 597 q 385 612 353 613 q 436 599 417 611 q 483 674 460 638 q 525 744 506 710 q 544 761 531 757 q 568 757 557 765 q 594 694 608 717 q 514 572 560 639 q 417 432 468 506 q 474 426 450 435 q 493 390 499 417 q 467 330 489 372 q 410 237 444 288 q 334 133 376 186 q 247 41 292 81 q 157 -18 201 1 q 75 -22 113 -37 q 13 -101 40 -67 q -31 -156 -14 -136 q -53 -169 -39 -168 q -79 -160 -68 -171 m 97 124 q 190 247 142 182 q 288 381 239 313 q 314 429 300 404 q 339 476 328 454 q 358 512 350 497 q 367 529 365 526 q 362 533 368 533 q 347 532 356 533 q 324 526 338 529 q 226 408 267 465 q 159 299 186 351 q 117 203 132 247 q 97 124 103 158 m 379 382 q 246 201 313 290 q 121 36 179 111 q 176 73 146 44 q 239 139 207 101 q 300 218 271 176 q 351 295 329 260 q 386 354 374 331 q 397 381 399 378 q 379 382 394 382 z "},"":{"ha":532,"x_min":-1,"x_max":643,"o":"m 515 586 q 614 568 585 586 q 643 517 643 550 q 621 440 643 485 q 568 344 599 396 q 510 245 540 297 q 457 142 481 193 q 422 42 433 90 q 418 -46 410 -6 q 363 -44 383 -54 q 334 -14 343 -35 q 324 33 325 7 q 326 83 322 60 q 266 38 297 60 q 201 1 235 17 q 133 -22 168 -14 q 60 -22 97 -29 q 13 10 28 -17 q 0 81 -1 38 q 20 179 1 124 q 75 296 39 235 q 132 409 111 357 q 164 501 153 461 q 182 586 178 547 q 281 568 251 586 q 310 517 310 550 q 288 440 310 485 q 235 344 265 396 q 168 233 201 286 q 115 108 135 179 q 140 63 115 67 q 201 76 165 58 q 278 123 238 93 q 347 176 318 153 q 392 278 367 231 q 443 374 418 326 q 488 474 468 422 q 515 586 508 525 m 329 699 q 315 710 319 701 q 313 725 310 718 q 344 753 324 746 q 388 751 364 761 q 435 715 411 742 q 481 640 460 688 q 475 621 485 626 q 440 626 458 608 q 397 663 425 642 q 329 699 369 683 z "},"":{"ha":532,"x_min":-1,"x_max":643,"o":"m 515 586 q 614 568 585 586 q 643 517 643 550 q 621 440 643 485 q 568 344 599 396 q 510 245 540 297 q 457 142 481 193 q 422 42 433 90 q 418 -46 410 -6 q 363 -44 383 -54 q 334 -14 343 -35 q 324 33 325 7 q 326 83 322 60 q 266 38 297 60 q 201 1 235 17 q 133 -22 168 -14 q 60 -22 97 -29 q 13 10 28 -17 q 0 81 -1 38 q 20 179 1 124 q 75 296 39 235 q 132 409 111 357 q 164 501 153 461 q 182 586 178 547 q 281 568 251 586 q 310 517 310 550 q 288 440 310 485 q 235 344 265 396 q 168 233 201 286 q 115 108 135 179 q 140 63 115 67 q 201 76 165 58 q 278 123 238 93 q 347 176 318 153 q 392 278 367 231 q 443 374 418 326 q 488 474 468 422 q 515 586 508 525 m 478 792 q 495 806 485 803 q 514 803 506 810 q 535 760 533 785 q 520 712 538 736 q 465 667 503 688 q 367 633 426 646 q 346 644 353 632 q 349 664 344 653 q 363 681 354 675 q 417 723 385 696 q 478 792 450 750 z "},"":{"ha":532,"x_min":-1,"x_max":643,"o":"m 515 586 q 614 568 585 586 q 643 517 643 550 q 621 440 643 485 q 568 344 599 396 q 510 245 540 297 q 457 142 481 193 q 422 42 433 90 q 418 -46 410 -6 q 363 -44 383 -54 q 334 -14 343 -35 q 324 33 325 7 q 326 83 322 60 q 266 38 297 60 q 201 1 235 17 q 133 -22 168 -14 q 60 -22 97 -29 q 13 10 28 -17 q 0 81 -1 38 q 20 179 1 124 q 75 296 39 235 q 132 409 111 357 q 164 501 153 461 q 182 586 178 547 q 281 568 251 586 q 310 517 310 550 q 288 440 310 485 q 235 344 265 396 q 168 233 201 286 q 115 108 135 179 q 140 63 115 67 q 201 76 165 58 q 278 123 238 93 q 347 176 318 153 q 392 278 367 231 q 443 374 418 326 q 488 474 468 422 q 515 586 508 525 m 281 668 q 294 699 282 676 q 326 745 307 721 q 367 786 344 769 q 415 799 391 803 q 463 774 439 796 q 508 727 488 752 q 556 661 532 697 q 532 659 542 659 q 512 660 522 659 q 498 663 503 661 q 481 682 493 666 q 456 716 469 698 q 428 749 442 735 q 404 761 414 763 q 381 744 393 759 q 358 712 369 729 q 333 667 346 691 q 306 659 318 662 q 288 658 296 658 q 281 668 280 659 z "},"":{"ha":532,"x_min":-1,"x_max":643,"o":"m 515 586 q 614 568 585 586 q 643 517 643 550 q 621 440 643 485 q 568 344 599 396 q 510 245 540 297 q 457 142 481 193 q 422 42 433 90 q 418 -46 410 -6 q 363 -44 383 -54 q 334 -14 343 -35 q 324 33 325 7 q 326 83 322 60 q 266 38 297 60 q 201 1 235 17 q 133 -22 168 -14 q 60 -22 97 -29 q 13 10 28 -17 q 0 81 -1 38 q 20 179 1 124 q 75 296 39 235 q 132 409 111 357 q 164 501 153 461 q 182 586 178 547 q 281 568 251 586 q 310 517 310 550 q 288 440 310 485 q 235 344 265 396 q 168 233 201 286 q 115 108 135 179 q 140 63 115 67 q 201 76 165 58 q 278 123 238 93 q 347 176 318 153 q 392 278 367 231 q 443 374 418 326 q 488 474 468 422 q 515 586 508 525 m 403 701 q 376 668 396 682 q 338 657 357 654 q 310 674 318 658 q 311 710 303 689 q 338 740 318 728 q 376 751 357 753 q 403 735 397 749 q 403 701 410 721 m 533 701 q 507 668 526 682 q 468 657 488 654 q 441 674 449 658 q 442 710 433 689 q 468 740 449 728 q 507 751 488 753 q 534 735 528 749 q 533 701 540 721 z "},"":{"ha":456,"x_min":0,"x_max":567,"o":"m 424 243 q 346 72 375 147 q 321 -74 317 -3 q 260 -61 278 -85 q 241 0 243 -37 q 246 78 239 38 q 258 142 253 118 q 180 244 215 185 q 115 369 144 304 q 57 501 85 435 q 0 625 29 568 q 61 631 32 632 q 113 620 86 629 q 158 588 140 611 q 182 533 171 571 q 208 447 193 496 q 242 343 222 399 q 292 235 263 288 q 335 322 313 279 q 377 409 357 365 q 413 499 397 453 q 435 594 428 544 q 529 583 500 599 q 563 538 558 567 q 551 469 567 508 q 512 390 535 431 q 464 311 489 350 q 424 243 439 272 m 354 847 q 372 862 361 858 q 390 858 382 865 q 412 816 410 840 q 397 767 414 792 q 341 722 379 743 q 243 689 303 701 q 222 700 229 688 q 226 719 221 708 q 239 736 231 731 q 294 778 261 751 q 354 847 326 806 z "},"":{"ha":675,"x_min":60,"x_max":613,"o":"m 467 243 q 475 216 469 229 q 485 188 481 203 q 494 155 490 174 q 497 111 497 136 q 478 50 497 75 q 430 12 458 25 q 370 -3 401 -1 q 315 6 339 -6 q 282 31 296 15 q 262 67 268 47 q 257 106 256 86 q 267 146 258 126 q 285 175 275 165 q 304 192 294 185 q 326 201 315 197 q 344 188 336 194 q 358 174 351 181 q 364 160 364 167 q 358 149 364 153 q 345 141 353 146 q 331 128 338 136 q 325 106 325 121 q 339 74 324 82 q 372 74 354 67 q 401 100 389 81 q 404 149 413 119 q 390 249 386 208 q 408 318 393 290 q 445 363 424 346 q 484 394 467 381 q 509 420 501 408 q 504 449 517 432 q 431 501 467 500 q 362 472 394 503 q 300 387 329 442 q 247 269 271 332 q 206 146 224 207 q 181 40 189 85 q 167 -76 168 -24 q 167 -167 167 -129 q 161 -224 167 -204 q 133 -242 156 -244 q 76 -167 92 -214 q 60 -67 60 -119 q 70 35 60 -15 q 92 119 81 86 q 135 256 113 188 q 184 384 158 325 q 238 486 210 443 q 297 547 265 529 q 416 577 356 581 q 522 546 476 574 q 590 472 568 518 q 592 374 613 426 q 564 355 588 363 q 516 335 540 347 q 475 301 492 322 q 467 243 458 281 z "},"":{"ha":422,"x_min":-4,"x_max":476,"o":"m 421 122 q 435 135 426 133 q 454 133 444 136 q 476 124 465 131 q 424 35 457 65 q 360 -10 392 6 q 282 -29 324 -26 q 250 -22 263 -29 q 230 -5 238 -15 q 220 17 222 6 q 221 35 218 28 q 163 10 194 19 q 96 0 131 0 q 31 27 54 0 q 1 94 7 54 q 8 182 -4 135 q 50 269 21 229 q 118 333 81 311 q 193 360 156 354 q 264 361 231 367 q 322 346 297 356 q 350 370 332 364 q 389 375 368 376 q 431 368 410 374 q 468 357 453 363 q 389 238 424 293 q 360 189 374 214 q 335 141 346 164 q 319 99 325 118 q 313 67 313 79 q 328 41 314 42 q 360 53 342 40 q 395 85 378 65 q 421 122 413 106 m 110 89 q 148 74 118 74 q 214 93 178 74 q 222 143 214 117 q 242 197 231 169 q 268 249 254 224 q 293 296 282 274 q 192 286 233 308 q 122 224 150 264 q 109 197 115 213 q 100 164 103 182 q 99 126 97 146 q 110 89 100 107 m 182 486 q 167 497 172 489 q 165 513 163 506 q 197 541 176 533 q 240 539 217 549 q 288 502 264 529 q 333 428 313 475 q 328 408 338 414 q 293 414 311 396 q 250 450 278 429 q 182 486 222 471 z "},"":{"ha":422,"x_min":-4,"x_max":476,"o":"m 421 122 q 435 135 426 133 q 454 133 444 136 q 476 124 465 131 q 424 35 457 65 q 360 -10 392 6 q 282 -29 324 -26 q 250 -22 263 -29 q 230 -5 238 -15 q 220 17 222 6 q 221 35 218 28 q 163 10 194 19 q 96 0 131 0 q 31 27 54 0 q 1 94 7 54 q 8 182 -4 135 q 50 269 21 229 q 118 333 81 311 q 193 360 156 354 q 264 361 231 367 q 322 346 297 356 q 350 370 332 364 q 389 375 368 376 q 431 368 410 374 q 468 357 453 363 q 389 238 424 293 q 360 189 374 214 q 335 141 346 164 q 319 99 325 118 q 313 67 313 79 q 328 41 314 42 q 360 53 342 40 q 395 85 378 65 q 421 122 413 106 m 110 89 q 148 74 118 74 q 214 93 178 74 q 222 143 214 117 q 242 197 231 169 q 268 249 254 224 q 293 296 282 274 q 192 286 233 308 q 122 224 150 264 q 109 197 115 213 q 100 164 103 182 q 99 126 97 146 q 110 89 100 107 m 304 560 q 322 574 311 571 q 340 571 332 578 q 362 528 360 553 q 347 480 364 504 q 291 435 329 456 q 193 401 253 414 q 172 413 179 400 q 176 432 171 421 q 189 449 181 443 q 244 491 211 464 q 304 560 276 518 z "},"":{"ha":422,"x_min":-4,"x_max":476,"o":"m 421 122 q 435 135 426 133 q 454 133 444 136 q 476 124 465 131 q 424 35 457 65 q 360 -10 392 6 q 282 -29 324 -26 q 250 -22 263 -29 q 230 -5 238 -15 q 220 17 222 6 q 221 35 218 28 q 163 10 194 19 q 96 0 131 0 q 31 27 54 0 q 1 94 7 54 q 8 182 -4 135 q 50 269 21 229 q 118 333 81 311 q 193 360 156 354 q 264 361 231 367 q 322 346 297 356 q 350 370 332 364 q 389 375 368 376 q 431 368 410 374 q 468 357 453 363 q 389 238 424 293 q 360 189 374 214 q 335 141 346 164 q 319 99 325 118 q 313 67 313 79 q 328 41 314 42 q 360 53 342 40 q 395 85 378 65 q 421 122 413 106 m 110 89 q 148 74 118 74 q 214 93 178 74 q 222 143 214 117 q 242 197 231 169 q 268 249 254 224 q 293 296 282 274 q 192 286 233 308 q 122 224 150 264 q 109 197 115 213 q 100 164 103 182 q 99 126 97 146 q 110 89 100 107 m 101 425 q 114 458 101 434 q 147 506 127 481 q 190 548 166 531 q 239 563 214 566 q 290 536 264 559 q 337 487 315 513 q 386 418 362 456 q 361 417 372 417 q 341 417 351 417 q 326 421 331 418 q 308 440 321 424 q 282 476 296 457 q 253 510 268 495 q 228 523 239 525 q 205 505 217 520 q 181 471 192 489 q 155 424 168 449 q 127 417 139 419 q 108 416 116 415 q 101 425 99 417 z "},"":{"ha":422,"x_min":-4,"x_max":476,"o":"m 421 122 q 435 135 426 133 q 454 133 444 136 q 476 124 465 131 q 424 35 457 65 q 360 -10 392 6 q 282 -29 324 -26 q 250 -22 263 -29 q 230 -5 238 -15 q 220 17 222 6 q 221 35 218 28 q 163 10 194 19 q 96 0 131 0 q 31 27 54 0 q 1 94 7 54 q 8 182 -4 135 q 50 269 21 229 q 118 333 81 311 q 193 360 156 354 q 264 361 231 367 q 322 346 297 356 q 350 370 332 364 q 389 375 368 376 q 431 368 410 374 q 468 357 453 363 q 389 238 424 293 q 360 189 374 214 q 335 141 346 164 q 319 99 325 118 q 313 67 313 79 q 328 41 314 42 q 360 53 342 40 q 395 85 378 65 q 421 122 413 106 m 110 89 q 148 74 118 74 q 214 93 178 74 q 222 143 214 117 q 242 197 231 169 q 268 249 254 224 q 293 296 282 274 q 192 286 233 308 q 122 224 150 264 q 109 197 115 213 q 100 164 103 182 q 99 126 97 146 q 110 89 100 107 m 88 426 q 94 448 88 435 q 115 471 101 460 q 148 490 128 482 q 194 498 168 498 q 245 485 219 498 q 298 466 272 473 q 350 466 324 459 q 399 510 376 473 q 403 507 398 510 q 413 499 408 504 q 422 488 418 494 q 424 476 426 482 q 408 459 422 470 q 371 440 395 448 q 313 433 347 432 q 238 453 280 434 q 200 464 216 461 q 172 465 184 467 q 151 456 160 462 q 137 444 143 451 q 121 398 124 426 q 104 403 111 399 q 93 411 98 406 q 88 426 88 416 z "},"":{"ha":422,"x_min":-4,"x_max":476,"o":"m 421 122 q 435 135 426 133 q 454 133 444 136 q 476 124 465 131 q 424 35 457 65 q 360 -10 392 6 q 282 -29 324 -26 q 250 -22 263 -29 q 230 -5 238 -15 q 220 17 222 6 q 221 35 218 28 q 163 10 194 19 q 96 0 131 0 q 31 27 54 0 q 1 94 7 54 q 8 182 -4 135 q 50 269 21 229 q 118 333 81 311 q 193 360 156 354 q 264 361 231 367 q 322 346 297 356 q 350 370 332 364 q 389 375 368 376 q 431 368 410 374 q 468 357 453 363 q 389 238 424 293 q 360 189 374 214 q 335 141 346 164 q 319 99 325 118 q 313 67 313 79 q 328 41 314 42 q 360 53 342 40 q 395 85 378 65 q 421 122 413 106 m 110 89 q 148 74 118 74 q 214 93 178 74 q 222 143 214 117 q 242 197 231 169 q 268 249 254 224 q 293 296 282 274 q 192 286 233 308 q 122 224 150 264 q 109 197 115 213 q 100 164 103 182 q 99 126 97 146 q 110 89 100 107 m 258 486 q 232 453 251 467 q 193 442 213 439 q 166 458 174 443 q 167 494 158 474 q 193 525 174 513 q 232 536 213 538 q 259 519 253 533 q 258 486 265 506 m 389 486 q 363 453 382 467 q 324 442 343 439 q 297 458 304 443 q 297 494 289 474 q 324 525 304 513 q 363 536 343 538 q 390 519 383 533 q 389 486 396 506 z "},"":{"ha":422,"x_min":-4,"x_max":476,"o":"m 421 122 q 435 135 426 133 q 454 133 444 136 q 476 124 465 131 q 424 35 457 65 q 360 -10 392 6 q 282 -29 324 -26 q 250 -22 263 -29 q 230 -5 238 -15 q 220 17 222 6 q 221 35 218 28 q 163 10 194 19 q 96 0 131 0 q 31 27 54 0 q 1 94 7 54 q 8 182 -4 135 q 50 269 21 229 q 118 333 81 311 q 193 360 156 354 q 264 361 231 367 q 322 346 297 356 q 350 370 332 364 q 389 375 368 376 q 431 368 410 374 q 468 357 453 363 q 389 238 424 293 q 360 189 374 214 q 335 141 346 164 q 319 99 325 118 q 313 67 313 79 q 328 41 314 42 q 360 53 342 40 q 395 85 378 65 q 421 122 413 106 m 110 89 q 148 74 118 74 q 214 93 178 74 q 222 143 214 117 q 242 197 231 169 q 268 249 254 224 q 293 296 282 274 q 192 286 233 308 q 122 224 150 264 q 109 197 115 213 q 100 164 103 182 q 99 126 97 146 q 110 89 100 107 m 185 414 q 212 481 185 453 q 278 508 238 508 q 344 481 317 508 q 371 414 371 453 q 344 348 371 375 q 278 322 317 322 q 212 348 238 322 q 185 414 185 375 m 222 417 q 238 377 222 393 q 278 362 254 362 q 318 377 301 362 q 334 417 334 393 q 318 457 334 441 q 278 473 301 473 q 238 457 254 473 q 222 417 222 441 z "},"":{"ha":617,"x_min":-4,"x_max":681,"o":"m 678 96 q 652 46 681 72 q 578 -2 624 19 q 478 -37 533 -24 q 371 -49 422 -50 q 278 -28 319 -47 q 221 35 238 -8 q 163 10 194 19 q 96 0 131 0 q 31 27 54 0 q 1 94 7 54 q 8 182 -4 135 q 50 269 21 229 q 118 333 81 311 q 193 360 156 354 q 264 361 231 367 q 322 346 297 356 q 378 380 351 375 q 428 378 406 385 q 468 358 451 371 q 494 336 485 344 q 515 306 507 321 q 525 275 522 292 q 517 239 528 258 q 478 193 503 215 q 425 153 454 171 q 365 122 396 135 q 307 100 333 108 q 326 53 307 71 q 374 26 344 35 q 440 18 404 17 q 513 31 476 19 q 583 63 550 42 q 636 114 615 83 q 656 113 647 114 q 669 108 663 111 q 678 96 676 104 m 110 89 q 148 74 118 74 q 214 93 178 74 q 221 146 214 117 q 239 203 228 175 q 264 256 250 232 q 293 296 278 281 q 192 286 233 308 q 122 224 150 264 q 109 197 115 213 q 100 164 103 182 q 99 126 97 146 q 110 89 100 107 m 406 279 q 346 229 368 268 q 313 151 324 190 q 371 183 340 163 q 417 231 401 203 q 425 270 432 258 q 406 279 418 282 z "},"":{"ha":365,"x_min":-12,"x_max":417,"o":"m 288 207 q 281 215 285 208 q 282 236 276 221 q 285 249 283 240 q 284 265 288 257 q 270 281 281 274 q 238 289 260 288 q 173 269 206 292 q 118 214 140 247 q 103 183 110 201 q 92 146 96 165 q 91 108 89 126 q 106 75 93 89 q 176 41 133 43 q 260 53 218 39 q 337 94 301 68 q 388 144 372 121 q 403 138 397 142 q 413 129 408 135 q 415 115 417 124 q 388 70 411 94 q 328 25 364 46 q 247 -10 292 4 q 154 -21 201 -24 q 142 -43 143 -32 q 142 -53 142 -54 q 225 -67 196 -57 q 266 -90 254 -78 q 276 -117 278 -103 q 268 -144 275 -131 q 235 -166 260 -157 q 182 -178 210 -175 q 132 -179 154 -182 q 110 -165 110 -176 q 113 -149 108 -154 q 122 -141 117 -143 q 131 -138 126 -139 q 135 -136 135 -137 q 151 -134 135 -135 q 185 -131 167 -133 q 219 -122 204 -128 q 229 -103 233 -115 q 211 -87 225 -92 q 180 -79 197 -82 q 147 -74 163 -76 q 125 -67 131 -72 q 113 -44 114 -56 q 121 -17 113 -33 q 76 -4 97 -12 q 18 41 39 11 q -8 108 -3 71 q -1 188 -12 146 q 42 269 11 229 q 137 347 86 326 q 233 367 188 368 q 312 348 278 365 q 357 311 346 331 q 333 233 376 279 q 305 209 315 214 q 288 207 294 204 z "},"":{"ha":371,"x_min":-1,"x_max":432,"o":"m 431 96 q 407 58 432 88 q 340 1 382 29 q 242 -43 297 -26 q 125 -43 186 -60 q 43 10 74 -29 q 6 100 13 50 q 17 201 -1 150 q 83 289 36 253 q 149 325 114 311 q 215 345 183 339 q 274 352 247 351 q 314 349 300 353 q 349 329 336 342 q 361 301 360 318 q 343 260 363 285 q 298 213 326 238 q 238 167 269 189 q 173 127 206 144 q 114 101 140 110 q 145 38 114 58 q 220 19 176 17 q 310 44 264 21 q 389 114 357 68 q 408 113 400 114 q 422 108 415 111 q 431 96 429 104 m 213 281 q 153 231 175 269 q 119 153 131 192 q 178 184 147 164 q 224 232 208 204 q 232 272 239 260 q 213 281 225 283 m 118 475 q 103 486 108 478 q 101 501 99 494 q 133 530 113 522 q 176 528 153 538 q 224 491 200 518 q 269 417 249 464 q 264 397 274 403 q 229 403 247 385 q 186 439 214 418 q 118 475 158 460 z "},"":{"ha":371,"x_min":-1,"x_max":432,"o":"m 431 96 q 407 58 432 88 q 340 1 382 29 q 242 -43 297 -26 q 125 -43 186 -60 q 43 10 74 -29 q 6 100 13 50 q 17 201 -1 150 q 83 289 36 253 q 149 325 114 311 q 215 345 183 339 q 274 352 247 351 q 314 349 300 353 q 349 329 336 342 q 361 301 360 318 q 343 260 363 285 q 298 213 326 238 q 238 167 269 189 q 173 127 206 144 q 114 101 140 110 q 145 38 114 58 q 220 19 176 17 q 310 44 264 21 q 389 114 357 68 q 408 113 400 114 q 422 108 415 111 q 431 96 429 104 m 213 281 q 153 231 175 269 q 119 153 131 192 q 178 184 147 164 q 224 232 208 204 q 232 272 239 260 q 213 281 225 283 m 244 518 q 262 533 251 529 q 281 529 272 536 q 302 487 300 511 q 287 438 304 463 q 231 393 269 414 q 133 360 193 372 q 113 371 119 358 q 116 390 111 379 q 129 407 121 401 q 184 449 151 422 q 244 518 217 476 z "},"":{"ha":371,"x_min":-1,"x_max":432,"o":"m 431 96 q 407 58 432 88 q 340 1 382 29 q 242 -43 297 -26 q 125 -43 186 -60 q 43 10 74 -29 q 6 100 13 50 q 17 201 -1 150 q 83 289 36 253 q 149 325 114 311 q 215 345 183 339 q 274 352 247 351 q 314 349 300 353 q 349 329 336 342 q 361 301 360 318 q 343 260 363 285 q 298 213 326 238 q 238 167 269 189 q 173 127 206 144 q 114 101 140 110 q 145 38 114 58 q 220 19 176 17 q 310 44 264 21 q 389 114 357 68 q 408 113 400 114 q 422 108 415 111 q 431 96 429 104 m 213 281 q 153 231 175 269 q 119 153 131 192 q 178 184 147 164 q 224 232 208 204 q 232 272 239 260 q 213 281 225 283 m 53 393 q 67 426 54 402 q 100 475 80 450 q 144 518 119 500 q 194 533 169 536 q 246 506 220 529 q 294 456 272 483 q 344 386 319 425 q 318 384 330 384 q 297 385 308 384 q 282 389 287 386 q 265 408 277 391 q 238 445 252 426 q 208 479 223 464 q 183 492 193 494 q 159 474 171 490 q 134 440 146 458 q 108 392 121 418 q 79 384 91 387 q 60 383 69 382 q 53 393 51 384 z "},"":{"ha":371,"x_min":-1,"x_max":432,"o":"m 431 96 q 407 58 432 88 q 340 1 382 29 q 242 -43 297 -26 q 125 -43 186 -60 q 43 10 74 -29 q 6 100 13 50 q 17 201 -1 150 q 83 289 36 253 q 149 325 114 311 q 215 345 183 339 q 274 352 247 351 q 314 349 300 353 q 349 329 336 342 q 361 301 360 318 q 343 260 363 285 q 298 213 326 238 q 238 167 269 189 q 173 127 206 144 q 114 101 140 110 q 145 38 114 58 q 220 19 176 17 q 310 44 264 21 q 389 114 357 68 q 408 113 400 114 q 422 108 415 111 q 431 96 429 104 m 213 281 q 153 231 175 269 q 119 153 131 192 q 178 184 147 164 q 224 232 208 204 q 232 272 239 260 q 213 281 225 283 m 181 426 q 154 393 174 407 q 115 382 135 379 q 88 399 96 383 q 89 435 81 414 q 115 465 96 453 q 154 476 135 478 q 181 460 175 474 q 181 426 188 446 m 311 426 q 285 393 304 407 q 246 382 265 379 q 219 399 226 383 q 219 435 211 414 q 246 465 226 453 q 285 476 265 478 q 312 460 306 474 q 311 426 318 446 z "},"":{"ha":193,"x_min":-1,"x_max":268,"o":"m 213 158 q 226 171 217 169 q 244 171 235 172 q 268 164 256 168 q 223 71 253 104 q 163 21 193 38 q 88 -6 126 1 q 45 1 63 -8 q 17 27 28 11 q 3 65 7 43 q 0 108 -1 86 q 16 168 1 128 q 49 250 31 208 q 96 354 69 299 q 133 374 110 369 q 179 376 156 378 q 235 367 206 374 q 169 256 197 308 q 146 210 157 233 q 126 165 135 186 q 113 124 118 143 q 110 93 108 106 q 126 69 113 68 q 157 84 140 69 q 190 120 174 99 q 213 158 206 142 m 88 551 q 73 563 78 554 q 71 578 68 571 q 102 606 82 599 q 146 604 122 614 q 194 567 169 594 q 239 493 218 540 q 233 474 243 479 q 199 479 217 461 q 156 515 183 494 q 88 551 128 536 z "},"":{"ha":193,"x_min":-1,"x_max":272,"o":"m 213 158 q 226 171 217 169 q 244 171 235 172 q 268 164 256 168 q 223 71 253 104 q 163 21 193 38 q 88 -6 126 1 q 45 1 63 -8 q 17 27 28 11 q 3 65 7 43 q 0 108 -1 86 q 16 168 1 128 q 49 250 31 208 q 96 354 69 299 q 133 374 110 369 q 179 376 156 378 q 235 367 206 374 q 169 256 197 308 q 146 210 157 233 q 126 165 135 186 q 113 124 118 143 q 110 93 108 106 q 126 69 113 68 q 157 84 140 69 q 190 120 174 99 q 213 158 206 142 m 213 601 q 230 616 219 613 q 249 613 240 619 q 270 570 268 594 q 255 522 272 546 q 199 476 238 497 q 101 443 161 456 q 81 454 88 442 q 84 474 79 463 q 97 490 89 485 q 152 533 119 506 q 213 601 185 560 z "},"":{"ha":193,"x_min":-1,"x_max":318,"o":"m 213 158 q 226 171 217 169 q 244 171 235 172 q 268 164 256 168 q 223 71 253 104 q 163 21 193 38 q 88 -6 126 1 q 45 1 63 -8 q 17 27 28 11 q 3 65 7 43 q 0 108 -1 86 q 16 168 1 128 q 49 250 31 208 q 96 354 69 299 q 133 374 110 369 q 179 376 156 378 q 235 367 206 374 q 169 256 197 308 q 146 210 157 233 q 126 165 135 186 q 113 124 118 143 q 110 93 108 106 q 126 69 113 68 q 157 84 140 69 q 190 120 174 99 q 213 158 206 142 m 65 462 q 77 491 66 470 q 106 533 89 512 q 145 571 123 555 q 188 584 166 587 q 233 560 211 580 q 275 517 256 540 q 319 456 297 489 q 296 454 306 454 q 278 455 287 454 q 265 458 270 456 q 250 475 260 460 q 226 507 239 490 q 201 537 214 524 q 178 548 188 550 q 157 532 168 546 q 136 502 146 518 q 113 461 125 483 q 88 454 99 456 q 71 453 79 453 q 65 462 63 454 z "},"":{"ha":193,"x_min":-1,"x_max":304,"o":"m 213 158 q 226 171 217 169 q 244 171 235 172 q 268 164 256 168 q 223 71 253 104 q 163 21 193 38 q 88 -6 126 1 q 45 1 63 -8 q 17 27 28 11 q 3 65 7 43 q 0 108 -1 86 q 16 168 1 128 q 49 250 31 208 q 96 354 69 299 q 133 374 110 369 q 179 376 156 378 q 235 367 206 374 q 169 256 197 308 q 146 210 157 233 q 126 165 135 186 q 113 124 118 143 q 110 93 108 106 q 126 69 113 68 q 157 84 140 69 q 190 120 174 99 q 213 158 206 142 m 167 490 q 140 457 160 471 q 101 446 121 443 q 74 463 82 447 q 75 499 67 478 q 101 529 82 517 q 140 540 121 542 q 167 524 161 538 q 167 490 174 510 m 297 490 q 271 457 290 471 q 232 446 251 443 q 205 463 213 447 q 206 499 197 478 q 232 529 213 517 q 271 540 251 542 q 298 524 292 538 q 297 490 304 510 z "},"":{"ha":429,"x_min":-1,"x_max":510,"o":"m 435 151 q 449 164 440 163 q 468 163 458 165 q 492 153 479 160 q 440 65 472 94 q 375 19 407 35 q 297 0 339 3 q 242 16 260 0 q 221 56 225 32 q 224 111 217 81 q 242 172 231 142 q 266 227 253 201 q 288 269 279 253 q 230 210 264 253 q 165 122 196 167 q 110 40 133 76 q 83 0 86 4 l 79 0 q 30 12 47 0 q 6 42 13 24 q 0 81 -1 60 q 6 121 1 101 q 31 194 13 153 q 69 272 50 236 q 118 357 92 315 q 156 372 133 371 q 203 371 179 374 q 258 357 229 367 q 219 311 239 336 q 183 261 203 290 q 143 200 163 232 q 249 292 211 254 q 315 349 286 329 q 379 371 344 368 q 476 357 414 374 q 401 253 435 303 q 350 166 374 210 q 328 96 326 122 q 342 70 329 71 q 374 82 356 69 q 409 115 392 94 q 435 151 426 135 m 28 449 q 38 479 28 461 q 67 513 47 497 q 115 539 86 528 q 179 550 143 550 q 253 533 215 550 q 328 506 290 515 q 402 506 365 496 q 472 568 439 515 q 478 564 471 568 q 492 552 485 560 q 504 536 499 544 q 507 519 510 528 q 485 495 504 511 q 431 468 465 479 q 349 458 397 457 q 242 486 301 460 q 188 503 211 499 q 148 503 165 507 q 119 492 131 500 q 99 474 107 483 q 75 408 79 449 q 51 415 61 410 q 35 427 43 419 q 28 449 28 435 z "},"":{"ha":386,"x_min":-4,"x_max":413,"o":"m 315 125 q 349 122 332 122 q 381 124 367 122 q 413 128 396 125 q 399 85 408 97 q 388 76 393 79 q 328 73 357 68 q 281 81 300 78 q 204 26 253 53 q 96 0 156 0 q 31 27 54 0 q 1 94 7 54 q 8 182 -4 135 q 50 269 21 229 q 155 353 97 333 q 261 367 213 374 q 339 365 310 386 q 371 303 368 343 q 367 253 372 278 q 354 204 363 228 q 335 160 346 181 q 315 125 324 140 m 303 263 q 294 272 301 265 q 282 269 290 272 q 265 256 274 265 q 250 230 256 247 q 247 183 244 213 q 253 164 249 172 q 264 149 257 156 q 301 213 292 181 q 303 263 310 246 m 114 83 q 132 69 119 72 q 160 68 144 65 q 193 78 175 71 q 228 99 211 86 q 190 133 203 113 q 175 177 178 153 q 177 227 172 201 q 192 276 182 253 q 126 214 151 254 q 113 185 118 201 q 105 150 107 168 q 105 114 103 132 q 114 83 107 96 m 175 488 q 160 499 165 490 q 158 514 156 507 q 190 542 169 535 q 233 540 210 550 q 281 503 257 531 q 326 429 306 476 q 321 410 331 415 q 286 415 304 397 q 243 451 271 431 q 175 488 215 472 z "},"":{"ha":386,"x_min":-4,"x_max":413,"o":"m 315 125 q 349 122 332 122 q 381 124 367 122 q 413 128 396 125 q 399 85 408 97 q 388 76 393 79 q 328 73 357 68 q 281 81 300 78 q 204 26 253 53 q 96 0 156 0 q 31 27 54 0 q 1 94 7 54 q 8 182 -4 135 q 50 269 21 229 q 155 353 97 333 q 261 367 213 374 q 339 365 310 386 q 371 303 368 343 q 367 253 372 278 q 354 204 363 228 q 335 160 346 181 q 315 125 324 140 m 303 263 q 294 272 301 265 q 282 269 290 272 q 265 256 274 265 q 250 230 256 247 q 247 183 244 213 q 253 164 249 172 q 264 149 257 156 q 301 213 292 181 q 303 263 310 246 m 114 83 q 132 69 119 72 q 160 68 144 65 q 193 78 175 71 q 228 99 211 86 q 190 133 203 113 q 175 177 178 153 q 177 227 172 201 q 192 276 182 253 q 126 214 151 254 q 113 185 118 201 q 105 150 107 168 q 105 114 103 132 q 114 83 107 96 m 290 558 q 308 573 297 569 q 326 569 318 576 q 348 527 346 551 q 333 478 350 503 q 277 433 315 454 q 179 400 239 413 q 158 411 165 399 q 162 431 157 419 q 175 447 167 442 q 230 490 197 463 q 290 558 263 517 z "},"":{"ha":386,"x_min":-4,"x_max":413,"o":"m 315 125 q 349 122 332 122 q 381 124 367 122 q 413 128 396 125 q 399 85 408 97 q 388 76 393 79 q 328 73 357 68 q 281 81 300 78 q 204 26 253 53 q 96 0 156 0 q 31 27 54 0 q 1 94 7 54 q 8 182 -4 135 q 50 269 21 229 q 155 353 97 333 q 261 367 213 374 q 339 365 310 386 q 371 303 368 343 q 367 253 372 278 q 354 204 363 228 q 335 160 346 181 q 315 125 324 140 m 303 263 q 294 272 301 265 q 282 269 290 272 q 265 256 274 265 q 250 230 256 247 q 247 183 244 213 q 253 164 249 172 q 264 149 257 156 q 301 213 292 181 q 303 263 310 246 m 114 83 q 132 69 119 72 q 160 68 144 65 q 193 78 175 71 q 228 99 211 86 q 190 133 203 113 q 175 177 178 153 q 177 227 172 201 q 192 276 182 253 q 126 214 151 254 q 113 185 118 201 q 105 150 107 168 q 105 114 103 132 q 114 83 107 96 m 90 413 q 103 443 91 421 q 133 487 115 465 q 173 527 151 510 q 219 540 195 543 q 265 515 242 537 q 309 470 289 494 q 355 406 332 441 q 331 405 342 405 q 313 405 322 405 q 299 409 303 406 q 283 427 294 411 q 258 460 271 442 q 231 491 245 477 q 208 503 218 505 q 186 486 198 501 q 164 455 175 472 q 140 412 152 435 q 114 405 125 407 q 96 404 104 403 q 90 413 88 405 z "},"":{"ha":386,"x_min":-4,"x_max":413,"o":"m 315 125 q 349 122 332 122 q 381 124 367 122 q 413 128 396 125 q 399 85 408 97 q 388 76 393 79 q 328 73 357 68 q 281 81 300 78 q 204 26 253 53 q 96 0 156 0 q 31 27 54 0 q 1 94 7 54 q 8 182 -4 135 q 50 269 21 229 q 155 353 97 333 q 261 367 213 374 q 339 365 310 386 q 371 303 368 343 q 367 253 372 278 q 354 204 363 228 q 335 160 346 181 q 315 125 324 140 m 303 263 q 294 272 301 265 q 282 269 290 272 q 265 256 274 265 q 250 230 256 247 q 247 183 244 213 q 253 164 249 172 q 264 149 257 156 q 301 213 292 181 q 303 263 310 246 m 114 83 q 132 69 119 72 q 160 68 144 65 q 193 78 175 71 q 228 99 211 86 q 190 133 203 113 q 175 177 178 153 q 177 227 172 201 q 192 276 182 253 q 126 214 151 254 q 113 185 118 201 q 105 150 107 168 q 105 114 103 132 q 114 83 107 96 m 54 418 q 61 439 54 427 q 82 463 68 452 q 115 481 95 474 q 161 489 136 489 q 213 477 186 489 q 266 458 239 465 q 318 458 292 451 q 367 502 344 465 q 371 499 366 502 q 381 491 376 496 q 390 479 386 485 q 392 468 394 474 q 376 451 390 462 q 339 432 363 439 q 281 425 315 424 q 205 444 247 426 q 167 456 183 453 q 139 456 151 459 q 118 448 127 454 q 104 435 110 442 q 88 389 90 418 q 71 394 78 390 q 60 403 65 397 q 54 418 54 408 z "},"":{"ha":386,"x_min":-26,"x_max":461,"o":"m 315 125 q 349 122 332 122 q 381 124 367 122 q 413 128 396 125 q 399 85 408 97 q 388 76 393 79 q 328 73 357 68 q 281 81 300 78 q 212 31 256 56 q 115 0 168 6 l 19 -125 q 2 -135 13 -135 q -17 -128 -8 -136 q -25 -112 -24 -121 q -21 -96 -26 -103 l 51 11 q 13 54 26 25 q 0 120 0 83 q 13 197 0 157 q 50 269 25 236 q 155 353 97 333 q 261 367 213 374 q 273 371 268 369 q 285 374 278 372 q 333 456 310 415 q 378 533 357 496 q 392 547 382 543 q 410 543 401 550 l 444 526 q 458 510 454 519 q 456 492 461 500 q 410 420 435 458 q 358 342 386 382 q 371 303 368 325 q 367 253 372 278 q 354 204 363 228 q 335 160 346 181 q 315 125 324 140 m 174 196 q 192 276 174 233 q 126 214 151 254 q 105 158 111 192 q 108 96 99 124 l 174 196 m 247 182 q 253 163 249 171 q 264 149 257 156 q 300 213 290 181 q 303 261 310 244 l 247 182 m 165 69 q 228 99 197 76 q 201 118 210 107 l 165 69 z "},"":{"ha":404,"x_min":-11,"x_max":465,"o":"m 410 146 q 424 158 415 157 q 443 157 433 160 q 465 147 454 154 q 413 59 446 89 q 349 14 381 29 q 271 -6 313 -3 q 217 10 233 -6 q 197 49 201 25 q 151 17 174 28 q 108 1 128 7 q 65 -6 86 -4 q 17 6 33 -6 q -5 35 1 18 q -10 74 -11 53 q -8 115 -10 96 q 11 173 -7 135 q 50 251 29 211 q 104 351 75 297 q 143 367 119 365 q 190 365 167 368 q 244 351 215 361 q 169 247 203 297 q 118 160 142 204 q 96 90 94 117 q 111 65 97 65 q 143 76 125 64 q 178 109 161 89 q 204 146 196 129 q 208 151 206 149 q 236 214 219 179 q 269 279 253 249 q 310 351 289 315 q 349 367 325 365 q 396 365 372 368 q 450 351 421 361 q 375 247 408 297 q 324 160 347 204 q 301 90 300 117 q 317 65 303 65 q 349 76 331 64 q 384 109 367 89 q 410 146 401 129 m 199 521 q 184 532 189 524 q 182 547 179 540 q 213 576 193 568 q 257 574 233 583 q 305 537 281 564 q 350 463 329 510 q 344 443 354 449 q 310 449 328 431 q 267 485 294 464 q 199 521 239 506 z "},"":{"ha":404,"x_min":-11,"x_max":465,"o":"m 410 146 q 424 158 415 157 q 443 157 433 160 q 465 147 454 154 q 413 59 446 89 q 349 14 381 29 q 271 -6 313 -3 q 217 10 233 -6 q 197 49 201 25 q 151 17 174 28 q 108 1 128 7 q 65 -6 86 -4 q 17 6 33 -6 q -5 35 1 18 q -10 74 -11 53 q -8 115 -10 96 q 11 173 -7 135 q 50 251 29 211 q 104 351 75 297 q 143 367 119 365 q 190 365 167 368 q 244 351 215 361 q 169 247 203 297 q 118 160 142 204 q 96 90 94 117 q 111 65 97 65 q 143 76 125 64 q 178 109 161 89 q 204 146 196 129 q 208 151 206 149 q 236 214 219 179 q 269 279 253 249 q 310 351 289 315 q 349 367 325 365 q 396 365 372 368 q 450 351 421 361 q 375 247 408 297 q 324 160 347 204 q 301 90 300 117 q 317 65 303 65 q 349 76 331 64 q 384 109 367 89 q 410 146 401 129 m 339 593 q 356 608 346 604 q 375 604 367 611 q 397 562 394 586 q 381 513 399 538 q 326 468 364 489 q 228 435 288 447 q 207 446 214 433 q 210 465 206 454 q 224 482 215 476 q 278 524 246 497 q 339 593 311 551 z "},"":{"ha":404,"x_min":-11,"x_max":465,"o":"m 410 146 q 424 158 415 157 q 443 157 433 160 q 465 147 454 154 q 413 59 446 89 q 349 14 381 29 q 271 -6 313 -3 q 217 10 233 -6 q 197 49 201 25 q 151 17 174 28 q 108 1 128 7 q 65 -6 86 -4 q 17 6 33 -6 q -5 35 1 18 q -10 74 -11 53 q -8 115 -10 96 q 11 173 -7 135 q 50 251 29 211 q 104 351 75 297 q 143 367 119 365 q 190 365 167 368 q 244 351 215 361 q 169 247 203 297 q 118 160 142 204 q 96 90 94 117 q 111 65 97 65 q 143 76 125 64 q 178 109 161 89 q 204 146 196 129 q 208 151 206 149 q 236 214 219 179 q 269 279 253 249 q 310 351 289 315 q 349 367 325 365 q 396 365 372 368 q 450 351 421 361 q 375 247 408 297 q 324 160 347 204 q 301 90 300 117 q 317 65 303 65 q 349 76 331 64 q 384 109 367 89 q 410 146 401 129 m 151 444 q 165 478 152 453 q 199 528 179 502 q 244 572 219 554 q 296 587 270 591 q 348 560 322 583 q 397 509 375 536 q 449 437 423 476 q 422 435 434 435 q 401 436 412 435 q 386 440 391 437 q 368 460 380 442 q 340 497 355 477 q 310 532 325 517 q 284 546 295 547 q 259 527 272 543 q 234 492 246 511 q 207 443 221 469 q 178 435 190 438 q 158 434 167 433 q 151 444 149 435 z "},"":{"ha":404,"x_min":-11,"x_max":465,"o":"m 410 146 q 424 158 415 157 q 443 157 433 160 q 465 147 454 154 q 413 59 446 89 q 349 14 381 29 q 271 -6 313 -3 q 217 10 233 -6 q 197 49 201 25 q 151 17 174 28 q 108 1 128 7 q 65 -6 86 -4 q 17 6 33 -6 q -5 35 1 18 q -10 74 -11 53 q -8 115 -10 96 q 11 173 -7 135 q 50 251 29 211 q 104 351 75 297 q 143 367 119 365 q 190 365 167 368 q 244 351 215 361 q 169 247 203 297 q 118 160 142 204 q 96 90 94 117 q 111 65 97 65 q 143 76 125 64 q 178 109 161 89 q 204 146 196 129 q 208 151 206 149 q 236 214 219 179 q 269 279 253 249 q 310 351 289 315 q 349 367 325 365 q 396 365 372 368 q 450 351 421 361 q 375 247 408 297 q 324 160 347 204 q 301 90 300 117 q 317 65 303 65 q 349 76 331 64 q 384 109 367 89 q 410 146 401 129 m 283 467 q 257 433 276 447 q 218 422 238 419 q 191 439 199 424 q 192 475 183 454 q 218 506 199 493 q 257 517 238 518 q 284 500 278 514 q 283 467 290 486 m 414 467 q 388 433 407 447 q 349 422 368 419 q 322 439 329 424 q 322 475 314 454 q 349 506 329 493 q 388 517 368 518 q 415 500 408 514 q 414 467 421 486 z "},"":{"ha":414,"x_min":-49,"x_max":465,"o":"m 318 357 q 356 372 333 371 q 403 371 379 374 q 458 357 429 367 q 362 233 411 317 q 265 50 313 150 q 310 74 286 61 q 357 97 335 86 q 397 114 379 107 q 424 121 415 121 q 442 109 433 121 q 456 82 450 97 q 463 53 461 67 q 464 40 465 40 q 409 36 440 43 q 345 17 378 29 q 281 -10 313 4 q 226 -36 249 -25 q 180 -136 201 -89 q 140 -219 158 -183 q 108 -274 122 -254 q 85 -290 93 -293 q 18 -271 47 -286 q -28 -232 -7 -258 q -49 -160 -49 -206 q -31 -100 -49 -125 q 13 -57 -14 -75 q 68 -28 39 -39 q 122 -14 97 -18 q 129 6 129 4 q 132 11 129 7 q 108 5 119 7 q 90 1 97 3 q 74 0 81 0 q 9 32 26 7 q -6 92 -8 57 q 14 167 -3 126 q 51 244 31 207 q 89 312 71 282 q 113 357 107 342 q 151 372 128 371 q 197 371 174 374 q 253 357 224 367 q 178 253 211 303 q 126 166 150 210 q 104 96 103 122 q 114 72 104 76 q 137 74 124 68 q 165 94 150 81 q 193 124 181 108 q 253 242 225 182 q 318 357 282 303 m 19 -128 q 7 -178 4 -156 q 38 -212 10 -201 q 57 -176 46 -199 q 78 -132 68 -154 q 95 -92 88 -110 q 104 -69 103 -75 q 57 -90 83 -72 q 19 -128 31 -108 m 356 615 q 373 630 363 626 q 392 626 383 633 q 413 584 411 608 q 398 535 415 560 q 342 490 381 511 q 244 457 304 469 q 224 468 231 456 q 227 488 222 476 q 240 504 232 499 q 295 547 263 519 q 356 615 328 574 z "},"":{"ha":414,"x_min":-49,"x_max":465,"o":"m 318 357 q 356 372 333 371 q 403 371 379 374 q 458 357 429 367 q 362 233 411 317 q 265 50 313 150 q 310 74 286 61 q 357 97 335 86 q 397 114 379 107 q 424 121 415 121 q 442 109 433 121 q 456 82 450 97 q 463 53 461 67 q 464 40 465 40 q 409 36 440 43 q 345 17 378 29 q 281 -10 313 4 q 226 -36 249 -25 q 180 -136 201 -89 q 140 -219 158 -183 q 108 -274 122 -254 q 85 -290 93 -293 q 18 -271 47 -286 q -28 -232 -7 -258 q -49 -160 -49 -206 q -31 -100 -49 -125 q 13 -57 -14 -75 q 68 -28 39 -39 q 122 -14 97 -18 q 129 6 129 4 q 132 11 129 7 q 108 5 119 7 q 90 1 97 3 q 74 0 81 0 q 9 32 26 7 q -6 92 -8 57 q 14 167 -3 126 q 51 244 31 207 q 89 312 71 282 q 113 357 107 342 q 151 372 128 371 q 197 371 174 374 q 253 357 224 367 q 178 253 211 303 q 126 166 150 210 q 104 96 103 122 q 114 72 104 76 q 137 74 124 68 q 165 94 150 81 q 193 124 181 108 q 253 242 225 182 q 318 357 282 303 m 19 -128 q 7 -178 4 -156 q 38 -212 10 -201 q 57 -176 46 -199 q 78 -132 68 -154 q 95 -92 88 -110 q 104 -69 103 -75 q 57 -90 83 -72 q 19 -128 31 -108 m 288 464 q 261 431 281 444 q 222 419 242 417 q 195 436 203 421 q 196 472 188 451 q 222 503 203 490 q 261 514 242 515 q 288 497 282 511 q 288 464 294 483 m 418 464 q 392 431 411 444 q 353 419 372 417 q 326 436 333 421 q 326 472 318 451 q 353 503 333 490 q 392 514 372 515 q 419 497 413 511 q 418 464 425 483 z "},"":{"ha":386,"x_min":-4,"x_max":413,"o":"m 315 125 q 349 122 332 122 q 381 124 367 122 q 413 128 396 125 q 399 85 408 97 q 388 76 393 79 q 328 73 357 68 q 281 81 300 78 q 204 26 253 53 q 96 0 156 0 q 31 27 54 0 q 1 94 7 54 q 8 182 -4 135 q 50 269 21 229 q 155 353 97 333 q 261 367 213 374 q 339 365 310 386 q 371 303 368 343 q 367 253 372 278 q 354 204 363 228 q 335 160 346 181 q 315 125 324 140 m 303 263 q 294 272 301 265 q 282 269 290 272 q 265 256 274 265 q 250 230 256 247 q 247 183 244 213 q 253 164 249 172 q 264 149 257 156 q 301 213 292 181 q 303 263 310 246 m 114 83 q 132 69 119 72 q 160 68 144 65 q 193 78 175 71 q 228 99 211 86 q 190 133 203 113 q 175 177 178 153 q 177 227 172 201 q 192 276 182 253 q 126 214 151 254 q 113 185 118 201 q 105 150 107 168 q 105 114 103 132 q 114 83 107 96 m 235 465 q 208 432 228 446 q 169 421 189 418 q 142 438 150 422 q 143 474 135 453 q 169 504 150 492 q 208 515 189 517 q 235 499 229 513 q 235 465 242 485 m 365 465 q 339 432 358 446 q 300 421 319 418 q 273 438 281 422 q 274 474 265 453 q 300 504 281 492 q 339 515 319 517 q 366 499 360 513 q 365 465 372 485 z "},"":{"ha":258,"x_min":18,"x_max":251,"o":"m 247 231 q 247 216 251 224 q 235 208 243 208 l 35 210 q 21 218 25 210 q 22 232 18 225 q 33 240 26 239 l 225 256 q 239 247 235 256 l 247 231 m 197 324 q 171 290 190 304 q 132 279 151 276 q 104 296 113 281 q 107 331 96 311 q 133 363 114 350 q 171 374 151 375 q 199 357 192 371 q 197 324 206 343 m 151 119 q 125 86 144 100 q 86 75 106 72 q 58 92 67 76 q 61 126 50 107 q 87 158 68 146 q 125 169 106 171 q 153 153 146 167 q 151 119 160 139 z "},"":{"ha":258,"x_min":32,"x_max":475,"o":"m 51 -100 q 35 -69 32 -93 q 47 10 39 -42 q 65 132 56 63 q 86 283 75 201 q 107 451 97 365 q 126 621 117 536 q 140 781 135 706 q 148 801 140 793 q 167 810 156 808 l 201 808 q 217 804 207 808 q 238 794 228 800 q 256 781 249 788 q 263 768 263 774 q 238 589 253 688 q 207 389 224 490 l 224 371 q 292 408 253 392 q 376 424 332 424 q 441 397 418 424 q 469 328 464 369 q 463 240 475 288 q 421 154 450 193 q 352 88 389 111 q 278 58 315 65 q 209 56 242 51 q 151 71 176 60 l 125 -69 q 115 -81 125 -75 q 93 -92 106 -87 q 69 -99 81 -97 q 51 -100 57 -101 m 357 215 q 371 241 364 225 q 381 274 378 257 q 384 309 385 292 q 376 339 383 326 q 346 354 368 353 q 297 347 324 356 q 242 321 269 338 q 199 282 215 304 l 185 258 q 182 242 185 253 q 202 244 193 246 q 214 242 211 242 q 202 224 215 240 q 182 190 189 208 q 179 178 181 186 q 181 162 178 169 q 194 148 185 154 q 222 140 203 142 q 304 158 275 136 q 357 215 333 181 z "},"":{"ha":486,"x_min":-3,"x_max":560,"o":"m 501 600 q 545 551 531 589 q 559 465 560 514 q 543 362 558 415 q 499 267 528 308 q 441 206 475 235 q 370 160 407 178 q 298 136 333 142 q 238 144 263 131 q 189 183 208 161 q 161 238 169 204 q 117 122 133 183 q 103 -7 100 60 q 33 3 57 -15 q 3 63 8 22 q 12 163 -3 104 q 60 290 26 221 q 112 438 92 354 q 144 600 132 522 q 167 783 160 689 q 290 772 269 839 q 246 485 310 704 q 308 524 272 501 q 378 567 343 547 q 447 597 414 586 q 501 600 479 608 m 424 338 q 444 398 436 367 q 453 455 451 429 q 451 496 456 481 q 438 510 447 511 q 381 492 410 506 q 324 460 351 478 q 272 425 296 443 q 232 396 249 407 q 222 370 225 381 q 214 351 218 360 q 205 331 210 342 q 193 304 200 321 q 211 253 196 282 q 258 219 226 225 q 349 246 303 213 q 424 338 396 279 z "},"+":{"ha":1157,"x_min":94,"x_max":353,"o":"m 349 172 q 349 154 353 164 q 335 144 344 144 l 242 144 l 217 67 q 200 57 214 57 q 183 64 190 57 q 178 79 175 71 l 192 144 l 111 144 q 97 156 103 144 q 99 174 94 165 q 111 182 103 182 l 200 192 l 218 281 q 232 290 221 290 l 256 290 q 274 284 267 292 q 279 268 282 276 l 257 197 l 325 203 q 340 193 335 203 l 349 172 z "},"":{"ha":600,"x_min":-50,"x_max":678,"o":"m 521 582 q 585 604 554 603 q 638 598 617 606 q 669 578 660 590 q 667 560 678 567 q 610 513 638 542 q 559 449 583 485 q 513 374 535 414 q 472 294 490 335 q 549 294 517 300 q 597 267 582 289 q 607 230 608 251 q 600 201 606 208 q 590 200 599 199 q 560 203 581 201 q 509 204 540 204 q 432 199 478 204 q 424 177 428 188 q 417 156 419 167 l 439 132 q 476 96 457 117 q 509 48 494 75 q 531 -12 524 21 q 535 -86 539 -46 q 500 -205 528 -167 q 440 -255 472 -243 q 378 -260 407 -267 q 338 -242 349 -253 q 281 -167 296 -214 q 267 -69 265 -121 q 281 33 268 -17 q 307 115 293 82 l 332 183 q 124 132 243 167 q 160 96 142 117 q 194 48 179 75 q 216 -12 208 21 q 219 -86 224 -46 q 185 -205 213 -167 q 124 -255 157 -243 q 63 -260 92 -267 q 22 -242 33 -253 q -35 -167 -19 -214 q -49 -69 -50 -121 q -35 33 -47 -17 q -8 115 -22 82 q 37 242 18 179 q 74 359 56 306 q 114 452 93 413 q 167 510 135 492 q 231 531 200 529 q 285 525 263 532 q 315 506 307 518 q 313 488 324 494 q 241 428 271 461 q 188 358 211 396 q 148 274 165 319 q 113 179 131 229 q 142 191 118 181 q 199 215 165 201 q 274 242 233 228 q 358 269 315 257 q 389 367 374 319 q 423 456 404 414 q 465 530 442 497 q 521 582 489 563 m 446 -67 q 456 -15 457 -40 q 447 30 456 10 q 426 65 439 50 q 400 89 413 81 q 378 0 388 43 q 361 -82 368 -43 q 382 -97 369 -93 q 407 -97 394 -100 q 431 -87 419 -94 q 446 -67 442 -79 m 131 -67 q 141 -15 142 -40 q 132 30 140 10 q 110 65 124 50 q 85 89 97 81 q 63 0 72 43 q 46 -82 53 -43 q 67 -97 54 -93 q 92 -97 79 -100 q 115 -87 104 -94 q 131 -67 126 -79 z "},"a":{"ha":422,"x_min":-4,"x_max":476,"o":"m 421 122 q 435 135 426 133 q 454 133 444 136 q 476 124 465 131 q 424 35 457 65 q 360 -10 392 6 q 282 -29 324 -26 q 250 -22 263 -29 q 230 -5 238 -15 q 220 17 222 6 q 221 35 218 28 q 163 10 194 19 q 96 0 131 0 q 31 27 54 0 q 1 94 7 54 q 8 182 -4 135 q 50 269 21 229 q 118 333 81 311 q 193 360 156 354 q 264 361 231 367 q 322 346 297 356 q 350 370 332 364 q 389 375 368 376 q 431 368 410 374 q 468 357 453 363 q 389 238 424 293 q 360 189 374 214 q 335 141 346 164 q 319 99 325 118 q 313 67 313 79 q 328 41 314 42 q 360 53 342 40 q 395 85 378 65 q 421 122 413 106 m 110 89 q 148 74 118 74 q 214 93 178 74 q 222 143 214 117 q 242 197 231 169 q 268 249 254 224 q 293 296 282 274 q 192 286 233 308 q 122 224 150 264 q 109 197 115 213 q 100 164 103 182 q 99 126 97 146 q 110 89 100 107 z "},"b":{"ha":451,"x_min":4,"x_max":446,"o":"m 338 364 q 404 337 379 364 q 438 269 429 310 q 435 182 446 229 q 396 96 425 135 q 331 35 367 56 q 257 6 294 14 q 185 0 219 -3 q 125 11 150 3 q 89 1 107 4 q 56 1 71 -3 q 15 36 25 8 q 13 106 4 64 q 45 202 21 149 q 108 315 69 256 q 166 424 147 374 q 192 510 185 474 q 199 588 200 553 q 297 565 268 585 q 326 513 325 546 q 304 438 326 481 q 250 346 282 396 q 338 364 293 364 m 318 156 q 333 183 325 165 q 345 219 340 200 q 350 258 350 239 q 343 289 350 276 q 319 304 336 301 q 280 302 301 307 q 235 285 258 297 q 192 258 211 274 q 168 220 181 240 q 147 185 156 200 q 166 185 158 188 q 175 182 174 183 q 172 177 176 182 q 163 165 168 172 q 152 148 158 157 q 143 131 146 139 q 140 116 142 126 q 142 94 139 106 q 154 75 144 83 q 183 65 164 67 q 228 70 208 63 q 265 92 249 78 q 293 122 281 106 q 318 156 306 139 z "},"c":{"ha":365,"x_min":-12,"x_max":417,"o":"m 288 207 q 281 215 285 208 q 282 236 276 221 q 285 249 283 240 q 284 265 288 257 q 270 281 281 274 q 238 289 260 288 q 173 269 206 292 q 118 214 140 247 q 103 183 110 201 q 92 146 96 165 q 91 108 89 126 q 106 75 93 89 q 176 41 133 43 q 260 53 218 39 q 337 94 301 68 q 388 144 372 121 q 403 138 397 142 q 413 129 408 135 q 415 115 417 124 q 378 60 411 90 q 296 8 344 31 q 189 -21 247 -14 q 76 -4 131 -28 q 18 41 39 11 q -8 108 -3 71 q -1 188 -12 146 q 42 269 11 229 q 137 347 86 326 q 233 367 188 368 q 312 348 278 365 q 357 311 346 331 q 333 233 376 279 q 305 209 315 214 q 288 207 294 204 z "}}}
